v -0.5 -0.5 -0.5
v 0.5 -0.5 -0.5
v -0.5 0.5 -0.5
v 0.5 0.5 -0.5
v -0.5 -0.5 0.5
v 0.5 -0.5 0.5
v -0.5 0.5 0.5
v 0.5 0.5 0.5
v 0.1328125 -0.0078125 -0.5
v -0.5 0.1328125 -0.0078125
v -0.0078125 -0.5 0.1328125
v 0.0078125 -0.1328125 0.5
v -0.1328125 0.5 0.0078125
v 0.5 0.0078125 -0.1328125
v 0.0625 -0.5 -0.5
v -0.0625 0.5 -0.5
v -0.5 0.0625 -0.5
v -0.5 -0.0625 0.5
v -0.5 -0.5 0.0625
v 0.5 -0.5 -0.0625
v 0.5 -0.0625 0.5
v -0.0625 0.5 0.5
v 0.5 0.5 -0.0625
v 0.5 0.0625 -0.5
v -0.5 0.5 0.0625
v 0.0625 -0.5 0.5
f 15 1 17 
f 24 23 14 
f 16 4 24 
f 21 20 14 
f 17 1 19 
f 25 22 13 
f 18 7 25 
f 23 16 13 
f 19 1 15 
f 26 21 12 
f 20 6 26 
f 22 18 12 
f 21 8 22 
f 26 19 11 
f 18 5 26 
f 15 20 11 
f 22 8 23 
f 25 17 10 
f 16 3 25 
f 19 18 10 
f 23 8 21 
f 24 15 9 
f 20 2 24 
f 17 16 9 
f 23 4 16 
f 20 24 14 
f 25 7 22 
f 23 21 14 
f 19 5 18 
f 16 25 13 
f 24 4 23 
f 22 23 13 
f 17 3 16 
f 18 26 12 
f 24 2 15 
f 21 22 12 
f 21 6 20 
f 20 26 11 
f 26 5 19 
f 19 15 11 
f 22 7 18 
f 18 25 10 
f 25 3 17 
f 17 19 10 
f 15 2 20 
f 16 24 9 
f 26 6 21 
f 15 17 9 
