v -0.5 -0.5 -0.5
v 0.5 -0.5 -0.5
v -0.5 0.5 -0.5
v 0.5 0.5 -0.5
v -0.5 -0.5 0.5
v 0.5 -0.5 0.5
v -0.5 0.5 0.5
v 0.5 0.5 0.5
v 0 0 -0.5
v -0.5 0 0
v 0 -0.5 0
v 0 0 0.5
v 0 0.5 0
v 0.5 0 0
v 0.0625 -0.5 -0.5
v -0.0625 0.5 -0.5
v -0.5 0.0625 -0.5
v -0.5 -0.0625 0.5
v -0.5 -0.5 0.0625
v 0.5 -0.5 -0.0625
v 0.5 -0.0625 0.5
v -0.0625 0.5 0.5
v 0.5 0.5 -0.0625
v 0.5 0.0625 -0.5
v -0.5 0.5 0.0625
v 0.0625 -0.5 0.5
v -0.125 -0.25 -0.5
v 0.125 0.25 -0.5
v -0.5 -0.125 -0.25
v -0.5 0.125 0.25
v -0.25 -0.5 -0.125
v 0.25 -0.5 0.125
v 0.25 0.125 0.5
v -0.25 -0.125 0.5
v 0.125 0.5 0.25
v -0.125 0.5 -0.25
v 0.5 0.25 0.125
v 0.5 -0.25 -0.125
v -0.25 0.125 -0.5
v 0.25 -0.125 -0.5
v -0.5 -0.25 0.125
v -0.5 0.25 -0.125
v 0.125 -0.5 -0.25
v -0.125 -0.5 0.25
v -0.125 0.25 0.5
v 0.125 -0.25 0.5
v 0.25 0.5 -0.125
v -0.25 0.5 0.125
v 0.5 -0.125 0.25
v 0.5 0.125 -0.25
f 15 1 17 
f 24 23 50 
f 16 4 24 
f 21 20 49 
f 17 1 19 
f 25 22 48 
f 18 7 25 
f 23 16 47 
f 19 1 15 
f 26 21 46 
f 20 6 26 
f 22 18 45 
f 21 8 22 
f 26 19 44 
f 18 5 26 
f 15 20 43 
f 22 8 23 
f 25 17 42 
f 16 3 25 
f 19 18 41 
f 23 8 21 
f 24 15 40 
f 20 2 24 
f 17 16 39 
f 14 38 50 
f 20 24 38 
f 14 37 49 
f 23 21 37 
f 13 36 48 
f 16 25 36 
f 13 35 47 
f 22 23 35 
f 12 34 46 
f 18 26 34 
f 12 33 45 
f 21 22 33 
f 11 32 44 
f 20 26 32 
f 11 31 43 
f 19 15 31 
f 10 30 42 
f 18 25 30 
f 10 29 41 
f 17 19 29 
f 9 28 40 
f 16 24 28 
f 9 27 39 
f 15 17 27 
f 15 2 20 
f 15 27 40 
f 37 14 50 
f 15 43 31 
f 30 10 41 
f 16 28 39 
f 38 14 49 
f 16 36 47 
f 17 3 16 
f 17 29 42 
f 35 13 48 
f 17 39 27 
f 32 11 43 
f 18 30 41 
f 36 13 47 
f 18 34 45 
f 19 5 18 
f 19 31 44 
f 33 12 46 
f 19 41 29 
f 28 9 39 
f 20 32 43 
f 34 12 45 
f 20 38 49 
f 21 6 20 
f 21 33 46 
f 31 11 44 
f 21 49 37 
f 22 7 18 
f 22 35 48 
f 29 10 42 
f 22 45 33 
f 23 4 16 
f 23 37 50 
f 27 9 40 
f 23 47 35 
f 24 4 23 
f 24 40 28 
f 24 2 15 
f 24 50 38 
f 25 7 22 
f 25 42 30 
f 25 3 17 
f 25 48 36 
f 26 6 21 
f 26 44 32 
f 26 5 19 
f 26 46 34 
