v -0.5 -0.5 -0.5
v 0.5 -0.5 -0.5
v -0.5 0.5 -0.5
v 0.5 0.5 -0.5
v -0.5 -0.5 0.5
v 0.5 -0.5 0.5
v -0.5 0.5 0.5
v 0.5 0.5 0.5
v 0 0 -0.5
v -0.5 0 0
v 0 -0.5 0
v 0 0 0.5
v 0 0.5 0
v 0.5 0 0
v -0.125 -0.5 -0.5
v -0.0625 0.5 -0.5
v -0.5 -0.125 -0.5
v -0.5 -0.0625 0.5
v -0.5 -0.5 -0.125
v 0.5 -0.5 -0.0625
v 0.5 0.125 0.5
v 0.125 0.5 0.5
v 0.5 0.5 0.125
v 0.5 0 -0.5
v -0.5 0.5 0
v 0 -0.5 0.5
v -0.125 -0.25 -0.5
v 0.125 0.25 -0.5
v -0.5 -0.125 -0.25
v -0.5 0.125 0.25
v -0.25 -0.5 -0.125
v 0.25 -0.5 0.125
v 0.25 0.125 0.5
v -0.25 -0.125 0.5
v 0.125 0.5 0.25
v -0.125 0.5 -0.25
v 0.5 0.25 0.125
v 0.5 -0.25 -0.125
v -0.25 0.25 -0.5
v 0.25 -0.25 -0.5
v -0.5 -0.25 0.25
v -0.5 0.25 -0.25
v 0.25 -0.5 -0.25
v -0.25 -0.5 0.25
v -0.25 0.25 0.5
v 0.25 -0.25 0.5
v 0.25 0.5 -0.25
v -0.25 0.5 0.25
v 0.5 -0.25 0.25
v 0.5 0.25 -0.25
v 0.25 -0.5 0.5
v -0.5 0.5 0.25
v 0.5 0.25 -0.5
v 0.5 0.5 -0.25
v -0.25 0.5 0.5
v 0.5 -0.25 0.5
v -0.25 -0.5 0.5
v -0.5 -0.5 0.25
v -0.5 0.5 -0.25
v -0.5 0.25 -0.5
v 0.5 -0.25 -0.5
v 0.25 -0.5 -0.5
v -0.25 0 -0.5
v 0.25 0 -0.5
v -0.5 -0.25 0
v -0.5 0.25 0
v 0 -0.5 -0.25
v 0 -0.5 0.25
v 0 0.25 0.5
v 0 -0.25 0.5
v 0.25 0.5 0
v -0.25 0.5 0
v 0.5 0 0.25
v 0.5 0 -0.25
f 37 74 50 
f 53 54 50 
f 38 73 49 
f 56 20 49 
f 35 72 48 
f 52 55 48 
f 36 71 47 
f 54 16 47 
f 33 70 46 
f 51 56 46 
f 34 69 45 
f 55 18 45 
f 31 68 44 
f 57 58 44 
f 32 67 43 
f 62 20 43 
f 29 66 42 
f 59 60 42 
f 30 65 41 
f 58 18 41 
f 27 64 40 
f 61 62 40 
f 28 63 39 
f 60 16 39 
f 63 17 60 
f 63 60 39 
f 64 24 61 
f 64 61 40 
f 65 19 58 
f 65 58 41 
f 66 25 59 
f 66 59 42 
f 67 15 62 
f 67 62 43 
f 68 26 57 
f 68 57 44 
f 69 22 55 
f 69 55 45 
f 70 26 51 
f 70 51 46 
f 71 23 54 
f 71 54 47 
f 72 25 52 
f 72 52 48 
f 73 21 56 
f 73 56 49 
f 74 24 53 
f 74 53 50 
f 62 15 27 
f 62 27 40 
f 37 14 74 
f 15 67 31 
f 30 10 65 
f 16 28 39 
f 38 14 73 
f 16 36 47 
f 60 17 29 
f 60 29 42 
f 35 13 72 
f 17 63 27 
f 32 11 67 
f 18 30 41 
f 36 13 71 
f 18 34 45 
f 58 19 31 
f 58 31 44 
f 33 12 70 
f 19 65 29 
f 28 9 63 
f 20 32 43 
f 34 12 69 
f 20 38 49 
f 56 21 33 
f 56 33 46 
f 31 11 68 
f 21 73 37 
f 55 22 35 
f 55 35 48 
f 29 10 66 
f 22 69 33 
f 54 23 37 
f 54 37 50 
f 27 9 64 
f 23 71 35 
f 53 24 64 
f 53 64 28 
f 61 24 74 
f 61 74 38 
f 52 25 66 
f 52 66 30 
f 59 25 72 
f 59 72 36 
f 51 26 68 
f 51 68 32 
f 57 26 70 
f 57 70 34 
f 15 1 17 
f 15 17 27 
f 53 4 54 
f 9 27 63 
f 16 4 53 
f 16 53 28 
f 56 6 20 
f 9 28 64 
f 17 1 19 
f 17 19 29 
f 52 7 55 
f 10 29 65 
f 18 7 52 
f 18 52 30 
f 54 4 16 
f 10 30 66 
f 19 1 15 
f 19 15 31 
f 51 6 56 
f 11 31 67 
f 20 6 51 
f 20 51 32 
f 55 7 18 
f 11 32 68 
f 21 8 22 
f 21 22 33 
f 57 5 58 
f 12 33 69 
f 18 5 57 
f 18 57 34 
f 62 2 20 
f 12 34 70 
f 22 8 23 
f 22 23 35 
f 59 3 60 
f 13 35 71 
f 16 3 59 
f 16 59 36 
f 58 5 18 
f 13 36 72 
f 23 8 21 
f 23 21 37 
f 61 2 62 
f 14 37 73 
f 20 2 61 
f 20 61 38 
f 60 3 16 
f 14 38 74 
