v 0.49247304 0.8723428 0.110393524
v -0.8708856 0.43298173 0.27544022
v 0.9407443 0.34593606 0.05615759
v -0.0062943697 -0.35637474 0.94008255
v -0.6610832 -0.65005875 0.3844757
v 0.2444739 0.9723202 -0.10276127
v 0.1751641 0.97864795 0.14497852
v 0.99432665 -0.12117827 0.11586475
v 0.20326996 0.04144287 -0.9823036
v -0.6426811 -0.5784807 -0.51136017
v -0.91213304 0.410401 -0.07823944
v 0.4420433 -0.37119484 0.8243389
v 0.67695427 -0.036136627 0.74851227
v 0.5025059 0.8278878 -0.29214764
v 0.3990574 0.67742825 -0.6328144
v -0.5074959 0.49338436 0.71671677
v 0.26246262 0.894145 -0.36829376
v 0.34656715 -0.72297096 -0.6052284
v 0.23055077 -0.5475807 0.80981064
v -0.016355276 0.45235062 0.8974333
v 0.8061075 0.4405098 -0.40478516
v 0.13770962 0.8160629 -0.5675392
v 0.4137888 0.7425022 0.53427124
v -0.22221279 -0.19614124 0.9628267
v 0.47013283 0.08101742 -0.89069366
v -0.20814705 0.6168747 -0.76958466
v 0.7898178 -0.19088745 -0.5957546
v 0.868413 0.11216414 0.4966755
v -0.34214306 0.12504059 -0.9418731
v -0.0168463 0.9449072 0.3487625
v -0.57899475 0.56603575 -0.5994301
v -0.8305111 0.15754628 0.5510464
v 0.64442825 -0.43329334 -0.6418247
v 0.3122759 0.8808956 0.3677063
v -0.46692276 -0.38126373 0.80579376
v -0.6579609 0.5347929 0.54927254
v -0.3001871 -0.72130585 0.64025307
v 0.5796337 0.7592797 0.3108673
v 0.6877098 0.72855455 -0.062553406
v 0.77875185 0.61549646 0.16970539
v -0.70661116 0.604094 -0.3915043
v -0.23004246 -0.54813385 -0.80960846
v -0.62625885 -0.22611427 -0.750885
v 0.91345596 0.0013163257 -0.413517
v -0.012820482 0.18458748 -0.9871118
v -0.34688708 0.94298345 -0.008082867
v 0.00071561337 0.41524887 -0.91262245
v -0.8822044 -0.4814348 -0.06591606
v -0.30176187 0.93059397 -0.22527695
v -0.6622309 0.71446323 0.25243092
v -0.301975 0.9315982 0.22126961
v -0.07613349 0.835865 -0.5503731
v -0.06894908 1.0066447 -0.019468307
v -0.80051804 0.012105465 -0.61133194
v -0.79076576 -0.192415 0.5943985
v -0.54768133 0.8098359 -0.23015404
v -0.25975513 0.3191204 0.9193802
v -0.54429734 0.84001404 0.086919785
v -0.9371401 -0.35590696 0.096479416
v -0.8761883 0.37618828 -0.31450272
v 0.41830826 0.17320633 0.8960247
v 0.25899696 -0.49952888 -0.83584213
v -0.14868164 0.8565178 0.50951576
v 0.880407 0.476294 -0.12139416
v 0.8016195 -0.45449066 -0.39997864
v -0.60849 0.1629343 0.79313755
v -0.8059468 -0.51857704 -0.32178688
v -0.017640352 0.94188595 -0.35534477
v -0.35463142 0.8158369 -0.4758358
v 0.9773865 0.0953598 0.22218323
v -0.99987847 -0.07550794 -0.052556038
v -0.26708794 -0.48368645 0.8427496
v 0.67778015 0.45025253 -0.58586884
v 0.23512077 0.5436554 -0.8112297
v -0.21982765 0.31559563 -0.92756176
v 0.06735039 0.69221115 0.72364426
v -0.7946226 0.62465703 -0.042349696
v 0.930274 0.22593737 -0.3024788
v 0.0065579414 -0.6902065 -0.733387
v 0.13985205 0.81225586 0.57201767
v 0.5306778 -0.2426815 -0.82100296
v 0.48553967 -0.8627886 -0.1946764
v -0.9618552 -0.12552965 0.28571606
v -0.28725624 0.07265186 0.9597349
v 0.18121149 -0.97695017 -0.14938259
v 0.5510276 -0.8364967 0.078222275
v 0.24610347 -0.97200555 0.10086632
v 0.93058586 -0.22521114 -0.30183792
v -0.37895775 0.6704178 -0.64352417
v 0.63908005 0.24376106 0.7390957
v 0.037700653 0.6485195 -0.7702713
v 0.7422247 0.5348196 0.41348267
v -0.9873073 0.18238798 0.05912733
v 0.37372684 -0.6723709 0.64676666
v 0.6064706 -0.6862254 -0.42267036
v 0.22883606 -0.29895973 0.930933
v 0.9983059 0.06896943 -0.13668537
v 0.38149247 -0.85621023 0.3792944
v -0.76138306 0.31422043 -0.5743866
v 0.8203945 0.15405399 -0.5648365
v 0.5856285 0.56228256 0.595665
v 0.055615902 -0.9405184 0.34674454
v 0.039533854 -0.8359108 0.5646839
v -0.34980285 -0.7407074 -0.5873661
v 0.015348434 -0.44615746 -0.900898
v -0.5424366 -0.09344159 0.84452343
v -0.8089409 -0.45658684 0.38503075
v 0.6211271 0.6271324 -0.47676468
v 0.88963795 -0.15921998 0.4400463
v -0.9249792 0.15795766 0.35884666
v -0.016753316 -0.9447222 -0.34924507
v 0.62628174 -0.22612476 0.75087357
v 0.68281174 0.12410496 -0.731617
v 0.72519636 -0.64859533 0.27117157
v 0.31213665 -0.8809061 -0.36774445
v 0.16560459 -0.027777195 0.9952284
v 0.8796034 0.36770916 0.3151188
v 0.4847412 0.40696144 -0.7819462
v -0.7617283 -0.3123541 -0.575058
v 0.03225422 -0.6448803 0.77409554
v 0.9371419 -0.3703858 -0.085929394
v 0.8358567 -0.5503843 0.076153755
v 0.74715686 -0.66768825 -0.105946064
v -0.658762 -0.37409782 0.65974426
v -0.95161676 -0.23736548 -0.21788979
v 0.7836838 -0.35333812 0.52651024
v -0.8895521 -0.1610589 -0.4391365
v 0.6171684 -0.55921936 0.57239914
v 0.8958998 -0.36593693 0.26057053
v -0.32606697 -0.9471127 0.11302471
v -0.5230104 -0.8628834 -0.0025740862
v -0.29900932 -0.93261003 -0.22015572
v -0.23424149 -0.2471447 -0.9469509
v -0.04664141 -1.0007114 -0.07451916
v -0.62210274 0.25196362 -0.74928665
v -0.9577799 0.13375807 -0.29640675
v -0.51068354 -0.7937579 0.35116386
v -0.4557209 0.80751705 0.38584518
v -0.481678 -0.43458843 -0.77678204
v -0.5225754 -0.79395485 -0.33249092
v 0.7482672 0.61240196 -0.26361084
v 0.23234558 0.2988701 -0.93009853
v -0.033864737 -0.119969845 -1.0000975
v -0.16599369 -0.85787964 -0.5019417
v -0.58968353 -0.57951164 0.57048035
v 0.44679642 -0.55106544 -0.71098137
v 0.21982765 0.31559563 0.92756176
v -0.08006939 -0.99047613 0.14224625
v -0.33897638 0.73295975 0.59897995
v -0.20949471 -0.91210175 0.36222458
v 0.24604607 -0.2097168 -0.95238304
v -0.1926918 0.6060467 0.78196335
v 0.27023077 0.5962601 0.7674408
v -0.51955795 -0.045648575 -0.8640795
v 0.42047882 0.42674065 0.8037224
v -0.6836514 -0.73179615 -0.06587124
v -0.75508475 -0.64284134 0.1589489
v -0.41672134 0.43111992 -0.8037262
v 0.76148224 0.3141575 0.574276
v -0.01590705 0.10917759 1.0024909
v 0.4248047 -0.09318638 0.9043827
v 0.13985205 -0.81225586 -0.57201767
f 143 45 9 
f 7 1 6 
f 26 47 75 
f 57 160 20 
f 159 28 117 
f 53 7 6 
f 122 123 121 
f 72 35 37 
f 13 61 161 
f 32 55 66 
f 42 139 133 
f 27 65 33 
f 92 38 101 
f 50 36 138 
f 71 93 136 
f 1 14 6 
f 6 17 68 
f 137 145 5 
f 35 145 37 
f 101 155 90 
f 71 83 93 
f 52 68 22 
f 153 23 80 
f 17 22 68 
f 91 47 26 
f 115 18 95 
f 5 145 107 
f 68 53 6 
f 10 140 67 
f 125 136 127 
f 61 90 155 
f 6 14 17 
f 34 7 30 
f 8 109 129 
f 20 153 76 
f 31 158 135 
f 96 4 19 
f 63 80 30 
f 34 30 80 
f 128 112 12 
f 12 112 161 
f 38 1 34 
f 7 34 1 
f 69 31 41 
f 38 34 23 
f 117 40 92 
f 30 7 53 
f 50 77 2 
f 37 120 72 
f 81 62 151 
f 25 142 118 
f 40 39 1 
f 64 39 40 
f 139 119 43 
f 99 60 41 
f 91 22 15 
f 104 10 139 
f 54 127 136 
f 1 39 14 
f 41 31 99 
f 17 14 15 
f 150 103 37 
f 40 1 38 
f 143 29 45 
f 19 12 96 
f 118 113 25 
f 147 160 116 
f 35 72 24 
f 129 122 121 
f 26 89 69 
f 49 46 53 
f 51 53 46 
f 56 46 49 
f 124 145 35 
f 58 46 56 
f 121 123 65 
f 51 46 58 
f 138 51 58 
f 57 84 160 
f 152 63 149 
f 55 124 106 
f 75 45 29 
f 55 83 107 
f 63 30 51 
f 93 2 11 
f 56 69 41 
f 16 36 66 
f 101 90 159 
f 73 15 108 
f 74 15 118 
f 51 30 53 
f 142 9 45 
f 91 74 47 
f 79 144 104 
f 63 51 138 
f 59 71 125 
f 49 53 68 
f 69 49 68 
f 107 83 59 
f 142 47 74 
f 55 106 66 
f 9 151 143 
f 69 68 52 
f 37 145 137 
f 127 54 119 
f 56 49 69 
f 118 15 73 
f 79 104 42 
f 62 81 146 
f 3 70 97 
f 66 57 16 
f 32 66 36 
f 139 154 133 
f 50 58 77 
f 151 62 105 
f 94 98 128 
f 109 13 126 
f 79 18 162 
f 152 149 16 
f 66 84 57 
f 133 143 105 
f 138 58 50 
f 159 117 92 
f 116 96 161 
f 114 128 98 
f 29 143 133 
f 99 54 136 
f 58 56 77 
f 76 153 80 
f 85 82 87 
f 86 87 82 
f 57 20 152 
f 124 35 106 
f 134 85 87 
f 63 76 80 
f 94 128 12 
f 28 109 70 
f 59 125 48 
f 139 43 154 
f 20 76 152 
f 98 87 86 
f 15 14 108 
f 158 31 89 
f 108 14 141 
f 87 98 102 
f 119 10 67 
f 63 138 149 
f 105 62 79 
f 67 48 125 
f 106 84 66 
f 157 137 5 
f 98 103 102 
f 128 126 112 
f 134 87 148 
f 36 50 2 
f 102 148 87 
f 99 136 60 
f 123 82 95 
f 92 101 159 
f 155 101 153 
f 115 85 111 
f 32 36 2 
f 156 48 67 
f 39 64 141 
f 129 126 114 
f 144 162 111 
f 115 111 162 
f 128 114 126 
f 71 59 83 
f 32 2 110 
f 85 115 82 
f 144 79 162 
f 135 154 54 
f 27 33 81 
f 111 85 134 
f 152 76 63 
f 89 31 69 
f 114 86 123 
f 9 142 25 
f 120 103 94 
f 116 161 61 
f 29 135 158 
f 114 123 122 
f 149 36 16 
f 144 140 104 
f 98 86 114 
f 23 153 101 
f 43 119 54 
f 98 94 103 
f 42 104 139 
f 75 47 45 
f 86 82 123 
f 115 162 18 
f 37 103 120 
f 133 105 42 
f 132 130 131 
f 148 130 134 
f 152 16 57 
f 74 118 142 
f 132 134 130 
f 140 10 104 
f 137 131 130 
f 107 59 157 
f 129 114 122 
f 160 24 116 
f 140 132 131 
f 105 79 42 
f 24 4 116 
f 61 155 147 
f 126 129 109 
f 17 15 22 
f 144 111 132 
f 119 67 127 
f 96 116 4 
f 64 40 3 
f 70 117 28 
f 18 146 95 
f 5 107 157 
f 132 111 134 
f 117 70 3 
f 151 105 143 
f 139 10 119 
f 144 132 140 
f 23 101 38 
f 154 135 29 
f 84 24 160 
f 130 148 150 
f 102 150 148 
f 103 150 102 
f 26 158 89 
f 100 73 21 
f 12 161 96 
f 130 150 137 
f 11 2 77 
f 95 33 65 
f 125 71 136 
f 93 11 136 
f 33 95 146 
f 32 110 83 
f 60 11 77 
f 100 113 73 
f 118 73 113 
f 48 157 59 
f 157 156 131 
f 48 156 157 
f 120 4 72 
f 110 2 93 
f 26 75 158 
f 131 156 140 
f 31 135 99 
f 117 3 40 
f 150 37 137 
f 108 21 73 
f 90 13 28 
f 157 131 137 
f 13 90 61 
f 84 106 24 
f 88 44 97 
f 35 24 106 
f 78 97 44 
f 135 54 99 
f 112 126 13 
f 29 158 75 
f 43 54 154 
f 27 44 88 
f 156 67 140 
f 100 44 27 
f 153 20 147 
f 78 44 100 
f 8 97 70 
f 147 116 61 
f 90 28 159 
f 97 78 64 
f 3 97 64 
f 64 21 141 
f 147 20 160 
f 32 83 55 
f 26 69 52 
f 28 13 109 
f 26 52 91 
f 95 65 123 
f 9 25 151 
f 149 138 36 
f 60 77 41 
f 81 151 25 
f 100 21 78 
f 64 78 21 
f 108 141 21 
f 29 133 154 
f 91 15 74 
f 142 45 47 
f 55 107 124 
f 120 19 4 
f 82 115 95 
f 107 145 124 
f 110 93 83 
f 8 129 121 
f 27 88 65 
f 120 94 19 
f 121 65 88 
f 8 121 97 
f 34 80 23 
f 146 18 62 
f 88 97 121 
f 100 27 113 
f 8 70 109 
f 153 147 155 
f 24 72 4 
f 77 56 41 
f 25 113 81 
f 19 94 12 
f 27 81 113 
f 92 40 38 
f 79 62 18 
f 39 141 14 
f 67 125 127 
f 161 112 13 
f 33 146 81 
f 22 91 52 
f 60 136 11 
