v 0.399607 0.912982 0.082324
v 0.399607 0.912982 -0.082324
v 0.266405 0.963861 0
v 0.262866 0.951057 0.16246
v 0.5510225 0.8359957 0.06927681
v 0.188519 0.97608805 -0.14138412
v 0.133071 0.987688 0.082242
v -0.65310776 0.6829338 -0.3343315
v -0.082324 0.399607 0.912982
v -0.564254 -0.646578 -0.513375
v 0.386187 0.891007 0.238677
v 0.433889 -0.259892 0.862668
v 0.386187 0.891007 -0.238677
v 0.519258 0.840178 -0.156434
v -0.41830826 0.17320633 -0.8960247
v -0.371748 0.601501 0.707107
v 0.26246262 0.894145 -0.36829376
v 0.34656715 -0.72297096 -0.6052284
v 0.23055077 -0.5475807 0.80981064
v 0.082324 0.399607 0.912982
v 0.055615902 0.9405184 -0.34674454
v 0.13770962 0.8160629 -0.5675392
v 0.4137888 0.7425022 0.53427124
v 0.513375 -0.564254 -0.646578
v -0.707107 0.371748 0.601501
v 0 -0.266405 0.963861
v 0.132792 0.966393 0.220117
v 0.07036972 0.92336273 0.38343048
v -0.25027466 0.06762886 -0.96784496
v -0.093892574 0.95302486 0.30042267
v -0.564254 0.646578 -0.513375
v -0.513375 0.564254 -0.646578
v 0.6490326 -0.37361908 -0.6692085
v 0.3122759 0.8808956 0.3677063
v -0.48144913 -0.30462265 0.8245201
v -0.29495525 0.7512474 0.5964508
v -0.160622 -0.702046 0.693781
v 0.5796337 0.7592797 0.3108673
v 0.6877098 0.72855455 -0.062553406
v 0.7071934 0.67739284 0.214468
v 0.358229 0.131655 -0.924305
v -0.5763016 0.28930473 -0.76950455
v -0.62625885 -0.22611427 -0.750885
v -0.2974205 -0.3914528 0.87317085
v 0.587785 -0.425325 0.688191
v -0.399607 0.912982 -0.082324
v -0.399607 0.912982 0.082324
v -0.266405 0.963861 0
v -0.30176187 0.93059397 -0.22527695
v -0.3090973 0.35038757 0.888916
v -0.301975 0.9315982 0.22126961
v 0.06810188 -0.6912613 0.72449493
v -0.04664141 1.0007114 0.07451916
v 0.646578 0.513375 -0.564254
v -0.646578 -0.513375 0.564254
v -0.54768133 0.8098359 -0.23015404
v -0.16246 0.262866 0.951057
v -0.54429734 0.84001404 0.086919785
v -0.160622 0.702046 -0.693781
v 0.50910187 0.2078476 -0.83989525
v 0.41830826 0.17320633 0.8960247
v 0.23031521 -0.54759216 -0.8098564
v -0.259892 0.862668 0.433889
v -0.07852101 0.83966255 0.54421234
v 0.8016195 -0.45449066 -0.39997864
v -0.67383194 0.2364521 0.70254135
v -0.079274476 0.99041796 -0.14237213
v -0.131655 0.924305 -0.358229
v -0.27885342 0.8234844 -0.5025482
v -0.7482672 -0.61240196 -0.26361084
v 0.220117 -0.132792 0.966393
v -0.23480368 -0.54172516 0.81240845
v -0.6907189 0.7249502 -0.068303585
v -0.50910187 0.2078476 0.83989525
v -0.702046 0.693781 0.160622
v 0.513375 0.564254 -0.646578
v -0.8358567 0.5503843 0.076153755
v -0.79362965 0.5933659 -0.15061569
v 0.78811455 -0.5479398 0.2882576
v 0.13985205 0.81225586 0.57201767
v 0.4754219 -0.30392647 -0.82867813
v 0.399607 -0.912982 -0.082324
v 0.399607 -0.912982 0.082324
v 0.266405 -0.963861 0
v 0.262866 -0.951057 -0.16246
v 0.5510276 -0.8364967 0.078222275
v 0.188519 -0.97608805 0.14138412
v 0.133071 -0.987688 -0.082242
v -0.37895775 0.6704178 -0.64352417
v -0.073366165 -0.05160761 -1.0002631
v 0.6054249 0.7363448 -0.31014633
v 0.386187 -0.891007 -0.238677
v 0.54768133 -0.8098359 -0.23015404
v 0.386187 -0.891007 0.238677
v 0.46843 -0.757935 -0.453991
v 0.22883606 -0.29895973 0.930933
v -0.513375 -0.564254 0.646578
v 0.26087952 -0.89404106 0.36960602
v -0.76138306 0.31422043 -0.5743866
v -0.43194485 0.80238724 -0.41775894
v 0.564254 0.646578 0.513375
v 0.055615902 -0.9405184 0.34674454
v 0.13770962 -0.8160629 0.5675392
v -0.2618065 -0.74668884 -0.61522675
v 0 -0.525731 -0.850651
v 0.371748 -0.601501 -0.707107
v -0.8089409 -0.45658684 0.38503075
v 0.132792 -0.966393 -0.220117
v 0.07036972 -0.92336273 -0.38343048
v -0.688191 0.587785 0.425325
v -0.093892574 -0.95302486 -0.30042267
v 0.62628174 -0.22612476 0.75087357
v 0.67383194 0.2364521 -0.70254135
v -0.42084122 -0.7389984 -0.53295135
v 0.31213665 -0.8809061 -0.36774445
v 0.082242 -0.133071 0.987688
v 0.22917652 0.5514107 0.8074856
v 0.6907189 -0.7249502 -0.068303585
v 0.425325 0.688191 -0.587785
v 0.702046 -0.693781 0.160622
v 0.45817852 0.80525494 -0.3872261
v 0.8358567 -0.5503843 0.076153755
v 0.79362965 -0.5933659 -0.15061569
v -0.646578 -0.513375 -0.564254
v -0.646578 0.513375 0.564254
v -0.78811455 0.5479398 0.2882576
v -0.399607 -0.912982 0.082324
v -0.399607 -0.912982 -0.082324
v -0.266405 -0.963861 0
v -0.262866 -0.951057 0.16246
v -0.5513842 -0.8357874 0.06892109
v -0.29900932 -0.93261003 -0.22015572
v -0.22618866 -0.29468918 -0.9331331
v -0.04664141 -1.0007114 -0.07451916
v 0.082242 0.133071 -0.987688
v -0.386187 -0.891007 0.238677
v -0.5574107 -0.787117 0.27341843
v 0.587785 0.425325 0.688191
v -0.519258 -0.840178 -0.156434
v -0.44251728 -0.8310108 -0.34457397
v 0.7482672 0.61240196 -0.26361084
v -0.11680555 0.6645317 0.7409706
v 0.082242 -0.133071 -0.987688
v -0.259892 -0.862668 -0.433889
v -0.07852101 -0.83966255 -0.54421234
v 0.453991 -0.46843 -0.757935
v 0.21982765 0.31559563 0.92756176
v -0.08006939 -0.99047613 0.14224625
v -0.425325 0.688191 0.587785
v -0.20949471 -0.91210175 0.36222458
v 0.24604607 -0.2097168 -0.95238304
v -0.32418823 -0.20269585 0.9263687
v 0.3328209 0.65309906 0.6841507
v -0.082242 0.133071 -0.987688
v 0.42047882 0.42674065 0.8037224
v -0.6836514 -0.73179615 -0.06587124
v -0.75508475 -0.64284134 0.1589489
v -0.41672134 0.43111992 -0.8037262
v 0.6712427 -0.6488247 -0.37066078
v 0.028842926 0.20832825 0.9798951
v -0.688191 -0.587785 -0.425325
v 0.13985205 -0.81225586 -0.57201767
v 0.912982 -0.082324 -0.399607
v 0.912982 0.082324 -0.399607
v 0.963861 0 -0.266405
v 0.93058586 -0.22521114 -0.30183792
v 0.850651 0 -0.525731
v 0.930274 0.22593737 -0.3024788
v 0.987688 -0.082242 -0.133071
v 0.99044496 0.14253646 -0.080646515
v -0.073218346 0.05073452 1.0001992
v -0.587785 0.425325 -0.688191
v 0.346153 0.783452 -0.516122
v 0.8096409 -0.23017216 -0.5479927
v -0.23004246 -0.54813385 -0.80960846
v -0.11202431 -0.6622162 -0.74352264
v -0.525156 0.43209457 0.7386856
v 0.346153 -0.783452 0.516122
v 0.06774473 -0.69200516 -0.72384644
v 0.924305 0.358229 -0.131655
v 0.513375 -0.564254 0.646578
v 0.862668 0.433889 -0.259892
v 0.646578 -0.513375 0.564254
v 0.839648 0.54424614 -0.078440666
v 0.513375 0.564254 0.646578
v 0.76148224 0.3141575 0.574276
v 0.296005 0.70231 -0.647412
v 0.96893495 -0.24492125 -0.06803417
v 0.371748 0.601501 -0.707107
v 0.8920913 -0.4283166 -0.17047119
v 0.707107 0.371748 -0.601501
v 0 -0.266405 -0.963861
v 0.9232886 -0.3815992 0.074705124
v -0.15631294 -0.19420052 0.9722891
v -0.646578 0.513375 -0.564254
v 0.780204 0.081142 -0.62024
v 0.7445793 -0.11871147 -0.65986633
v 0.37372684 -0.6723709 0.64676666
v 0.688191 -0.587785 0.425325
v 0.564254 -0.646578 0.513375
v 0.661705 0.033136368 -0.7521782
v 0.59220886 -0.15637016 -0.79273224
v 0.46810532 -0.044733047 -0.886713
v 0.8134804 0.22812366 -0.54229355
v 0.564254 -0.646578 -0.513375
v 0.912982 0.082324 0.399607
v 0.912982 -0.082324 0.399607
v 0.963861 0 0.266405
v 0.9760895 0.14125538 0.18858147
v 0.8353691 0.068525314 0.5520592
v 0.951057 -0.16246 0.262866
v 0.525156 0.43209457 -0.7386856
v 0.9993311 -0.07864981 0.053447723
v 0.07228756 0.6882477 -0.7275009
v 0.891007 0.238677 0.386187
v -0.23408604 0.5476074 0.8090782
v 0.891007 -0.238677 0.386187
v 0.840178 -0.156434 0.519258
v -0.6610832 -0.65005875 0.3844757
v 0.966393 -0.220117 0.132792
v 0.8958998 -0.36593693 0.26057053
v 0.8061075 0.4405098 -0.40478516
v 0.8163332 0.567284 0.13736439
v -0.6342659 0.7185712 0.29843903
v 0.7981777 -0.4188099 0.43780518
v 0.23234558 0.2988701 -0.93009853
v -0.564254 -0.646578 0.513375
v 0.9407443 0.34593606 0.05615759
v -0.02989769 0.57972336 -0.8172989
v -0.587785 -0.425325 -0.688191
v 0.8796034 0.36770916 0.3151188
v -0.07613349 0.835865 -0.5503731
v -0.433889 -0.259892 -0.862668
v 0.7493439 -0.045625687 0.6641464
v 0.20079803 0.044921994 0.982775
v 0.693781 0.160622 0.702046
v 0.082324 -0.399607 -0.912982
v -0.44369888 -0.40090752 -0.8064728
v 0.5950775 0.003797859 0.80822754
v -0.4557209 0.80751705 0.38584518
v 0.646578 -0.513375 -0.564254
v -0.912982 -0.082324 0.399607
v -0.912982 0.082324 0.399607
v -0.963861 0 0.266405
v -0.93058586 -0.22521114 0.30183792
v -0.850651 0 0.525731
v -0.951057 0.16246 0.262866
v -0.987688 -0.082242 0.133071
v -0.99026734 0.14468965 0.08011913
v 0.23512077 0.5436554 -0.8112297
v -0.7422981 0.5350256 -0.41319656
v 0.6342659 -0.7185712 0.29843903
v -0.8096409 -0.23017216 0.5479927
v -0.891007 0.238677 0.386187
v -0.23088741 0.54789734 -0.8090763
v -0.4323101 -0.80091 0.4207306
v -0.6031985 -0.7375183 -0.31225586
v -0.9139571 0.3624576 0.20234108
v -0.032115936 -0.57860184 0.8179321
v -0.961938 0.273267 0
v 0.5761719 0.28939438 0.76953125
v 0.564254 0.646578 -0.513375
v -0.07613349 -0.835865 0.5503731
v 0.646578 0.513375 0.564254
v -0.80345154 0.4206829 0.42691803
v -0.220117 -0.132792 -0.966393
v -0.9684113 -0.24702817 0.06710529
v 0.44369507 -0.40092087 0.80649185
v -0.513375 -0.564254 -0.646578
v 0.20326996 0.04144287 -0.9823036
v -0.89969444 -0.42359865 0.12934113
v -0.9235525 -0.3806188 -0.07608986
v -0.453991 -0.46843 0.757935
v 0.7625828 -0.3139286 0.5732193
v -0.780204 0.081142 0.62024
v -0.7445793 -0.11871147 0.65986633
v -0.28725624 0.07265186 0.9597349
v 0.4557209 -0.80751705 0.38584518
v -0.513375 0.564254 0.646578
v -0.661705 0.033136368 0.7521782
v -0.59220886 -0.15637016 0.79273224
v -0.46810532 -0.044733047 0.886713
v -0.8133049 0.23062992 0.5417862
v -0.082324 0.399607 -0.912982
v -0.912982 0.082324 -0.399607
v -0.912982 -0.082324 -0.399607
v -0.963861 0 -0.266405
v -0.97334886 0.15993795 -0.18804741
v -0.835371 0.06855583 -0.55207443
v -0.95161676 -0.23736548 -0.21788979
v 0 0.266405 -0.963861
v -0.99987847 -0.07550794 -0.052556038
v -0.28821945 -0.7881012 0.5478592
v -0.891007 0.238677 -0.386187
v 0.4248047 -0.09318638 0.9043827
v -0.891007 -0.238677 -0.386187
v -0.840178 -0.156434 -0.519258
v -0.658762 -0.37409782 0.65974426
v -0.21982765 0.31559563 -0.92756176
v -0.082324 -0.399607 -0.912982
v 0.375039 0.383614 -0.843911
v -0.862668 -0.433889 -0.259892
v -0.839648 -0.54424614 -0.078440666
v 0.7422247 0.5348196 0.41348267
v 0.06735039 0.69221115 0.72364426
v 0.082324 0.399607 -0.912982
v 0.688191 0.587785 -0.425325
v 0 0.525731 0.850651
v -0.91213304 0.410401 -0.07823944
v -0.8761883 0.37618828 -0.31450272
v -0.37895775 -0.6704178 0.64352417
v -0.564254 0.646578 0.513375
v -0.74938965 -0.045454025 -0.6641159
v -0.4248047 -0.09318638 -0.9043827
v -0.693781 0.160622 -0.702046
v -0.371748 -0.601501 -0.707107
v -0.8061075 -0.4405098 -0.40478516
v -0.5950775 0.003797859 -0.80822754
v 0.29265213 -0.3978691 -0.8719139
v -0.7617283 -0.3123541 -0.575058
v -0.082324 -0.399607 0.912982
v 0.082324 -0.399607 0.912982
f 1 2 3 
f 4 1 3 
f 5 2 1 
f 6 3 2 
f 7 3 6 
f 53 7 6 
f 4 3 7 
f 72 273 311 
f 5 1 11 
f 38 5 11 
f 236 261 239 
f 4 11 1 
f 13 2 14 
f 121 13 14 
f 6 2 13 
f 5 14 2 
f 6 17 21 
f 256 227 219 
f 273 97 311 
f 138 155 261 
f 137 256 219 
f 232 21 22 
f 153 23 80 
f 17 22 21 
f 229 284 255 
f 53 6 67 
f 219 55 107 
f 21 67 6 
f 121 17 13 
f 191 54 222 
f 61 261 155 
f 6 13 17 
f 34 27 28 
f 161 124 10 
f 4 27 34 
f 30 28 27 
f 75 126 224 
f 64 80 28 
f 34 28 80 
f 45 112 268 
f 176 179 145 
f 38 11 34 
f 4 34 11 
f 100 31 8 
f 53 27 7 
f 133 90 192 
f 30 27 53 
f 4 7 27 
f 172 32 158 
f 81 319 151 
f 60 226 301 
f 40 39 5 
f 184 39 223 
f 230 320 43 
f 315 99 42 
f 40 223 39 
f 14 39 91 
f 121 14 91 
f 5 39 14 
f 251 195 99 
f 17 121 173 
f 230 238 269 
f 40 5 38 
f 119 173 121 
f 46 47 48 
f 49 46 48 
f 58 47 46 
f 51 48 47 
f 67 48 53 
f 307 54 262 
f 49 48 67 
f 51 53 48 
f 56 46 49 
f 298 97 273 
f 58 46 56 
f 119 187 173 
f 51 47 58 
f 240 51 58 
f 264 101 185 
f 142 64 36 
f 72 44 273 
f 299 154 29 
f 138 264 185 
f 63 30 51 
f 28 30 64 
f 56 100 8 
f 177 25 66 
f 63 64 30 
f 54 76 262 
f 250 189 212 
f 51 30 53 
f 226 270 135 
f 23 185 101 
f 299 29 15 
f 63 51 240 
f 304 101 264 
f 49 67 68 
f 69 49 68 
f 117 155 153 
f 21 68 67 
f 232 68 21 
f 237 300 192 
f 69 68 232 
f 311 227 256 
f 199 183 200 
f 56 49 100 
f 183 181 200 
f 69 100 49 
f 120 122 79 
f 159 205 241 
f 74 50 177 
f 283 66 25 
f 198 200 181 
f 75 58 73 
f 151 319 237 
f 198 278 200 
f 77 73 78 
f 179 18 162 
f 75 73 77 
f 45 181 183 
f 60 41 226 
f 240 58 224 
f 203 41 60 
f 75 224 58 
f 252 200 278 
f 175 316 238 
f 199 200 252 
f 58 56 73 
f 82 83 84 
f 85 82 84 
f 86 83 82 
f 87 84 83 
f 88 84 87 
f 134 88 87 
f 85 84 88 
f 146 24 106 
f 93 82 92 
f 98 178 103 
f 86 82 93 
f 85 92 82 
f 94 83 86 
f 278 94 86 
f 87 83 94 
f 307 91 141 
f 87 98 102 
f 55 227 97 
f 63 240 36 
f 105 62 179 
f 298 55 97 
f 263 102 103 
f 311 97 227 
f 98 103 102 
f 45 274 112 
f 134 87 148 
f 110 224 126 
f 102 148 87 
f 278 98 94 
f 118 93 159 
f 304 264 186 
f 87 94 98 
f 115 108 109 
f 195 31 32 
f 85 108 115 
f 111 109 108 
f 221 225 79 
f 145 162 109 
f 115 109 162 
f 199 79 225 
f 105 179 176 
f 93 92 115 
f 85 115 92 
f 145 179 162 
f 134 108 88 
f 197 33 202 
f 111 108 134 
f 85 88 108 
f 45 268 181 
f 120 86 118 
f 270 41 203 
f 52 103 198 
f 122 118 123 
f 172 195 32 
f 120 118 122 
f 284 306 291 
f 144 140 114 
f 278 86 252 
f 258 265 126 
f 120 252 86 
f 178 198 103 
f 161 317 124 
f 299 284 291 
f 86 93 118 
f 127 128 129 
f 130 127 129 
f 131 128 127 
f 132 129 128 
f 148 129 134 
f 216 177 50 
f 130 129 148 
f 132 134 129 
f 131 127 136 
f 137 131 136 
f 107 271 157 
f 130 136 127 
f 132 128 139 
f 140 132 139 
f 105 176 175 
f 131 139 128 
f 29 314 15 
f 144 104 145 
f 138 186 264 
f 144 111 132 
f 109 111 145 
f 302 317 70 
f 66 280 74 
f 144 145 111 
f 18 24 205 
f 33 81 202 
f 132 111 134 
f 161 70 317 
f 151 237 192 
f 230 124 320 
f 144 132 140 
f 23 101 38 
f 318 42 15 
f 33 24 146 
f 130 148 150 
f 102 150 148 
f 263 150 102 
f 105 300 237 
f 250 212 301 
f 219 227 55 
f 136 150 256 
f 137 136 256 
f 130 150 136 
f 315 42 318 
f 282 74 280 
f 241 205 24 
f 35 282 281 
f 62 146 106 
f 204 113 191 
f 212 191 113 
f 303 157 271 
f 157 156 131 
f 303 156 157 
f 40 304 223 
f 318 15 314 
f 59 255 89 
f 139 156 257 
f 140 139 257 
f 131 156 139 
f 150 293 256 
f 307 222 54 
f 250 187 189 
f 157 131 137 
f 239 261 61 
f 163 164 165 
f 166 163 165 
f 167 164 163 
f 168 165 164 
f 169 165 170 
f 213 169 170 
f 166 165 169 
f 168 170 165 
f 174 163 166 
f 156 70 257 
f 167 163 174 
f 161 10 257 
f 168 164 204 
f 230 269 124 
f 172 99 195 
f 167 204 164 
f 170 168 180 
f 228 170 180 
f 182 222 141 
f 182 180 168 
f 228 180 184 
f 59 69 232 
f 37 72 311 
f 182 184 180 
f 73 8 78 
f 270 203 151 
f 8 251 78 
f 310 78 251 
f 81 151 203 
f 204 222 168 
f 182 168 222 
f 307 141 222 
f 166 188 190 
f 214 187 250 
f 226 291 306 
f 253 107 298 
f 105 237 62 
f 122 190 193 
f 107 55 298 
f 188 193 190 
f 229 306 284 
f 174 166 65 
f 52 198 19 
f 190 65 166 
f 213 188 169 
f 81 203 202 
f 106 18 62 
f 166 169 188 
f 196 197 201 
f 113 196 201 
f 167 197 196 
f 189 76 212 
f 73 56 8 
f 203 201 202 
f 212 54 191 
f 197 202 201 
f 304 40 38 
f 179 62 18 
f 167 196 204 
f 113 204 196 
f 295 112 239 
f 33 146 81 
f 22 214 232 
f 167 174 197 
f 206 207 208 
f 209 206 208 
f 210 207 206 
f 211 208 207 
f 209 208 213 
f 29 266 314 
f 114 269 316 
f 211 213 208 
f 210 206 215 
f 186 210 215 
f 216 36 16 
f 209 215 206 
f 217 207 218 
f 274 217 218 
f 211 207 217 
f 210 218 207 
f 220 221 193 
f 188 220 193 
f 211 221 220 
f 62 237 319 
f 149 36 240 
f 176 145 104 
f 251 31 195 
f 221 122 193 
f 233 133 238 
f 298 35 281 
f 211 220 213 
f 188 213 220 
f 225 221 217 
f 274 225 217 
f 229 214 250 
f 211 217 221 
f 231 209 228 
f 231 223 304 
f 230 43 238 
f 251 8 31 
f 198 178 278 
f 184 223 228 
f 231 228 223 
f 133 300 175 
f 119 76 189 
f 186 215 231 
f 209 231 215 
f 314 43 318 
f 150 263 293 
f 213 170 209 
f 228 209 170 
f 37 293 263 
f 255 299 158 
f 144 114 104 
f 257 10 114 
f 236 234 210 
f 114 10 269 
f 161 257 70 
f 112 234 239 
f 236 239 234 
f 218 234 274 
f 159 65 123 
f 210 234 218 
f 112 274 234 
f 149 16 36 
f 62 319 146 
f 236 210 186 
f 142 36 216 
f 242 243 244 
f 245 242 244 
f 246 243 242 
f 247 244 243 
f 248 244 249 
f 292 248 249 
f 245 244 248 
f 247 249 244 
f 253 242 245 
f 233 43 314 
f 246 242 253 
f 90 135 270 
f 254 243 283 
f 250 301 226 
f 247 243 254 
f 246 283 243 
f 59 89 69 
f 260 249 258 
f 247 258 249 
f 15 42 158 
f 309 258 77 
f 177 66 74 
f 260 258 309 
f 172 158 42 
f 89 32 31 
f 39 184 141 
f 255 158 89 
f 182 141 184 
f 265 258 254 
f 283 265 254 
f 172 42 99 
f 247 254 258 
f 245 267 271 
f 107 245 271 
f 89 100 69 
f 149 312 279 
f 149 240 312 
f 303 271 272 
f 110 312 224 
f 267 272 271 
f 120 79 252 
f 253 245 107 
f 199 252 79 
f 110 125 312 
f 292 267 248 
f 110 126 265 
f 177 279 125 
f 245 248 267 
f 275 276 280 
f 66 275 280 
f 246 276 275 
f 176 104 175 
f 276 253 298 
f 282 280 281 
f 226 306 250 
f 276 281 280 
f 204 191 222 
f 173 187 22 
f 246 275 283 
f 66 283 275 
f 12 112 295 
f 197 174 33 
f 90 29 154 
f 246 253 276 
f 285 286 287 
f 288 285 287 
f 289 286 285 
f 290 287 286 
f 288 287 292 
f 75 77 126 
f 125 279 312 
f 290 292 287 
f 289 285 294 
f 99 289 294 
f 226 135 291 
f 288 294 285 
f 296 286 297 
f 320 296 297 
f 290 286 296 
f 289 297 286 
f 63 36 64 
f 267 290 272 
f 302 70 303 
f 302 272 290 
f 266 133 314 
f 133 192 300 
f 224 312 240 
f 302 303 272 
f 258 126 77 
f 276 298 281 
f 229 250 306 
f 267 292 290 
f 317 290 296 
f 320 317 296 
f 302 290 317 
f 270 226 41 
f 310 288 309 
f 23 153 185 
f 98 278 178 
f 260 309 288 
f 199 225 183 
f 158 32 89 
f 45 183 274 
f 274 183 225 
f 155 185 153 
f 99 294 310 
f 288 310 294 
f 138 185 155 
f 305 117 153 
f 292 249 288 
f 260 288 249 
f 255 284 299 
f 186 231 304 
f 118 159 123 
f 93 115 95 
f 315 313 289 
f 60 301 212 
f 304 38 101 
f 43 313 318 
f 315 318 313 
f 297 313 320 
f 221 79 122 
f 289 313 297 
f 43 320 313 
f 105 175 300 
f 151 192 143 
f 315 289 99 
f 37 311 293 
f 321 322 26 
f 194 321 26 
f 259 322 321 
f 96 26 322 
f 194 26 116 
f 171 194 116 
f 19 198 268 
f 96 116 26 
f 72 321 44 
f 38 34 23 
f 259 321 72 
f 194 44 321 
f 96 322 19 
f 91 262 121 
f 270 151 143 
f 259 19 322 
f 71 96 295 
f 235 71 295 
f 90 270 143 
f 12 295 96 
f 157 137 219 
f 320 124 317 
f 190 123 65 
f 305 153 80 
f 116 71 235 
f 171 116 235 
f 96 71 116 
f 212 113 60 
f 299 291 154 
f 19 268 96 
f 12 96 268 
f 17 173 22 
f 99 310 251 
f 143 192 90 
f 77 78 309 
f 277 152 194 
f 175 104 316 
f 114 316 104 
f 35 152 282 
f 277 282 152 
f 316 269 238 
f 59 232 214 
f 194 152 44 
f 35 44 152 
f 310 309 78 
f 18 106 24 
f 277 194 171 
f 198 181 268 
f 212 76 54 
f 119 121 262 
f 89 31 100 
f 37 52 259 
f 103 52 263 
f 233 238 43 
f 119 262 76 
f 37 263 52 
f 159 241 65 
f 298 273 35 
f 259 52 19 
f 307 262 91 
f 59 214 229 
f 119 189 187 
f 37 259 72 
f 44 35 273 
f 20 9 160 
f 147 20 160 
f 308 9 20 
f 57 160 9 
f 90 154 135 
f 175 238 133 
f 154 291 135 
f 57 171 160 
f 117 20 147 
f 203 60 201 
f 308 20 117 
f 12 268 112 
f 50 9 216 
f 16 279 177 
f 57 9 50 
f 308 216 9 
f 29 90 266 
f 133 266 90 
f 57 50 277 
f 74 277 50 
f 282 277 74 
f 124 269 10 
f 115 18 95 
f 115 162 18 
f 233 314 133 
f 93 95 159 
f 57 277 171 
f 214 22 187 
f 110 265 125 
f 25 125 265 
f 283 25 265 
f 177 125 25 
f 147 235 61 
f 65 241 33 
f 219 107 157 
f 236 186 261 
f 174 65 33 
f 239 61 295 
f 15 158 299 
f 235 295 61 
f 39 141 91 
f 117 147 155 
f 34 80 23 
f 61 155 147 
f 319 81 146 
f 171 235 160 
f 138 261 186 
f 147 160 235 
f 311 256 293 
f 33 241 24 
f 308 305 142 
f 113 201 60 
f 64 305 80 
f 156 303 70 
f 142 305 64 
f 59 229 255 
f 216 16 177 
f 140 257 114 
f 308 142 216 
f 149 279 16 
f 95 205 159 
f 122 123 190 
f 18 205 95 
f 308 117 305 
