v 0.399607 0.912982 0.082324
v 0.399607 0.912982 -0.082324
v 0.266405 0.963861 0
v 0.262866 0.951057 0.16246
v 0.525731 0.850651 0
v 0.188519 0.97608805 -0.14138412
v 0.133071 0.987688 0.082242
v -0.601501 0.707107 -0.371748
v 2.2272262e-07 1.0000362 0.07101631
v 0.519258 0.840178 0.156434
v 0.386187 0.891007 0.238677
v 0.5574107 0.787117 0.27341843
v 0.386187 0.891007 -0.238677
v 0.519258 0.840178 -0.156434
v 0.44251728 0.8310108 -0.34457397
v -0.371748 0.601501 0.707107
v 0.264083 0.916244 -0.301259
v -0.647412 0.296005 -0.70231
v -0.516122 0.346153 -0.783452
v 0.259892 0.862668 -0.433889
v 0.055615902 0.9405184 -0.34674454
v 0.13770962 0.8160629 -0.5675392
v -0.783452 -0.516122 -0.346153
v 0 0.990439 -0.137952
v 0.707107 -0.371748 -0.601501
v 0.264083 0.916244 0.301259
v 0.132792 0.966393 0.220117
v 0.07036972 0.92336273 0.38343048
v 0.259892 0.862668 0.433889
v -0.07564032 0.96791935 0.24806213
v -0.564254 0.646578 -0.513375
v -0.513375 0.564254 -0.646578
v -0.46843 -0.757935 -0.453991
v 0.383614 0.843911 0.375039
v -0.48144913 -0.30462265 0.8245201
v 0.296005 0.70231 0.647412
v 0.62024 0.780204 0.081142
v 0.601501 0.707107 0.371748
v 0.6877098 0.72855455 -0.062553406
v 0.702046 0.693781 0.160622
v -0.571252 -0.213023 -0.792649
v -0.571252 0.213023 -0.792649
v -0.647412 -0.296005 -0.70231
v 0.606825 0.758652 -0.237086
v 0.587785 -0.425325 0.688191
v -0.399607 0.912982 -0.082324
v -0.399607 0.912982 0.082324
v -0.266405 0.963861 0
v -0.30176187 0.93059397 -0.22527695
v -0.525731 0.850651 0
v -0.262866 0.951057 0.16246
v -0.133071 0.987688 -0.082242
v -0.133071 0.987688 0.082242
v 0.646578 0.513375 -0.564254
v -0.646578 -0.513375 0.564254
v -0.54768133 0.8098359 -0.23015404
v -0.386187 0.891007 0.238677
v -0.519258 0.840178 0.156434
v -0.44251728 0.8310108 0.34457397
v 0.50910187 0.2078476 -0.83989525
v -0.264083 0.916244 0.301259
v -0.131655 0.924305 0.358229
v -0.259892 0.862668 0.433889
v -0.07852101 0.83966255 0.54421234
v 0.757935 -0.453991 -0.46843
v -0.67383194 0.2364521 0.70254135
v -0.132792 0.966393 -0.220117
v -0.131655 0.924305 -0.358229
v -0.259892 0.862668 -0.433889
v -0.7482672 -0.61240196 -0.26361084
v -0.383614 0.843911 -0.375039
v -0.62024 0.780204 0.081142
v -0.6907189 0.7249502 -0.068303585
v -0.50910187 0.2078476 0.83989525
v -0.702046 0.693781 0.160622
v 0.513375 0.564254 -0.646578
v -0.8358567 0.5503843 0.076153755
v -0.79362965 0.5933659 -0.15061569
v 0.783452 -0.516122 -0.346153
v 0.13985205 0.81225586 0.57201767
v 0.516122 -0.346153 -0.783452
v 0.399607 -0.912982 -0.082324
v 0.399607 -0.912982 0.082324
v 0.266405 -0.963861 0
v 0.262866 -0.951057 -0.16246
v 0.525731 -0.850651 0
v 0.188519 -0.97608805 0.14138412
v 0.133071 -0.987688 -0.082242
v -0.37895775 0.6704178 -0.64352417
v 2.2272262e-07 -1.0000362 -0.07101631
v 0.601501 0.707107 -0.371748
v 0.386187 -0.891007 -0.238677
v 0.54768133 -0.8098359 -0.23015404
v 0.386187 -0.891007 0.238677
v 0.519258 -0.840178 0.156434
v 0.44251728 -0.8310108 0.34457397
v -0.757935 0.453991 -0.46843
v 0.264083 -0.916244 0.301259
v -0.707107 0.371748 -0.601501
v -0.46843 0.757935 -0.453991
v 0.259892 -0.862668 0.433889
v 0.055615902 -0.9405184 0.34674454
v 0.13770962 -0.8160629 0.5675392
v -0.296005 -0.70231 -0.647412
v 0 -0.990439 0.137952
v 0.371748 -0.601501 -0.707107
v 0.264083 -0.916244 -0.301259
v 0.132792 -0.966393 -0.220117
v 0.07036972 -0.92336273 -0.38343048
v 0.259892 -0.862668 -0.433889
v -0.07564032 -0.96791935 -0.24806213
v 0.647412 -0.296005 0.70231
v 0.67383194 0.2364521 -0.70254135
v -0.425325 -0.688191 -0.587785
v 0.383614 -0.843911 -0.375039
v -0.647412 -0.296005 0.70231
v 0.62024 -0.780204 0.081142
v 0.6907189 -0.7249502 -0.068303585
v 0.425325 0.688191 -0.587785
v 0.702046 -0.693781 0.160622
v 0.46843 0.757935 -0.453991
v 0.8358567 -0.5503843 0.076153755
v 0.79362965 -0.5933659 -0.15061569
v -0.646578 -0.513375 -0.564254
v -0.646578 0.513375 0.564254
v 0.647412 -0.296005 -0.70231
v -0.399607 -0.912982 0.082324
v -0.399607 -0.912982 -0.082324
v -0.266405 -0.963861 0
v -0.262866 -0.951057 0.16246
v -0.525731 -0.850651 0
v -0.262866 -0.951057 -0.16246
v -0.133071 -0.987688 0.082242
v -0.133071 -0.987688 -0.082242
v -0.519258 -0.840178 0.156434
v -0.386187 -0.891007 0.238677
v -0.5574107 -0.787117 0.27341843
v -0.386187 -0.891007 -0.238677
v -0.519258 -0.840178 -0.156434
v -0.44251728 -0.8310108 -0.34457397
v 0.7482672 0.61240196 -0.26361084
v -0.264083 -0.916244 -0.301259
v -0.131655 -0.924305 -0.358229
v -0.259892 -0.862668 -0.433889
v -0.07852101 -0.83966255 -0.54421234
v 0.453991 -0.46843 -0.757935
v 0.647412 0.296005 0.70231
v -0.132792 -0.966393 0.220117
v -0.425325 0.688191 0.587785
v -0.20949471 -0.91210175 0.36222458
v -0.213023 -0.792649 -0.571252
v -0.383614 -0.843911 0.375039
v -0.62024 -0.780204 -0.081142
v -0.62024 -0.780204 0.081142
v -0.711282 -0.702907 0
v -0.702046 -0.693781 -0.160622
v -0.702046 -0.693781 0.160622
v -0.516122 -0.346153 -0.783452
v -0.783843 -0.615642 0.081086
v 0.757935 0.453991 0.46843
v -0.606825 -0.758652 -0.237086
v 0.13985205 -0.81225586 -0.57201767
v 0.912982 -0.082324 -0.399607
v 0.912982 0.082324 -0.399607
v 0.963861 0 -0.266405
v 0.93058586 -0.22521114 -0.30183792
v 0.850651 0 -0.525731
v 0.951057 0.16246 -0.262866
v 0.987688 -0.082242 -0.133071
v 0.987688 0.082242 -0.133071
v 1.000036 -0.07101631 -2.2272258e-07
v -0.587785 0.425325 -0.688191
v 0.346153 0.783452 -0.516122
v 0.8096409 -0.23017216 -0.5479927
v 0.891007 0.238677 -0.386187
v 0.840178 0.156434 -0.519258
v -0.525156 0.43209457 0.7386856
v 0.966393 0.220117 -0.132792
v 0.916244 0.301259 -0.264083
v 0.924305 0.358229 -0.131655
v 0.513375 -0.564254 0.646578
v 0.862668 0.433889 -0.259892
v 0.646578 -0.513375 0.564254
v 0.839648 0.54424614 -0.078440666
v 0.990439 0.137952 0
v 0.707107 0.371748 0.601501
v 0.296005 0.70231 -0.647412
v 0.96893495 -0.24492125 -0.06803417
v 0.371748 0.601501 -0.707107
v 0.862668 -0.433889 -0.259892
v 0.707107 0.371748 -0.601501
v 0.903667 -0.4143299 -0.1275959
v 0.9232886 -0.3815992 0.074705124
v 0.843911 -0.375039 -0.383614
v -0.70231 -0.647412 0.296005
v 0.780204 0.081142 -0.62024
v 0.7445793 -0.11871147 -0.65986633
v 0.425325 -0.688191 0.587785
v 0.688191 -0.587785 0.425325
v 0.564254 -0.646578 0.513375
v 0.661705 0.033136368 -0.7521782
v 0.59220886 -0.15637016 -0.79273224
v 0.46810532 -0.044733047 -0.886713
v 0.78709793 0.27344322 -0.55742645
v 0.564254 -0.646578 -0.513375
v 0.912982 0.082324 0.399607
v 0.912982 -0.082324 0.399607
v 0.963861 0 0.266405
v 0.9760895 0.14125538 0.18858147
v 0.850651 0 0.525731
v 0.951057 -0.16246 0.262866
v 0.525156 0.43209457 -0.7386856
v 0.987688 -0.082242 0.133071
v 0.840178 0.156434 0.519258
v 0.891007 0.238677 0.386187
v 0.78709793 0.27344704 0.55742645
v 0.891007 -0.238677 0.386187
v 0.840178 -0.156434 0.519258
v -0.601501 -0.707107 0.371748
v 0.966393 -0.220117 0.132792
v 0.8958998 -0.36593693 0.26057053
v 0.8061075 0.4405098 -0.40478516
v 0.8163332 0.567284 0.13736439
v 0.516122 -0.346153 0.783452
v 0.7981777 -0.4188099 0.43780518
v 0.916244 0.301259 0.264083
v -0.783452 0.516122 -0.346153
v 0.9407443 0.34593606 0.05615759
v 0.862668 0.433889 0.259892
v -0.70231 0.647412 -0.296005
v 0.843911 0.375039 0.383614
v 0.780204 -0.081142 0.62024
v 0.780204 0.081142 0.62024
v 0.702907 0 0.711282
v 0.693781 -0.160622 0.702046
v 0.693781 0.160622 0.702046
v -0.346153 -0.783452 -0.516122
v -0.453991 -0.46843 -0.757935
v 0.5950775 0.003797859 0.80822754
v 0.78709793 -0.27344322 0.55742645
v 0.646578 -0.513375 -0.564254
v -0.912982 -0.082324 0.399607
v -0.912982 0.082324 0.399607
v -0.963861 0 0.266405
v -0.93058586 -0.22521114 0.30183792
v -0.850651 0 0.525731
v -0.951057 0.16246 0.262866
v -0.987688 -0.082242 0.133071
v -0.987688 0.082242 0.133071
v -1.000036 -0.07101631 2.2272258e-07
v -0.688191 0.587785 -0.425325
v -0.28821945 0.7881012 -0.5478592
v -0.8096409 -0.23017216 0.5479927
v -0.891007 0.238677 0.386187
v -0.840178 0.156434 0.519258
v -0.46843 -0.757935 0.453991
v -0.966393 0.220117 0.132792
v -0.9139571 0.3624576 0.20234108
v 0.516122 0.346153 0.783452
v -0.961938 0.273267 0
v 0.571252 0.213023 0.792649
v 0.564254 0.646578 -0.513375
v 0.70231 -0.647412 -0.296005
v -0.990439 0.137952 0
v -0.843911 0.375039 0.383614
v 0.46843 0.757935 0.453991
v -0.966393 -0.220117 0.132792
v -0.924305 -0.358229 0.131655
v -0.862668 -0.433889 0.259892
v -0.961938 -0.273267 0
v -0.864929 -0.484442 0.1312
v -0.915043 -0.403355 0
v -0.843911 -0.375039 0.383614
v 0.707107 -0.371748 0.601501
v -0.780204 0.081142 0.62024
v -0.7445793 -0.11871147 0.65986633
v 0.783452 0.516122 0.346153
v 0.46843 -0.757935 0.453991
v -0.513375 0.564254 0.646578
v -0.661705 0.033136368 0.7521782
v -0.59220886 -0.15637016 0.79273224
v -0.46810532 -0.044733047 0.886713
v -0.78709793 0.27344322 0.55742645
v -0.792649 -0.571252 0.213023
v -0.912982 0.082324 -0.399607
v -0.912982 -0.082324 -0.399607
v -0.963861 0 -0.266405
v -0.951057 0.16246 -0.262866
v -0.850651 0 -0.525731
v -0.951057 -0.16246 -0.262866
v -0.987688 0.082242 -0.133071
v -0.987688 -0.082242 -0.133071
v -0.840178 0.156434 -0.519258
v -0.891007 0.238677 -0.386187
v -0.78709793 0.27344704 -0.55742645
v -0.891007 -0.238677 -0.386187
v -0.840178 -0.156434 -0.519258
v -0.707107 -0.371748 0.601501
v -0.966393 -0.220117 -0.132792
v -0.916244 -0.301259 -0.264083
v -0.924305 -0.358229 -0.131655
v -0.862668 -0.433889 -0.259892
v -0.839648 -0.54424614 -0.078440666
v -0.843911 -0.375039 -0.383614
v -0.916244 0.301259 -0.264083
v -0.966393 0.220117 -0.132792
v 0.688191 0.587785 -0.425325
v -0.862668 0.433889 -0.259892
v -0.91213304 0.410401 -0.07823944
v -0.843911 0.375039 -0.383614
v -0.780204 -0.081142 -0.62024
v -0.780204 0.081142 -0.62024
v -0.702907 0 -0.711282
v -0.693781 -0.160622 -0.702046
v -0.693781 0.160622 -0.702046
v -0.371748 -0.601501 -0.707107
v -0.757935 -0.453991 -0.46843
v -0.5950775 0.003797859 -0.80822754
v -0.78709793 -0.27344322 -0.55742645
v -0.783452 -0.516122 0.346153
v -0.082324 -0.399607 0.912982
v 0.082324 -0.399607 0.912982
v 0 -0.266405 0.963861
v -0.15631294 -0.19420052 0.9722891
v 0 -0.525731 0.850651
v 0.16246 -0.262866 0.951057
v -0.213023 0.792649 0.571252
v 0.082242 -0.133071 0.987688
v -0.071017265 7.350728e-08 1.000036
v -0.156434 -0.519258 0.840178
v 0.70231 0.647412 0.296005
v -0.27342606 -0.55742645 0.78710175
v 0.238677 -0.386187 0.891007
v 0.156434 -0.519258 0.840178
v 0.346153 -0.783452 -0.516122
v 0.220117 -0.132792 0.966393
v 0.301259 -0.264083 0.916244
v 0.78811455 -0.5479398 0.2882576
v 0.273267 0 0.961938
v 0.433889 -0.259892 0.862668
v 0.4248047 -0.09318638 0.9043827
v 0.6342659 -0.7185712 0.29843903
v 0.137952 0 0.990439
v 0.375039 -0.383614 0.843911
v -0.78811455 0.5479398 0.2882576
v -0.296005 0.70231 0.647412
v -0.32418823 -0.20269585 0.9263687
v -0.6342659 0.7185712 0.29843903
v -0.273267 0 0.961938
v -0.587785 -0.425325 -0.688191
v -0.688191 -0.587785 -0.425325
v -0.2974205 -0.3914528 0.87317085
v -0.46843 0.757935 0.453991
v 0.081142 -0.62024 0.780204
v -0.081142 -0.62024 0.780204
v 0 -0.711282 0.702907
v 0.160622 -0.702046 0.693781
v -0.160622 -0.702046 0.693781
v -0.453991 0.46843 -0.757935
v -0.07613349 -0.835865 0.5503731
v 0.2735138 -0.5574112 0.7871132
v 0.425325 -0.688191 -0.587785
v 0.082324 0.399607 0.912982
v -0.082324 0.399607 0.912982
v 0 0.266405 0.963861
v 0.21982765 0.31559563 0.92756176
v 0 0.525731 0.850651
v -0.16246 0.262866 0.951057
v 0.082242 0.133071 0.987688
v -0.082242 0.133071 0.987688
v 0.156434 0.519258 0.840178
v 0.346153 -0.783452 0.516122
v 0.27342606 0.55742645 0.78710175
v -0.238677 0.386187 0.891007
v -0.156434 0.519258 0.840178
v 0.296005 -0.70231 -0.647412
v -0.220117 0.132792 0.966393
v -0.301259 0.264083 0.916244
v -0.358229 0.131655 0.924305
v -0.688191 0.587785 0.425325
v -0.757935 -0.453991 0.46843
v -0.375039 0.383614 0.843911
v 0.296005 -0.70231 0.647412
v 0.220117 0.132792 0.966393
v -0.587785 -0.425325 0.688191
v -0.688191 -0.587785 0.425325
v 0.41830826 0.17320633 0.8960247
v 0.375039 0.383614 0.843911
v -0.081142 0.62024 0.780204
v 0.081142 0.62024 0.780204
v 0 0.711282 0.702907
v -0.160622 0.702046 0.693781
v 0.160622 0.702046 0.693781
v -0.707107 -0.371748 -0.601501
v -0.646578 0.513375 -0.564254
v -0.2735138 0.5574112 0.7871132
v 0.688191 -0.587785 -0.425325
v -0.082324 0.399607 -0.912982
v 0.082324 0.399607 -0.912982
v 0 0.266405 -0.963861
v -0.21982765 0.31559563 -0.92756176
v 0 0.525731 -0.850651
v 0.16246 0.262866 -0.951057
v -0.082242 0.133071 -0.987688
v 0.082242 0.133071 -0.987688
v -0.071017265 -7.350728e-08 -1.000036
v -0.156434 0.519258 -0.840178
v 0.371748 -0.601501 0.707107
v -0.27342606 0.55742645 -0.78710175
v 0.238677 0.386187 -0.891007
v 0.156434 0.519258 -0.840178
v 0.601501 -0.707107 -0.371748
v 0.220117 0.132792 -0.966393
v 0.301259 0.264083 -0.916244
v 0.358229 0.131655 -0.924305
v 0.273267 0 -0.961938
v -0.37895775 -0.6704178 0.64352417
v -0.513375 -0.564254 -0.646578
v -0.453991 -0.46843 0.757935
v 0.137952 0 -0.990439
v 0.375039 0.383614 -0.843911
v 0.453991 -0.46843 0.757935
v -0.220117 0.132792 -0.966393
v -0.564254 -0.646578 0.513375
v -0.513375 -0.564254 0.646578
v -0.273267 0 -0.961938
v -0.41830826 0.17320633 -0.8960247
v -0.4248047 -0.09318638 -0.9043827
v -0.375039 0.383614 -0.843911
v -0.28821945 -0.7881012 0.5478592
v 0.081142 0.62024 -0.780204
v -0.081142 0.62024 -0.780204
v 0 0.711282 -0.702907
v 0.160622 0.702046 -0.693781
v -0.160622 0.702046 -0.693781
v -0.757935 0.453991 0.46843
v -0.07613349 0.835865 -0.5503731
v 0.2735138 0.5574112 -0.7871132
v 0.587785 -0.425325 -0.688191
v 0.082324 -0.399607 -0.912982
v -0.082324 -0.399607 -0.912982
v 0 -0.266405 -0.963861
v 0.16246 -0.262866 -0.951057
v 0 -0.525731 -0.850651
v -0.16246 -0.262866 -0.951057
v 0.082242 -0.133071 -0.987688
v -0.082242 -0.133071 -0.987688
v 0.156434 -0.519258 -0.840178
v 0.238677 -0.386187 -0.891007
v 0.27342606 -0.55742645 -0.78710175
v -0.238677 -0.386187 -0.891007
v -0.156434 -0.519258 -0.840178
v 0.46843 -0.757935 -0.453991
v -0.220117 -0.132792 -0.966393
v -0.301259 -0.264083 -0.916244
v -0.564254 0.646578 0.513375
v -0.433889 -0.259892 -0.862668
v -0.707107 0.371748 0.601501
v -0.375039 -0.383614 -0.843911
v -0.346153 0.783452 0.516122
v 0.571252 -0.213023 0.792649
v 0.28096962 -0.18246365 -0.94636726
v 0.433889 -0.259892 -0.862668
v -0.564254 -0.646578 -0.513375
v 0.375039 -0.383614 -0.843911
v -0.081142 -0.62024 -0.780204
v 0.081142 -0.62024 -0.780204
v 0 -0.711282 -0.702907
v -0.160622 -0.702046 -0.693781
v 0.160622 -0.702046 -0.693781
v -0.601501 -0.707107 -0.371748
v 0.346153 0.783452 0.516122
v -0.2735138 -0.5574112 -0.7871132
v 0.513375 -0.564254 -0.646578
v 0.646578 0.513375 0.564254
v 0.564254 0.646578 0.513375
v 0.513375 0.564254 0.646578
v 0.587785 0.425325 0.688191
v 0.688191 0.587785 0.425325
v 0.425325 0.688191 0.587785
v 0.453991 0.46843 0.757935
v 0.371748 0.601501 0.707107
f 1 2 3 
f 4 1 3 
f 5 2 1 
f 6 3 2 
f 7 3 6 
f 9 7 6 
f 4 3 7 
f 332 419 417 
f 10 1 11 
f 12 10 11 
f 5 1 10 
f 4 11 1 
f 13 2 14 
f 15 13 14 
f 6 2 13 
f 5 14 2 
f 6 17 21 
f 256 424 219 
f 419 425 417 
f 20 21 17 
f 137 256 219 
f 437 21 22 
f 386 219 424 
f 20 22 21 
f 385 298 55 
f 9 6 24 
f 386 55 381 
f 21 24 6 
f 15 17 13 
f 397 65 79 
f 20 17 15 
f 6 13 17 
f 26 27 28 
f 29 26 28 
f 4 27 26 
f 30 28 27 
f 235 461 112 
f 64 80 28 
f 29 28 80 
f 45 112 224 
f 11 26 34 
f 12 11 34 
f 4 26 11 
f 29 34 26 
f 9 27 7 
f 463 202 81 
f 30 27 9 
f 4 7 27 
f 172 32 359 
f 295 97 99 
f 5 37 39 
f 40 39 37 
f 184 39 223 
f 350 394 43 
f 315 295 18 
f 40 223 39 
f 14 39 44 
f 15 14 44 
f 5 39 14 
f 97 395 99 
f 12 37 10 
f 350 238 418 
f 40 37 12 
f 5 10 37 
f 46 47 48 
f 49 46 48 
f 50 47 46 
f 51 48 47 
f 52 48 53 
f 9 52 53 
f 49 48 52 
f 51 53 48 
f 56 46 49 
f 96 342 278 
f 50 46 56 
f 251 97 227 
f 57 47 58 
f 59 57 58 
f 51 47 57 
f 50 58 47 
f 30 61 62 
f 429 19 359 
f 51 61 30 
f 63 62 61 
f 28 62 64 
f 350 158 238 
f 30 62 28 
f 63 64 62 
f 53 30 9 
f 439 81 126 
f 51 30 53 
f 56 71 100 
f 59 61 57 
f 174 194 65 
f 63 61 59 
f 51 57 61 
f 49 67 68 
f 69 49 68 
f 308 227 310 
f 21 68 67 
f 437 68 21 
f 314 318 41 
f 69 68 437 
f 417 424 256 
f 199 183 200 
f 56 49 71 
f 183 181 200 
f 69 71 49 
f 24 67 52 
f 9 24 52 
f 21 67 24 
f 49 52 67 
f 198 200 181 
f 75 72 73 
f 50 73 72 
f 198 278 200 
f 77 73 78 
f 237 104 151 
f 75 73 77 
f 45 181 183 
f 58 72 348 
f 59 58 348 
f 50 72 58 
f 75 348 72 
f 342 200 278 
f 473 316 238 
f 199 200 342 
f 50 56 73 
f 82 83 84 
f 85 82 84 
f 86 83 82 
f 87 84 83 
f 88 84 87 
f 90 88 87 
f 85 84 88 
f 361 422 344 
f 93 82 92 
f 101 372 103 
f 86 82 93 
f 85 92 82 
f 94 83 95 
f 96 94 95 
f 87 83 94 
f 86 95 83 
f 87 98 102 
f 55 424 425 
f 422 224 344 
f 101 102 98 
f 385 55 425 
f 360 102 103 
f 417 425 424 
f 101 103 102 
f 45 274 112 
f 90 87 105 
f 235 112 240 
f 102 105 87 
f 96 98 94 
f 118 93 263 
f 101 98 96 
f 87 94 98 
f 107 108 109 
f 110 107 109 
f 85 108 107 
f 111 109 108 
f 221 225 338 
f 145 162 109 
f 110 109 162 
f 199 338 225 
f 92 107 115 
f 93 92 115 
f 85 107 92 
f 110 115 107 
f 90 108 88 
f 197 126 202 
f 111 108 90 
f 85 88 108 
f 45 422 181 
f 120 117 118 
f 86 118 117 
f 357 103 383 
f 122 118 123 
f 172 395 32 
f 120 118 122 
f 198 181 408 
f 95 117 342 
f 96 95 342 
f 86 117 95 
f 120 342 117 
f 372 383 103 
f 351 317 124 
f 198 383 372 
f 86 93 118 
f 127 128 129 
f 130 127 129 
f 131 128 127 
f 132 129 128 
f 133 129 134 
f 90 133 134 
f 130 129 133 
f 132 134 129 
f 135 127 136 
f 137 135 136 
f 131 127 135 
f 130 136 127 
f 138 128 139 
f 140 138 139 
f 132 128 138 
f 131 139 128 
f 111 142 143 
f 144 151 145 
f 132 142 111 
f 144 143 142 
f 109 143 145 
f 302 23 70 
f 111 143 109 
f 144 145 143 
f 134 111 90 
f 126 81 202 
f 132 111 134 
f 351 70 23 
f 140 142 138 
f 350 124 394 
f 144 142 140 
f 132 138 142 
f 318 42 427 
f 439 474 146 
f 130 148 150 
f 102 150 148 
f 360 150 102 
f 314 41 43 
f 319 317 304 
f 386 424 55 
f 136 150 152 
f 137 136 152 
f 130 150 136 
f 315 42 318 
f 105 148 133 
f 90 105 133 
f 102 148 105 
f 130 133 148 
f 153 154 155 
f 156 153 155 
f 131 154 153 
f 157 155 154 
f 303 155 159 
f 457 459 158 
f 156 155 303 
f 157 159 155 
f 139 153 161 
f 140 139 161 
f 131 153 139 
f 156 161 153 
f 137 154 135 
f 319 394 317 
f 157 154 137 
f 131 135 154 
f 163 164 165 
f 166 163 165 
f 167 164 163 
f 168 165 164 
f 169 165 170 
f 171 169 170 
f 166 165 169 
f 168 170 165 
f 174 163 166 
f 156 70 161 
f 167 163 174 
f 351 464 471 
f 175 164 176 
f 204 175 176 
f 168 164 175 
f 167 176 164 
f 178 179 180 
f 228 178 180 
f 168 179 178 
f 182 180 179 
f 228 180 184 
f 435 252 437 
f 358 332 417 
f 182 184 180 
f 170 178 185 
f 171 170 185 
f 168 178 170 
f 228 185 178 
f 222 179 175 
f 204 222 175 
f 182 179 222 
f 168 175 179 
f 166 188 192 
f 190 166 192 
f 361 383 408 
f 340 344 224 
f 397 263 412 
f 122 192 193 
f 278 372 96 
f 188 193 192 
f 198 408 383 
f 174 166 194 
f 357 383 361 
f 190 194 166 
f 171 188 169 
f 463 203 202 
f 106 376 450 
f 166 169 188 
f 196 197 201 
f 113 196 201 
f 167 197 196 
f 137 152 256 
f 73 56 230 
f 203 201 202 
f 385 35 116 
f 197 202 201 
f 176 196 204 
f 470 450 376 
f 167 196 176 
f 113 204 196 
f 341 461 239 
f 439 146 81 
f 152 430 256 
f 167 174 197 
f 206 207 208 
f 209 206 208 
f 210 207 206 
f 211 208 207 
f 209 208 213 
f 171 209 213 
f 158 43 41 
f 211 213 208 
f 214 206 215 
f 216 214 215 
f 210 206 214 
f 209 215 206 
f 217 207 218 
f 240 217 218 
f 211 207 217 
f 210 218 207 
f 220 221 193 
f 188 220 193 
f 211 221 220 
f 397 79 263 
f 45 224 422 
f 469 145 151 
f 240 112 274 
f 221 122 193 
f 213 220 171 
f 116 35 281 
f 211 220 213 
f 188 171 220 
f 225 221 217 
f 240 225 217 
f 409 429 359 
f 211 217 221 
f 226 209 228 
f 229 226 228 
f 350 43 158 
f 427 42 19 
f 198 372 278 
f 184 223 228 
f 229 228 223 
f 172 19 18 
f 215 226 231 
f 216 215 231 
f 209 226 215 
f 229 231 226 
f 150 360 430 
f 171 185 209 
f 228 209 185 
f 358 430 360 
f 232 233 234 
f 235 232 234 
f 210 233 232 
f 236 234 233 
f 161 70 471 
f 351 471 70 
f 235 234 239 
f 236 239 234 
f 218 232 240 
f 263 79 123 
f 210 232 218 
f 235 240 232 
f 216 233 214 
f 450 465 146 
f 236 233 216 
f 210 214 233 
f 242 243 244 
f 245 242 244 
f 246 243 242 
f 247 244 243 
f 248 244 249 
f 250 248 249 
f 245 244 248 
f 247 249 244 
f 253 242 245 
f 235 239 461 
f 246 242 253 
f 69 252 71 
f 254 243 255 
f 283 254 255 
f 247 243 254 
f 246 255 243 
f 435 89 252 
f 260 257 258 
f 247 258 257 
f 427 19 429 
f 309 258 77 
f 469 151 104 
f 260 258 309 
f 172 359 19 
f 249 257 264 
f 250 249 264 
f 247 257 249 
f 260 264 257 
f 265 258 254 
f 283 265 254 
f 172 18 99 
f 247 254 258 
f 245 267 268 
f 269 245 268 
f 89 100 252 
f 270 268 267 
f 271 268 272 
f 303 271 272 
f 269 268 271 
f 270 272 268 
f 120 338 342 
f 253 245 273 
f 199 342 338 
f 269 273 245 
f 250 267 248 
f 114 237 33 
f 270 267 250 
f 245 248 267 
f 275 276 280 
f 66 275 280 
f 246 276 275 
f 469 104 473 
f 276 253 116 
f 282 280 281 
f 385 116 298 
f 276 281 280 
f 255 275 283 
f 69 437 252 
f 246 275 255 
f 66 283 275 
f 340 461 341 
f 197 174 126 
f 439 126 25 
f 246 253 276 
f 285 286 287 
f 288 285 287 
f 289 286 285 
f 290 287 286 
f 291 287 292 
f 250 291 292 
f 288 287 291 
f 290 292 287 
f 293 285 294 
f 295 293 294 
f 289 285 293 
f 288 294 285 
f 296 286 297 
f 319 296 297 
f 290 286 296 
f 289 297 286 
f 299 300 301 
f 270 299 301 
f 290 300 299 
f 302 301 300 
f 272 301 303 
f 473 238 459 
f 270 301 272 
f 302 303 301 
f 292 299 250 
f 276 116 281 
f 290 299 292 
f 270 250 299 
f 304 300 296 
f 319 304 296 
f 302 300 304 
f 290 296 300 
f 305 306 309 
f 308 305 309 
f 288 306 305 
f 260 309 306 
f 199 225 183 
f 240 274 225 
f 45 183 274 
f 274 183 225 
f 294 305 310 
f 295 294 310 
f 288 305 294 
f 308 310 305 
f 264 306 291 
f 250 264 291 
f 260 306 264 
f 288 291 306 
f 311 312 313 
f 314 311 313 
f 289 312 311 
f 315 313 312 
f 317 23 304 
f 302 304 23 
f 314 313 318 
f 315 318 313 
f 297 311 319 
f 221 338 122 
f 289 311 297 
f 314 319 311 
f 295 312 293 
f 463 81 465 
f 315 312 295 
f 289 293 312 
f 321 322 323 
f 324 321 323 
f 325 322 321 
f 326 323 322 
f 324 323 328 
f 329 324 328 
f 361 408 422 
f 326 328 323 
f 330 321 352 
f 332 330 352 
f 325 321 330 
f 324 352 321 
f 333 322 334 
f 361 333 334 
f 326 322 333 
f 325 334 322 
f 336 337 341 
f 339 336 341 
f 326 337 336 
f 340 341 337 
f 157 137 195 
f 394 124 317 
f 386 195 219 
f 219 195 137 
f 328 336 343 
f 329 328 343 
f 326 336 328 
f 339 343 336 
f 344 337 333 
f 361 344 333 
f 340 337 344 
f 326 333 337 
f 295 310 97 
f 310 227 97 
f 77 78 309 
f 349 347 324 
f 473 104 316 
f 114 316 104 
f 35 347 282 
f 349 282 347 
f 316 418 238 
f 8 230 56 
f 324 347 352 
f 35 352 347 
f 308 309 78 
f 362 453 335 
f 349 324 329 
f 408 181 422 
f 354 355 356 
f 357 354 356 
f 325 355 354 
f 358 356 355 
f 103 356 360 
f 457 158 41 
f 357 356 103 
f 358 360 356 
f 334 354 361 
f 114 33 464 
f 325 354 334 
f 357 361 354 
f 332 355 330 
f 190 192 123 
f 358 355 332 
f 325 330 355 
f 363 364 365 
f 366 363 365 
f 367 364 363 
f 368 365 364 
f 369 365 370 
f 329 369 370 
f 366 365 369 
f 368 370 365 
f 371 363 366 
f 373 371 366 
f 367 363 371 
f 157 195 284 
f 374 364 375 
f 396 374 375 
f 368 364 374 
f 367 375 364 
f 377 378 379 
f 349 377 379 
f 368 378 377 
f 74 379 378 
f 282 379 74 
f 124 418 464 
f 349 379 282 
f 110 162 335 
f 370 377 329 
f 110 335 115 
f 368 377 370 
f 349 329 377 
f 382 378 374 
f 396 382 374 
f 74 378 382 
f 368 374 378 
f 366 384 387 
f 65 241 25 
f 195 320 284 
f 339 387 384 
f 174 65 25 
f 239 387 341 
f 439 25 241 
f 339 341 387 
f 269 284 320 
f 373 366 388 
f 386 320 195 
f 387 388 366 
f 343 384 369 
f 329 343 369 
f 339 384 343 
f 366 369 384 
f 389 390 391 
f 392 389 391 
f 367 390 389 
f 393 391 390 
f 64 391 80 
f 156 303 70 
f 392 391 64 
f 393 80 391 
f 375 389 396 
f 140 471 33 
f 367 389 375 
f 392 396 389 
f 373 390 371 
f 122 123 192 
f 393 390 373 
f 367 371 390 
f 398 399 400 
f 401 398 400 
f 402 399 398 
f 403 400 399 
f 404 400 405 
f 406 404 405 
f 401 400 404 
f 403 405 400 
f 407 398 401 
f 409 407 401 
f 402 398 407 
f 332 352 419 
f 410 399 411 
f 438 410 411 
f 403 399 410 
f 402 411 399 
f 413 414 415 
f 416 413 415 
f 403 414 413 
f 60 415 414 
f 203 415 60 
f 412 263 93 
f 416 415 203 
f 397 412 205 
f 405 413 420 
f 406 405 420 
f 403 413 405 
f 416 420 413 
f 421 414 410 
f 438 421 410 
f 60 414 421 
f 403 410 414 
f 401 423 427 
f 146 474 106 
f 352 35 419 
f 426 427 423 
f 450 146 106 
f 318 427 428 
f 362 106 474 
f 426 428 427 
f 385 419 35 
f 409 401 429 
f 251 230 8 
f 427 429 401 
f 406 423 404 
f 93 115 453 
f 426 423 406 
f 401 404 423 
f 431 432 433 
f 434 431 433 
f 402 432 431 
f 435 433 432 
f 22 433 437 
f 351 23 317 
f 434 433 22 
f 435 437 433 
f 411 431 438 
f 114 464 418 
f 402 431 411 
f 434 438 431 
f 409 432 407 
f 190 123 79 
f 435 432 409 
f 402 407 432 
f 440 441 442 
f 443 440 442 
f 444 441 440 
f 445 442 441 
f 446 442 447 
f 406 446 447 
f 443 442 446 
f 445 447 442 
f 448 440 449 
f 450 448 449 
f 444 440 448 
f 443 449 440 
f 451 441 452 
f 473 451 452 
f 445 441 451 
f 444 452 441 
f 454 455 428 
f 426 454 428 
f 445 455 454 
f 457 428 455 
f 269 271 284 
f 303 159 271 
f 157 284 159 
f 159 284 271 
f 447 454 406 
f 115 335 453 
f 445 454 447 
f 426 406 454 
f 459 455 451 
f 473 459 451 
f 457 455 459 
f 445 451 455 
f 308 78 227 
f 251 227 230 
f 230 227 78 
f 73 230 78 
f 33 237 140 
f 144 140 237 
f 463 462 203 
f 416 203 462 
f 449 462 465 
f 450 449 465 
f 443 462 449 
f 463 465 462 
f 420 462 446 
f 406 420 446 
f 416 462 420 
f 443 446 462 
f 466 467 468 
f 469 466 468 
f 444 467 466 
f 470 468 467 
f 145 468 162 
f 395 31 32 
f 469 468 145 
f 470 162 468 
f 452 466 473 
f 351 124 464 
f 444 466 452 
f 469 473 466 
f 450 467 448 
f 118 263 123 
f 470 467 450 
f 444 448 467 
f 475 476 477 
f 478 475 477 
f 479 476 475 
f 480 477 476 
f 481 477 482 
f 373 481 482 
f 478 477 481 
f 480 482 477 
f 160 475 186 
f 216 160 186 
f 479 475 160 
f 478 186 475 
f 266 476 38 
f 12 266 38 
f 480 476 266 
f 479 38 476 
f 36 472 80 
f 393 36 80 
f 480 472 36 
f 29 80 472 
f 340 224 461 
f 435 409 89 
f 71 252 100 
f 224 112 461 
f 482 36 373 
f 101 96 372 
f 480 36 482 
f 393 373 36 
f 34 472 266 
f 12 34 266 
f 29 472 34 
f 480 266 472 
f 147 259 261 
f 236 147 261 
f 478 259 147 
f 387 261 259 
f 239 261 387 
f 140 161 471 
f 236 261 239 
f 397 241 65 
f 186 147 216 
f 465 81 146 
f 478 147 186 
f 236 216 147 
f 388 259 481 
f 373 388 481 
f 387 259 388 
f 478 481 259 
f 331 277 223 
f 40 331 223 
f 479 277 331 
f 229 223 277 
f 99 18 295 
f 25 126 174 
f 358 417 430 
f 18 19 42 
f 38 331 12 
f 114 418 316 
f 479 331 38 
f 40 12 331 
f 231 277 160 
f 216 231 160 
f 229 277 231 
f 479 160 277 
f 125 279 456 
f 380 125 456 
f 177 279 125 
f 149 456 279 
f 348 456 353 
f 59 348 353 
f 380 456 348 
f 149 353 456 
f 458 125 436 
f 283 458 436 
f 177 125 458 
f 380 436 125 
f 16 279 177 
f 396 16 177 
f 149 279 16 
f 439 241 474 
f 460 346 327 
f 63 460 327 
f 149 346 460 
f 392 327 346 
f 238 158 459 
f 302 70 303 
f 63 327 64 
f 392 64 327 
f 353 460 59 
f 194 79 65 
f 149 460 353 
f 63 59 460 
f 396 346 16 
f 471 464 33 
f 392 346 396 
f 149 16 346 
f 457 41 428 
f 428 41 318 
f 380 348 345 
f 75 345 348 
f 144 237 151 
f 114 104 237 
f 258 345 77 
f 75 77 345 
f 436 345 265 
f 283 436 265 
f 380 345 436 
f 258 265 345 
f 251 8 31 
f 100 31 8 
f 56 100 8 
f 89 31 100 
f 177 66 74 
f 470 376 162 
f 241 205 474 
f 35 282 281 
f 376 335 162 
f 282 74 280 
f 362 335 376 
f 66 280 74 
f 362 474 205 
f 396 177 382 
f 397 205 241 
f 74 382 177 
f 283 66 458 
f 120 122 338 
f 298 116 253 
f 177 458 66 
f 54 76 262 
f 307 54 262 
f 212 76 54 
f 119 262 76 
f 91 262 121 
f 15 91 121 
f 307 262 91 
f 119 121 262 
f 191 54 222 
f 204 191 222 
f 212 54 191 
f 307 222 54 
f 189 76 212 
f 438 189 212 
f 119 76 189 
f 253 273 381 
f 173 187 22 
f 20 173 22 
f 119 187 173 
f 434 22 187 
f 253 381 298 
f 315 18 42 
f 381 55 298 
f 385 425 419 
f 121 173 15 
f 190 79 194 
f 119 173 121 
f 20 15 173 
f 438 187 189 
f 350 418 124 
f 434 187 438 
f 119 189 187 
f 172 99 395 
f 182 222 141 
f 307 141 222 
f 251 395 97 
f 319 43 394 
f 314 43 319 
f 182 141 184 
f 39 184 141 
f 409 359 89 
f 89 32 31 
f 359 32 89 
f 251 31 395 
f 44 141 91 
f 15 44 91 
f 39 141 44 
f 307 91 141 
f 212 113 60 
f 93 453 412 
f 273 320 381 
f 417 256 430 
f 453 205 412 
f 203 60 201 
f 362 205 453 
f 113 201 60 
f 386 381 320 
f 438 212 421 
f 269 320 273 
f 60 421 212 
f 204 113 191 
f 362 376 106 
f 150 430 152 
f 212 191 113 
