v -0.277875 0.55689 -0.190965
v 0.31204748 -0.36292267 0.8765793
v 0.0696888 0.78798676 -0.1685524
v 0.015608311 -0.08436203 1.0452529
v -0.136442 0.179619 0.750387
v -0.13734913 0.30902606 0.12833214
v -0.06405538 -0.4336246 0.85180044
v 0.2811489 -0.06258178 0.85933113
v -0.160058 0.168229 -0.195838
v 0.149341 -0.451522 0.166423
v -0.16798401 -0.13347912 -0.17238426
v 0.114009 -0.358339 -0.0759521
v 0.101546 -0.475382 0.663157
v -0.25052905 0.19990921 0.09741211
v -0.305787 0.218563 -0.547441
v 0.358602 -0.37797 0.17897
v 0.34024858 -0.22732258 0.7123833
v 0.316102 -0.419396 0.649153
v -0.186967 -0.607615 -0.104287
v 0.0876766 -0.391182 0.901606
v 0.16205359 0.2830801 0.30973053
v 0.177264 0.282839 0.0875537
v 0.158786 0.0751889 -0.141343
v -0.216965 0.931825 -0.261167
v 0.20629406 0.86024165 -0.31874347
v -0.047676086 0.085235596 0.9270439
v -0.179633 -0.708233 -0.0350267
v 0.23956537 0.120030284 0.6727543
v -0.321008 0.352655 -0.511417
v -0.14425683 0.8035171 -0.3375473
v 0.18476105 -0.48366252 0.47240448
v 0.08938038 0.8204837 -0.23277736
v 0.146074 0.206063 0.488052
v 0.07806587 -0.06660652 0.9887042
v 0.184529 0.181235 -0.238574
v 0.229877 0.446038 -0.0428095
v 0.326584 0.303676 -0.375494
v 0.257915 0.488969 -0.517721
v 0.187711 0.730295 -0.437134
v 0.21145989 0.12857977 -0.4619007
v 0.271501 0.201979 -0.579853
v 0.20150375 0.33866262 -0.6510463
v 0.323288 -0.645898 -0.0650069
v 0.277559 -0.660659 0.872426
v 0.15321 -0.671553 0.116597
v 0.153343 -0.652512 -0.0628489
v 0.129752 -0.680413 0.714233
v 0.310744 -0.658159 0.12474
v 0.270197 -0.670204 0.705429
v 0.125665 -0.664371 0.877017
v 0.264169 0.646946 -0.369897
v -0.316601 -0.396416 0.250199
v 0.263204 0.560375 -0.137191
v 0.0372542 0.755486 -0.106376
v 0.432195 0.751246 -0.233457
v 0.424574 0.680439 -0.150855
v 0.379346 0.604049 -0.213075
v 0.045639038 -0.18883991 -0.19730663
v -0.053109907 0.51420593 -0.55822754
v -0.060124397 -0.5142884 0.34853172
v 0.053444862 -0.4383409 0.10058975
v 0.025872946 0.11811876 -0.30711746
v -0.325558 -0.615423 0.139592
v -0.120922 0.124855 -0.209363
v -4.33681e-19 0.765067 -0.449072
v 0.14468503 0.8054142 -0.33651352
v -0.069956 -0.47422 0.735292
v -0.04033479 0.10146797 -0.40215397
v -0.380591 0.614582 -0.245535
v -0.113288 -0.573273 0.0910993
v 0 0.499175 0.0586613
v -4.33681e-19 0.723906 -0.0597107
v -0.16653112 0.42149568 0.013533875
v 0.01657343 -0.42836 0.74346924
v 0 -0.533724 0.415511
v -0.2561865 -0.2646222 0.9012823
v 0.253217 0.578269 -0.474783
v -0.02479744 -0.34184837 0.8909607
v -0.0943475 -0.648249 0.746058
v 0.092041016 -0.054899216 0.9873409
v -0.145237 -0.635178 0.13052
v -0.3600645 -0.045027852 0.066265106
v -0.24802566 -0.43182814 0.5315156
v -0.151829 -0.713932 0.849146
v 0.22249112 0.89161456 -0.25468898
v 0.10315496 0.8151526 -0.21957457
v 0.0028934479 0.8088455 -0.17081451
v -0.36073542 -0.33736372 0.38250542
v 0.16228592 0.79561913 -0.3374511
v -0.132936 0.312061 0.210485
v -0.153047 -0.720555 0.741401
v -0.187443 -0.669698 -0.0818819
v 0.199751 0.790382 -0.244881
v 0 -0.53078 0.469003
v 0.32411134 0.76388556 -0.23787677
v -0.12482834 -0.511003 0.46936798
v -0.20675206 -0.46177578 0.3662548
v 0.19860968 -0.4804601 0.4206216
v -0.180783 0.946411 -0.244635
v -0.08955765 -0.05726099 0.9880371
v 0.17745 0.953646 -0.260405
v 0.17752528 0.7876282 -0.32639122
v 0.11261368 -0.06186104 0.9740963
v -0.393743 0.706765 -0.3123
v -0.298509 0.427522 -0.236282
v 0.2347207 0.74286795 -0.30633163
v -0.12704 -0.448099 -0.0735785
v -0.0884331 0.12573 -0.258533
v 0.01900673 -0.09536773 1.026833
v -0.34412363 -0.2874074 -0.081147194
v -0.315111 -0.397679 0.592146
v -0.17745 0.953646 -0.260405
v -0.22307014 0.08252907 0.81900024
v -0.046088155 0.10035099 -0.44980538
v -0.3361141 -0.38439935 0.42283654
v -0.2999003 0.056609154 0.008461952
v -0.2114597 0.12857968 -0.4619005
v -0.25001997 0.12329894 0.481246
v -0.149341 -0.451522 0.166423
v -0.190658 0.0074224 -0.137241
v -0.114009 -0.358339 -0.0759521
v -0.101546 -0.475382 0.663157
v -0.23724495 -0.43749365 0.4232736
v -0.0774719 -0.570173 0.85133
v -0.358602 -0.37797 0.17897
v -0.0643107 0.550463 0.0321785
v -0.316102 -0.419396 0.649153
v -0.198408 -0.728532 0.734591
v -0.0876766 -0.391182 0.901606
v -0.22988 0.247545 0.157829
v -0.177264 0.282839 0.0875537
v -0.158786 0.0751889 -0.141343
v -0.015603542 -0.380064 0.83901596
v -0.14022017 0.19233435 0.6891775
v -0.2461 -0.678205 0.889508
v -0.28576374 -0.20389223 0.86479473
v -0.471552 0.708579 -0.199184
v -0.34465575 -0.052160025 0.6568222
v -0.3667723 -0.014558949 0.18127835
v -0.194944 0.134806 -0.523346
v -0.07962036 -0.026302338 -0.21001339
v -0.146074 0.206063 0.488052
v -0.15840387 0.31916082 -0.019876271
v -0.184529 0.181235 -0.238574
v -0.229877 0.446038 -0.0428095
v -0.326584 0.303676 -0.375494
v -0.257915 0.488969 -0.517721
v -0.187711 0.730295 -0.437134
v -0.36504722 -0.24217415 -0.029956818
v -0.271501 0.201979 -0.579853
v -0.090265274 0.8214114 -0.23259103
v -0.323288 -0.645898 -0.0650069
v -0.277559 -0.660659 0.872426
v -0.15321 -0.671553 0.116597
v -0.153343 -0.652512 -0.0628489
v -0.129752 -0.680413 0.714233
v -0.310744 -0.658159 0.12474
v -0.270197 -0.670204 0.705429
v -0.125665 -0.664371 0.877017
v -0.264169 0.646946 -0.369897
v -0.17880058 0.69283295 -0.15141296
v -0.263204 0.560375 -0.137191
v -0.3568611 0.6824424 -0.32887983
v -0.432195 0.751246 -0.233457
v -0.424574 0.680439 -0.150855
v -0.36597794 0.5955061 -0.20963621
v -0.14689748 0.9092437 -0.22515501
v -0.2032466 0.9028187 -0.32052517
v -0.14793491 0.9295373 -0.28401184
v -0.168725 0.158519 -0.103729
v -0.046815872 0.80221176 -0.17730522
v -0.10351479 0.8146776 -0.21925324
v -0.16247034 0.7955889 -0.3373555
v 0.16744232 -0.016262054 0.9398804
v -0.153645 -0.534978 0.650489
v 0.21011591 0.72394943 -0.42150116
v -0.2081424 0.7622416 -0.27960062
v -0.199751 0.790382 -0.244881
v 0.18434906 -0.057678223 0.9421749
v -0.196177 -0.511769 0.183546
v -0.18491888 -0.48357582 0.47243023
v -0.38031816 -0.4028839 -0.037210703
v -0.317818 -0.392423 0.305485
v -0.15619923 0.8050925 -0.21824883
v -0.13257 0.138159 0.837992
v -0.32389998 -0.004250765 0.6895981
v -0.0840444 -0.64607 0.797118
v -0.327044 -0.674066 0.0872825
v 0.0552219 -0.529321 0.415644
v 0.20697641 -0.4381677 0.2950468
v 0.262599 -0.446574 0.214165
v 0.09477019 0.82008123 -0.29973269
v 0.28599182 -0.40954486 0.30791283
v -0.199905 0.685497 -0.462496
v 0.218649 -0.474853 0.619945
v 0.19621 -0.447285 0.538732
v -0.167426 0.259011 -0.0241111
v 0.240602 -0.341214 -0.117452
v 0.12147 -0.249274 -0.145022
v -0.128964 0.142918 -0.232488
v 0.328715 -0.192761 -0.0778193
v 0.358205 0.712515 -0.324745
v -0.0049791336 -0.08098507 1.0491204
v 0.09974575 -0.026275158 -0.19957733
v -0.23666573 0.50323296 -0.076776505
v -0.37948617 -0.25530815 0.035442352
v -0.1537 0.943252 -0.269054
v 0.21442223 -0.23428726 0.92095184
v 0.09345245 -0.28383636 0.9367485
v 0.211816 -0.394732 0.922409
v 0.21404076 -0.33403492 0.9198103
v 0.3661399 -0.13528824 0.04628563
v -0.290901 0.186126 -0.509143
v 0.385194 -0.351205 0.0306159
v 0.37946537 -0.25492477 0.03555298
v -0.43241 0.746455 -0.258303
v -0.225435 0.891324 -0.293612
v -0.272045 0.45855 -0.143225
v -0.201028 0.279793 0.204606
v -0.0543417 -0.44245 0.745122
v 0.16023624 0.90901375 -0.31445456
v -0.2285726 0.25041848 0.22131538
v 0.237614 0.630468 -0.469873
v -0.12860999 0.9161098 -0.2644763
v 0.3439368 -0.45581985 0.7836362
v -0.16811973 0.9033774 -0.22266191
v 0.32641125 -0.21850395 0.7788086
v -0.30582047 -0.06728029 0.82195854
v 0.28572845 -0.20390034 0.8648243
v 0.1537 0.943252 -0.269054
v 0.24869227 0.70546246 -0.1611147
v 0.3290968 -0.10491419 0.7735939
v 0.34466743 -0.052205324 0.65680885
v -0.04883957 -0.44151354 0.11651993
v -0.28562355 0.70014 -0.3427391
v -0.3659954 -0.11589277 0.45628357
v -0.17509615 0.122119695 -0.3963771
v 0.170184 0.299829 0.20555
v 0.21989644 0.23485184 0.3019104
v -0.17395473 0.87514496 -0.33069026
v 0.207634 0.937732 -0.29671
v -0.035033 0.18494 0.809623
v 0.14962292 0.22431564 0.43563843
v 0.0061643124 -0.43541026 0.061902046
v 0.21314049 0.1805706 0.42364502
v 0.22600842 0.09595728 0.79377174
v -0.10948467 0.107801735 -0.39656544
v 0.13917828 0.14947224 0.8168678
v -0.208287 -0.52835 0.637223
v -0.176513 0.760515 -0.410655
v -0.090789795 -0.012298584 0.9753418
v -0.2568264 0.032269478 0.83062935
v 0.224501 0.676789 -0.452578
v -0.296601 -0.602967 -0.109127
v -0.119063 -0.647679 0.702012
v -0.203233 0.797472 -0.273932
v 0.29610133 0.0505808 0.66732025
v -0.197174 0.276415 0.252836
v -0.0529288 -0.526727 0.468796
v 0.19589162 0.1859312 -0.02144432
v -0.166122 0.2964 0.255682
v -0.1770854 -0.44401002 0.25985336
v 0.138015 -0.443895 0.192281
v -0.1657486 0.6130676 -0.07857132
v 0.150018 0.148066 -0.170355
v -0.118055224 0.37794685 -0.646698
v 0.15201229 0.28824937 0.023093164
v 0.172619 0.221245 -0.0722104
v 0.03815651 -0.0035057068 0.9872093
v 0.294876 0.383503 -0.203773
v -0.27436638 0.017982945 -0.06108284
v 0.248629 0.311098 -0.153862
v -0.236564 -0.444228 0.584476
v 0.23911 0.14497 -0.502892
v 0.324701 0.24108 -0.502727
v 0.278147 0.181024 -0.423508
v 0.263786 0.27805 -0.630217
v 0.250979 0.388662 -0.601302
v 0.318198 0.390558 -0.446528
v 0.314593 0.32071 -0.563292
v 0.338046 -0.680095 0.0309463
v 0.228165 -0.692422 0.147407
v 0.12828 -0.689708 0.0245746
v 0.238161 -0.677382 -0.0918856
v 0.229681 -0.733842 0.0266899
v 0.20056 -0.687393 0.898863
v 0.107919 -0.696884 0.796995
v 0.199176 -0.699686 0.68654
v 0.291818 -0.690195 0.788408
v 0.198244 -0.736784 0.793448
v 0.307855 -0.55258 0.89062
v 0.294592 -0.571581 0.678753
v 0.335563 -0.561971 0.78431
v 0.059572972 -0.45885453 0.794745
v 0.110927 -0.595142 0.691599
v 0.102733 -0.558625 0.896274
v 0.0716769 -0.583028 0.796447
v 0.203007 -0.591569 0.647127
v 0.20811582 -0.54224527 0.9314578
v 0.339121 -0.546516 0.150832
v 0.352933 -0.520557 -0.0885122
v 0.383244 -0.532332 0.0297109
v 0.132569 -0.534652 -0.0767316
v -0.10242957 0.24057388 0.43898392
v 0.143499 -0.577512 0.141914
v 0.241073 -0.571789 0.188527
v 0.043937683 -0.08099365 1.0237064
v 0.0999951 -0.56397 0.0317575
v 0.271576 0.561647 -0.416318
v 0.282894 0.56989 -0.257283
v 0.23666668 0.50321007 -0.07678223
v 0.216036 0.894273 -0.311279
v 0.213045 0.609177 -0.109989
v 0.34762347 0.58598495 -0.199374
v 0.422878 0.632073 -0.168661
v 0.32688 0.680784 -0.145207
v 0.326345 0.612341 -0.141546
v 0.312594 0.674309 -0.341185
v 0.379053 0.63587 -0.283895
v 0.3154 0.606871 -0.278418
v 0.417773 0.731266 -0.288914
v 0.460287 0.727236 -0.177367
v 0.454185 0.684351 -0.230461
v -0.0606884 0.60785 0.00104436
v -0.13473701 0.22402287 -0.6427269
v 0.08622572 0.32179692 0.06682038
v -0.21869898 -0.44350588 0.48475266
v 0.018865287 0.22561699 0.66026497
v -0.33665955 0.5922997 -0.23783112
v 0.05426824 0.23062491 0.49576855
v 0.08869645 0.21773553 0.5499172
v 0.018131196 0.18557549 0.81266403
v -0.239082 0.578957 -0.111996
v -0.17626572 0.119773865 0.8256302
v -0.24088 -0.688682 0.691628
v -0.304443 -0.521287 -0.117606
v -0.11392403 -0.013698578 -0.19013119
v -0.27772325 -0.41338113 0.3092224
v -0.40689468 0.7529452 -0.20308876
v 0.037528276 -0.43715286 0.72994614
v 0.02753973 -0.3432598 0.8909168
v 0.0321101 -0.404726 0.804765
v -0.384792 0.647908 -0.143704
v -0.22400093 0.23229027 0.2967987
v -0.266037 -0.028621674 -0.0954628
v 0.08808261 0.34749848 0.0274072
v 0.101319 -0.442167 0.150389
v -0.030875802 0.35345402 0.03833352
v 0.124296 0.487548 0.0340513
v 0.1139614 0.43483448 0.040830314
v -0.13936675 0.14898956 -0.26775098
v -0.164011 -0.483033 0.631406
v 0.214286 0.629383 -0.484754
v -0.183641 -0.455489 0.534379
v 0.203233 0.797472 -0.273932
v -0.15188552 0.28831357 0.023444653
v 0.12404728 0.34255457 -0.66295433
v 0.12332773 0.3804798 -0.644804
v -0.017834663 -0.42808533 0.74453735
v 0.0987466 0.656786 -0.062447
v 0.24577713 -0.09066391 0.8992729
v 0.016780853 -0.28110313 -0.14256477
v -0.293784 -0.559568 0.181063
v -0.120968 0.319807 0.0225689
v -5.4240227e-06 0.035490036 -0.24049735
v 0.0766662 0.0457919 -0.217551
v 0.035573006 0.026423454 -0.23321605
v 0 0.101519 -0.264918
v -0.23000737 0.7603328 -0.21561217
v 0.0838463 0.11062 -0.238883
v -0.364087 -0.605614 -0.0296813
v -0.148278 0.684021 -0.47902298
v 0.12387872 0.89216626 -0.28614187
v -0.0406901 0.0790388 -0.244814
v -0.460337 0.681448 -0.17325
v -0.267222 0.417414 -0.116444
v 0.12490368 0.2645626 -0.6611841
v 0.226436 0.912723 -0.26973
v 0.04235792 0.7005882 -0.05669403
v -0.19186187 0.26306152 0.30717278
v 0.128934 0.593549 -0.0276065
v 0.23876977 0.6688795 -0.43673134
v -0.368236 -0.614976 0.0306267
v 0.2255 0.918412 -0.287909
v 0.182289 0.937359 -0.304334
v 0.155831 0.94592 -0.253016
v 0.199042 0.926972 -0.236591
v 0.198381 0.950853 -0.26973
v -0.188173 0.564066 -0.51907
v -0.168557 0.27236 -0.0447148
v 0.19106889 0.7824824 -0.30217266
v -0.246645 0.312827 -0.640337
v -0.115859 -0.693483 0.748115
v -0.032518 -0.377955 0.851217
v -0.08523655 0.17664528 0.8063431
v 0.18606567 0.6643772 -0.13410187
v 0.20750242 0.8875101 -0.23620486
v -0.34421748 -0.29218626 0.6494961
v 0.1341176 0.80476356 -0.3405881
v 0.06563473 0.79587173 -0.4129467
v 0.12471962 0.81254196 -0.32649517
v -0.17918 0.290497 -0.0609743
v -0.101319 -0.442167 0.150389
v 0.08147812 0.8239307 -0.2575373
v -0.304357 -0.484216 0.189956
v 0.140375 0.776566 -0.412207
v -0.214141 -0.334681 0.919903
v 0.21194744 0.7616265 -0.21596003
v -0.18548918 0.166562 0.6840668
v 0.249966 0.723503 -0.332259
v 0.32003 0.739642 -0.304714
v -0.18255615 0.20574379 0.42949677
v 0.10384369 -0.028951645 0.97895813
v -0.19898605 -0.03158474 0.9259987
v 0 0.785709 -0.129116
v -0.252371 -0.581833 0.652832
v 0.05012226 0.8278384 -0.3356142
v -0.260651 -0.513618 0.642398
v 0 0.821114 -0.378707
v 0.06971407 0.8157339 -0.3755188
v -0.319732 -0.633454 0.786428
v -0.0987466 0.656786 -0.062447
v -0.20817661 -0.43719232 0.29358292
v -0.061813354 -0.4295225 0.073280334
v 0.21314687 0.8429488 -0.25092417
v 0.21708539 0.8562373 -0.29839915
v -0.113677144 -0.4528994 0.094991416
v -0.191876 0.948989 -0.288378
v -0.016208172 -0.45634103 0.19144917
v 0.179801 0.930945 -0.23207
v -0.3532089 -0.049253225 0.4484558
v 0.10246086 -0.46846342 0.6113148
v -0.419572 0.658706 -0.261892
v -0.159856 0.939686 -0.239651
v -0.06939888 0.18226433 -0.6155844
v -0.12155914 -0.15556979 -0.18915987
v -0.126715 0.537337 0.0111468
v -0.20907333 0.7640649 -0.23400223
v 0.1310749 -0.44780767 0.22470474
v -0.09680985 -0.4084161 -0.021043338
v -0.317802 0.38717 -0.32759
v -0.312495 -0.42258 0.208415
v 0.16765523 -0.48645163 0.36083794
v 0.17755795 -0.4441594 0.26116562
v -0.149616 0.22431946 0.43562317
v 0.13170636 -0.5120023 0.41905463
v 0.0676527 -0.51060104 0.5265274
v -0.119443655 -0.5037954 0.35909462
v 0.19167328 0.8674555 -0.33058512
v -0.305291 -0.427537 -0.115465
v -0.21708599 0.8562367 -0.29839832
v -0.17741942 0.7877325 -0.32631826
v -0.045618057 -0.077130556 0.99029684
v -0.30098438 -0.00060915947 0.77739525
v -0.300873 -0.335808 -0.11045
v -0.13074684 0.15196657 -0.576458
v -0.13524917 0.9131009 -0.23398691
v 0.20195198 0.033792496 0.8891716
v -0.182766 -0.687312 0.135767
v -0.253551 -0.622939 0.912658
v 0.04822445 -0.45711207 0.20378494
v 0.069984436 -0.075891435 0.9854555
v -0.03224945 -0.07681799 1.0384226
v -0.0803711 0.0844567 -0.225271
v 0.033373833 -0.066812515 1.0401363
v -0.39372092 0.76031303 -0.23796451
v -0.148915 0.00578811 -0.165362
v -0.2019062 0.33852005 -0.65095234
v 0.004235983 -0.06493425 1.0469682
v 0.14797306 0.9295788 -0.28401184
v -0.34839296 -0.11371522 0.695858
v 0.12509108 -0.51093954 0.46917248
v -0.18107629 0.15704441 0.7393532
v -0.014772892 0.12977219 0.89193344
v 0.0359638 0.781745 -0.13792
v -0.149034 0.119255 -0.152767
v -0.34970006 -0.3638981 0.24921083
v -0.262599 -0.446574 0.214165
v 0.2684052 0.7601167 -0.21384525
v -0.30724844 -0.40902227 0.43237972
v -0.38478675 -0.08764291 0.19335175
v -0.19621 -0.447285 0.538732
v -0.218649 -0.474853 0.619945
v -0.32068586 -0.39024842 0.5384178
v -0.196917 0.927676 -0.311546
v -0.32024693 -0.15187252 -0.077041864
v 0.0019700527 0.82840896 -0.22312164
v -0.12147 -0.249274 -0.145022
v -0.288313 -0.71953 0.0292002
v -0.27107906 -0.45282745 0.9143486
v -0.247008 0.54474 -0.114114
v 0.32725906 0.7573409 -0.269063
v -0.30817795 -0.017285347 -0.041597366
v -0.3020091 0.29118252 -0.2942934
v -0.211816 -0.394732 0.922409
v -0.08746719 -0.28613663 0.9365635
v -0.21506119 -0.25697708 0.9198437
v -0.31177068 -0.3619976 0.8769641
v -0.296456 0.295786 -0.60247
v -0.385194 -0.351205 0.0306159
v -0.21302032 -0.2046752 -0.13925028
v -0.36613894 -0.13524914 0.046312332
v 0.12964489 0.91782016 -0.2472831
v -0.10513115 -0.038952827 0.9792299
v -0.2614441 0.73190165 -0.17650461
v -0.26127243 0.74730587 -0.28689003
v -0.36932993 -0.03618595 0.27613068
v -0.24827576 -0.069172025 -0.12351322
v -0.0026111752 0.8365533 -0.2937777
v -0.117988 -0.635837 0.0828
v -0.350232 0.00253885 0.0908221
v -0.25745964 0.61709976 -0.43579102
v -0.33168316 -0.2246418 0.7611046
v -0.324346 0.587714 -0.15672
v -0.272516 0.239582 -0.609537
v -0.308326 -0.632734 0.733956
v -0.32924318 -0.053556785 0.7509842
v -0.348561 -0.464054 0.158716
v -0.202463 0.304851 -0.656009
v -0.08421326 0.15076637 0.8495941
v -0.199052 0.0623656 -0.105989
v -0.0495204 -0.395304 0.851292
v -0.2955321 0.76328635 -0.23923254
v -0.0796433 -0.304819 -0.108871
v 0.191876 0.948989 -0.288378
v 0.2618494 0.74770355 -0.28595543
v -0.170184 0.299829 0.20555
v 0.3969648 0.71456385 -0.15660775
v 0.28562355 0.70014 -0.34273958
v -0.19137776 0.17949343 0.482275
v -0.216862 0.918936 -0.303965
v -0.18104 0.470039 0.00485434
v -0.025830269 0.70625305 -0.48096085
v 0.225435 0.891324 -0.293612
v -0.1480918 0.15778923 0.79130554
v -0.283535 -0.198083 -0.11242
v -0.2552762 0.07378101 0.769783
v -0.20377421 0.12455559 0.7777252
v -0.07458258 -0.06799543 0.99032867
v -0.14282644 0.1983161 0.5451908
v -0.19168757 0.17011118 0.5408735
v -0.0705061 -0.461083 0.663389
v -0.099674225 0.77563334 -0.17077446
v 0.0007042885 -0.0036087036 0.99144745
v 0.2259512 0.7370095 -0.34138203
v -0.2785964 0.5553533 -0.34227085
v -0.199187 0.49892 -0.545668
v -0.292915 -0.260195 -0.110308
v -0.219301 0.191387 -0.600189
v -0.326452 0.645309 -0.138504
v 0.016124725 -0.07636595 0.99413025
v 0.08730698 0.079818726 0.9197998
v -0.13201284 -0.5119015 0.41727972
v -0.1935585 0.26009986 -0.11505675
v -0.150018 0.148066 -0.170355
v -0.172619 0.221245 -0.0722104
v -0.21143633 0.40209663 -0.029800653
v -0.294876 0.383503 -0.203773
v -0.2802773 0.2158643 -0.35057497
v -0.248629 0.311098 -0.153862
v -0.324701 0.24108 -0.502727
v -0.23911 0.14497 -0.502892
v -0.19686985 0.14908552 -0.34148598
v -0.278147 0.181024 -0.423508
v -0.318198 0.390558 -0.446528
v -0.250979 0.388662 -0.601302
v -0.263786 0.27805 -0.630217
v -0.314593 0.32071 -0.563292
v -0.238161 -0.677382 -0.0918856
v -0.12828 -0.689708 0.0245746
v -0.228165 -0.692422 0.147407
v -0.338046 -0.680095 0.0309463
v -0.229681 -0.733842 0.0266899
v -0.291818 -0.690195 0.788408
v -0.199176 -0.699686 0.68654
v -0.107919 -0.696884 0.796995
v -0.20056 -0.687393 0.898863
v -0.198244 -0.736784 0.793448
v -0.294592 -0.571581 0.678753
v -0.307855 -0.55258 0.89062
v -0.335563 -0.561971 0.78431
v -0.102733 -0.558625 0.896274
v -0.110927 -0.595142 0.691599
v -0.059572905 -0.45885432 0.79474455
v -0.0716769 -0.583028 0.796447
v -0.203007 -0.591569 0.647127
v 0.20324707 0.90281963 -0.32052517
v -0.352933 -0.520557 -0.0885122
v -0.339121 -0.546516 0.150832
v -0.383244 -0.532332 0.0297109
v -0.132569 -0.534652 -0.0767316
v -0.24402 -0.524662 -0.124285
v -0.143499 -0.577512 0.141914
v -0.241073 -0.571789 0.188527
v -0.09751387 -0.43678594 0.035427034
v -0.0999951 -0.56397 0.0317575
v 0.192516 0.777938 -0.227759
v -0.282894 0.56989 -0.257283
v -0.271576 0.561647 -0.416318
v 0.22053915 0.85140353 -0.2743218
v -0.32688 0.680784 -0.145207
v -0.422878 0.632073 -0.168661
v -0.321376 0.576724 -0.185683
v -0.213045 0.609177 -0.109989
v -0.326345 0.612341 -0.141546
v -0.379053 0.63587 -0.283895
v -0.312594 0.674309 -0.341185
v -0.3154 0.606871 -0.278418
v -0.460287 0.727236 -0.177367
v -0.417773 0.731266 -0.288914
v -0.454185 0.684351 -0.230461
v -0.084709466 0.32243755 0.0661397
v -0.138821 0.452917 -0.589054
v -0.06931424 0.32125008 0.21064568
v -0.093699396 0.22457528 0.49247456
v -0.3796811 -0.16620255 0.11077309
v -0.039011 -0.45237923 0.6860504
v -0.22343111 0.17298889 0.4167137
v -0.204742 0.274117 0.153286
v -0.202195 0.446614 -0.579567
v -0.050076485 -0.32221222 -0.094451904
v -0.27622 0.344814 -0.176785
v -0.0473693 -0.423079 0.799815
v -0.037513494 -0.43715096 0.7299423
v -0.0321101 -0.404726 0.804765
v -0.0428926 0.103386 -0.257977
v -0.08808261 0.34749812 0.02740711
v -0.312606 0.638668 -0.319124
v -0.124296 0.487548 0.0340513
v -0.280089 -0.425608 0.586435
v -0.13551712 0.51176834 -0.5524559
v -0.214286 0.629383 -0.484754
v -0.075995445 0.7600975 -0.44647503
v -0.31171 0.235804 -0.406418
v 0.186655 0.907214 -0.322451
v 0.12961388 0.8005657 -0.20860887
v -0.274851 -0.146856 -0.114171
v -0.26147157 0.20018089 0.15008545
v -0.335933 -0.414813 0.716014
v -0.03336811 -0.2784977 -0.14268303
v -0.0766662 0.0457919 -0.217551
v -0.233064 -0.638226 0.175543
v -0.093286276 0.13044932 -0.28997564
v -0.0838463 0.11062 -0.238883
v -0.114603 0.104637 -0.445501
v -0.192626 0.647576 -0.125774
v -0.153665 0.185489 -0.611191
v -0.137484 0.129002 -0.534091
v -0.12940025 0.26239872 -0.66004896
v -0.076187134 0.7424412 -0.12657547
v -0.128934 0.593549 -0.0276065
v -0.23878598 0.66884136 -0.4367752
v -0.14951992 -0.5430491 0.9238384
v -0.199042 0.926972 -0.236591
v -0.155831 0.94592 -0.253016
v -0.182289 0.937359 -0.304334
v -0.2255 0.918412 -0.287909
v -0.198381 0.950853 -0.26973
v -0.179801 0.930945 -0.23207
v -0.19453502 0.7898652 -0.29695797
v -0.283587 -0.684515 0.738785
v -0.150533 0.744043 -0.44196
v -0.265715 0.160342 -0.469212
v -0.18447733 0.7727882 -0.21284103
v -0.37536 0.738148 -0.30116
v -0.447289 0.655956 -0.196803
v 0.214224 0.916672 -0.246046
v -0.083367705 -0.5897517 0.7393596
v -0.12399483 0.8102417 -0.32816982
v -0.388682 0.680406 -0.144893
v -0.21544 0.938681 -0.279423
v -0.288523 -0.704927 -0.0329901
v -0.08133471 0.8235311 -0.2564525
v -0.13027227 0.8004582 -0.20854807
v -0.3264184 -0.5471442 0.7250023
v -0.23181868 0.75586367 -0.2624054
v -0.295399 0.395443 -0.540067
v -0.19669151 0.37560654 -0.63510895
v -0.249966 0.723503 -0.332259
v 0.402685 0.758643 -0.236201
v -0.32003 0.739642 -0.304714
v -0.18462408 0.76009583 -0.19366837
v -0.15574 -0.680004 0.892121
v -0.290372 0.624108 -0.317788
v 0.196917 0.927676 -0.311546
v 0.015755296 -0.52091336 0.35232544
v -0.060525775 0.12600875 -0.53821373
v -0.278055 0.600765 -0.320108
v -0.19530392 0.1847763 -0.02344799
v -0.17225981 0.77885914 -0.38030434
v -0.167034 0.18223 -0.122798
v -0.19167352 0.86745644 -0.33058536
v -0.0771327 -0.378765 -0.022981
v -0.12388849 0.8921623 -0.2860999
v -0.21995 0.228648 -0.628685
v 0.2025013 0.7661012 -0.28980446
v -0.237614 0.630468 -0.469873
v -0.25423712 0.21392804 0.21161461
v -0.1986779 -0.4803918 0.42053345
v -0.14688492 -0.48518753 0.53588486
v -0.241923 -0.609859 -0.117359
v -0.192516 0.777938 -0.227759
v -0.22609627 0.7369151 -0.34127235
v -0.267679 0.610284 -0.129549
v -0.354786 -0.614851 0.0904298
v -0.117464066 -0.44943768 0.2193203
v 0.216965 0.931825 -0.261167
v -0.307295 0.256707 -0.578835
v -0.19388247 0.7776015 -0.29831314
v -0.38300037 0.7550578 -0.27118015
v -0.08640528 0.19645262 0.75904655
v -0.16050625 0.9096675 -0.31422377
v -0.291362 -0.413379 0.536815
v -0.203436 -0.628169 0.923071
v -0.125551 0.112279 -0.490196
v -0.12512589 0.30350327 -0.6675413
v -0.340742 -0.597899 -0.0798229
v -0.10242653 -0.06988269 0.9763737
v -0.060979843 0.4543152 -0.59407043
v -0.198896 -0.723335 0.85193
v -0.17669678 0.01828003 0.9165039
v -0.367842 0.597467 -0.17194
v -0.262868 -0.552296 0.920108
v -0.172796 -0.723594 0.0247169
v -0.106684 -0.534636 0.682874
v -0.233098 0.21084 -0.267301
v -0.354445 -0.427851 -0.0878125
v -0.294318 0.572729 -0.209871
v -0.055550814 -0.23163891 -0.17554092
v -0.030469894 -0.062408447 1.0405588
v -0.234872 0.742799 -0.306286
v -0.12279892 0.34164572 -0.66346717
v -0.216036 0.894273 -0.311279
v -0.175228 0.201681 -0.146613
v -0.15973663 -0.040483475 0.95386887
v -0.129481 0.307575 0.259519
v 0.317818 -0.392423 0.305485
v 0.33611184 -0.38440353 0.4228158
v 0.20302436 0.775637 -0.25682786
v 0.23206568 -0.4360835 0.3595419
v -0.31354 -0.474577 0.887895
v -0.191143 -0.453861 0.591118
v -0.0461998 -0.30971146 0.92212105
v 0.2099 -0.457622 0.202318
v 0.274846 -0.418754 0.252658
v 0.19788277 -0.43722355 0.24118161
v 0.12958433 0.81573695 -0.21657935
v 0.3496468 -0.36396223 0.24924016
v 0.312495 -0.42258 0.208415
v 0.316601 -0.396416 0.250199
v 0.32076883 -0.39018953 0.53818893
v 0.291362 -0.413379 0.536815
v 0.30730855 -0.4089589 0.4311124
v -0.040039062 -0.0028266907 0.9865036
v 0.26979 -0.455493 0.624003
v 0.236564 -0.444228 0.584476
v 0.315111 -0.397679 0.592146
v 0.280089 -0.425608 0.586435
v 0.156119 -0.458526 0.595789
v 0.24905854 -0.4319322 0.5342965
v 0.164011 -0.483033 0.631406
v 0.191143 -0.453861 0.591118
v 0.216862 0.918936 -0.303965
v 0.201014 0.943338 -0.25145
v 0.300873 -0.335808 -0.11045
v 0.23546 -0.269794 -0.12322
v 0.283535 -0.198083 -0.11242
v 0.344123 -0.2874074 -0.08114779
v 0.292915 -0.260195 -0.110308
v 0.119478 -0.295776 -0.113872
v -0.343967 0.620068 -0.286887
v 0.176383 -0.34915 -0.10631
v 0.174532 -0.282877 -0.121531
v -0.3871559 -0.16479349 0.26745605
v 0.16831589 -0.13315487 -0.17228317
v 0.17170715 -0.2271843 -0.1442604
v 0.21331596 -0.20470953 -0.1391511
v -0.271665 0.531425 -0.180446
v -0.185308 0.513743 -0.0172354
v 0.274851 -0.146856 -0.114171
v 0.3078785 -0.017577171 -0.042012215
v 0.0771688 0.744134 -0.128582
v 0.26599598 -0.0289402 -0.09558678
v -0.37301373 -0.5182867 0.09612322
v -0.149733 -0.3934 0.920339
v 0.24634075 -0.06947297 -0.12507343
v 0.31437922 -0.12155259 -0.07484484
v 0.19323194 0.768705 -0.21424842
v -0.30060005 0.10214615 0.07621193
v -0.12583876 0.29375887 0.31599617
v 0.20038033 -0.10408878 -0.15753746
v 0.199052 0.0623656 -0.105989
v 0.148915 0.00578811 -0.165362
v 0.190658 0.0074224 -0.137241
v -0.115674 0.055105 -0.187883
v -0.315639 -0.625673 0.839496
v -0.33482838 -0.37500525 0.8354902
v 0.1888631 0.89810324 -0.22636166
v -0.33908033 -0.35114694 0.58411217
v 0.25167656 -0.19654465 0.8980179
v -0.29416656 0.04873684 0.6950035
v -0.20757 0.117335 -0.0616182
v 0.25970745 -0.26839912 0.8997755
v -0.34177 0.649107 -0.318477
v 0.16448212 -0.2769394 0.931448
v -0.375881 0.662505 -0.310821
v 0.16758728 -0.2135315 0.94044495
v 0.14772272 -0.39233994 0.92031014
v 0.104904 -0.328487 0.922781
v 0.15673 -0.332639 0.924128
v 0.36503744 -0.24208069 -0.029945374
v -0.202175 0.775482 -0.251997
v 0.17130756 0.780179 -0.378973
v -0.20381069 0.23129651 -0.17671013
v -0.444197 0.711394 -0.263256
v -0.244653 -0.641994 0.666514
v 0.33682108 -0.03261876 0.004252434
v -0.232047 0.565216 -0.501918
v -0.03605175 0.028619766 -0.23331785
v 0.37966967 -0.16605091 0.110795975
v -0.20942998 -0.5419607 0.9313799
v 0.379176 -0.364086 0.102343
v 0.375596 -0.311145 0.175939
v 0.381833 -0.28818226 0.10063374
v -0.213772 0.26767 -0.647803
v -0.079962134 0.31245422 0.26761627
v -0.0552219 -0.529321 0.415644
v -0.31257963 -0.21913934 0.8204336
v 0.37672877 -0.28110027 0.3227291
v 0.35733533 -0.34518242 0.38197708
v -0.3829608 -0.24987325 0.2739153
v -0.11396158 0.43483475 0.040830225
v 0.3843337 -0.23684263 0.23444557
v -0.13645506 0.79861903 -0.37355232
v -0.12912226 0.78164864 -0.4114914
v -0.20493805 0.76038766 -0.20338011
v -0.188536 -0.577394 0.174934
v -0.20034 -0.651356 0.660475
v 0.3829608 -0.09075409 0.26934242
v 0.35339677 -0.04962206 0.4469185
v 0.36551905 -0.11309427 0.45658875
v 0.38710195 -0.16305518 0.2726555
v -0.28283 -0.632563 0.691009
v 0.14674746 0.90911937 -0.22514361
v 0.38595334 -0.10904682 0.18760204
v -0.119478 -0.295776 -0.113872
v -0.358205 0.712515 -0.324745
v 0.3692751 -0.036133647 0.27639008
v 0.24386835 0.6856308 -0.39024544
v 0.146595 0.0621109 0.9057617
v 0.34104478 0.022792697 0.07809687
v 0.36003494 -0.044159204 0.06676102
v -0.24385262 0.6856327 -0.39028358
v -0.0918712 -0.426509 0.0746889
v -0.165912 0.939303 -0.292739
v 0.3743114 -0.037713215 0.18045175
v 0.1419487 -0.46386045 0.5821171
v -0.37533784 -0.06378913 0.12597466
v 0.37525916 -0.06420708 0.12499428
v -0.0969194 -0.478778 0.897495
v 0.21885252 -0.44303644 0.48617172
v 0.34000632 -0.3275261 0.76431465
v -0.207634 0.937732 -0.29671
v 0.3347888 -0.37496567 0.8355613
v 0.334716 -0.360298 0.654176
v -0.153584 -0.625261 0.914716
v 0.335933 -0.414813 0.716014
v 0.339263 -0.356428 0.715872
v -0.255976 0.429549 -0.563622
v 0.33538938 -0.27049255 0.76052094
v -0.185474 -0.638484 0.162245
v -0.28112602 -0.062316895 0.85927963
v -0.289278 0.358786 -0.584918
v 0.102981 -0.465723 0.632974
v -0.23546 -0.269794 -0.12322
v 0.40570474 0.7362163 -0.17381859
v -0.0576974 -0.360469 0.893822
v 0.3058014 -0.06705856 0.8219509
v -0.253217 0.578269 -0.474783
v -0.274305 0.331026 -0.617491
v -0.387436 -0.440321 0.0296682
v 0.3126545 -0.21923876 0.8203392
v -0.333345 0.309542 -0.480189
v -0.156436 -0.650983 0.672896
v 0.173109 0.951035 -0.277835
v 0.32831955 -0.05126944 0.752512
v -0.32675 0.280027 -0.535933
v 0.34864378 -0.11289251 0.69452095
v -0.126096 0.69557 -0.127071
v -0.28588 0.662049 -0.349089
v -0.15335 -0.595644 0.66033
v -0.258236 0.693552 -0.356883
v -0.136552 -0.67511 -0.0280042
v -0.0804863 0.29765034 0.3224678
v -0.3950734 0.71138024 -0.15507793
v -0.0359638 0.781745 -0.13792
v -0.0641499 -0.454693 0.696538
v 0.36097717 -0.20792007 0.53341675
v 0.18918014 0.7581333 -0.19345188
v -0.224501 0.676789 -0.452578
v -0.18892443 0.89799494 -0.22634697
v -0.110702515 0.075904846 0.9135208
v -0.22261047 0.033882856 0.8696823
v -0.220538 0.85139906 -0.27432138
v -0.276152 -0.679477 0.14116
v 0.33882737 -0.35230243 0.5831928
v 0.3444084 -0.28964996 0.65152264
v -0.294197 -0.618974 0.884469
v -0.240548 0.35766 -0.62796
v 0.24074803 0.23127186 0.14223242
v -0.182701 -0.527846 -0.109937
v -0.201014 0.943338 -0.25145
v -0.15673 -0.332639 0.924128
v 0.173937 0.295795 0.151795
v 0.201028 0.279793 0.204606
v 0.208445 0.255016 0.0997486
v 0.204742 0.274117 0.153286
v 0.19189024 0.26299 0.30735207
v 0.22858834 0.25055444 0.22041702
v 0.166122 0.2964 0.255682
v 0.197174 0.276415 0.252836
v -0.23242188 -0.4357999 0.3594942
v -0.084777 0.331134 0.0392602
v -0.460792 0.730831 -0.231063
v 0.159856 0.939686 -0.239651
v 0.24220848 0.15089798 0.41528702
v -0.3058719 0.051033735 0.47038937
v -0.194817 -0.437402 0.239358
v 0.038619995 -0.45256233 0.68523407
v -0.101981 -0.43742 0.118873
v 0.27583742 0.15315628 0.28488922
v 0.24724293 0.19877625 0.2941513
v -0.16204262 0.28308773 0.3097496
v 0.23441315 -0.033395767 0.89891815
v -0.24434477 0.37247294 -0.09168732
v 0.19138438 0.17948818 0.48226643
v -0.181336 0.804317 -0.228606
v 0.18258572 0.20571327 0.42926025
v -0.12957808 0.81570053 -0.21657634
v -0.179139 -0.436248 -0.106528
v 0.17920876 0.13107109 0.80573845
v -0.20768309 0.888232 -0.23644134
v -0.058383584 0.440306 0.05503969
v -0.233311 0.142158 -0.432916
v 0.195015 0.146226 0.738197
v 0.23370457 0.11249876 0.7327652
v -0.3283981 0.35358968 -0.40202546
v -0.3290968 -0.10491371 0.7735863
v -0.291391 0.478507 -0.418527
v -0.2382797 0.1635015 -0.3701582
v 0.15073943 0.17434692 0.74524117
v 0.18862247 0.08971977 0.8522587
v -0.112805 -0.624088 0.888986
v -0.34393236 -0.4558962 0.7835989
v 0.19165377 0.17012691 0.54094124
v -0.258116 0.645451 -0.13607
v -0.24126434 -0.08830929 0.9034519
v 0.25000572 0.12321162 0.48182392
v 0.14283204 0.19831455 0.5452137
v -0.22248656 0.89160895 -0.25467896
v -0.09413004 0.82018447 -0.29825068
v -0.114552 -0.619641 -0.0267392
v 0.121225774 0.2013312 0.6895566
v 0.1859541 0.16638145 0.68295574
v -0.294439 0.591849 -0.266039
v -0.289471 0.569074 -0.162469
v -0.186655 0.907214 -0.322451
v -0.281161 -0.710704 0.0910758
v -0.011587858 0.831548 -0.3413391
v 0 0.760454 -0.0953915
v -0.26979 -0.455493 0.624003
v 0.34094036 0.038456917 0.2663479
v -0.335047 -0.66747 -0.026194
v -0.04306948 0.3285385 0.07214093
v 0.25644237 0.21065617 0.20958233
v -0.13035221 0.91852516 -0.24699211
v 0.30462283 0.05445206 0.45916748
v 0.2840569 0.09983158 0.39816666
v 0.32901502 -0.008905172 0.6597271
v 0.013542414 0.08760834 0.9295387
v -0.307399 0.208213 -0.46356
v 0.31391716 -0.01234889 0.7544155
v 0.2830906 0.043809652 0.7560806
v 0.0529288 -0.526727 0.468796
v -0.14456177 0.106349945 0.8686943
v 6.755069e-05 -0.39513206 -0.017389297
v 0.25503063 0.0317955 0.83418083
v -0.288912 -0.666279 -0.0831981
v 0.268509 -0.018423 0.854481
v 0.291897 -0.0177918 0.816142
v 0.181753 0.135303 -0.0848536
v 0.176513 0.760515 -0.410655
v 0.27182007 0.021491647 -0.061515808
v 0.20757 0.117335 -0.0616182
v -0.379176 -0.364086 0.102343
v 0.227222 0.886884 -0.273083
v -0.412958 0.685943 -0.291128
v 0.2663312 0.1657753 0.080602646
v 0.2999143 0.05403042 0.004989624
v -0.25113 -0.502745 0.197094
v -0.330786 0.26947 -0.445487
v 0.105700254 -0.50476503 0.3492241
v -0.208445 0.255016 0.0997486
v -0.331331 -0.556659 0.842236
v -0.337524 -0.478425 0.840051
v -0.0899111 -0.634521 0.847274
v -0.35500336 -0.20539454 0.5971527
v -0.214224 0.916672 -0.246046
v 0.33786833 -0.006781578 0.44478035
v -0.279361 0.583208 -0.137022
v -0.447397 0.702392 -0.15815
v -0.09060174 0.21787143 0.54691505
v 0.34081787 0.045448303 0.1788826
v 0.2574618 0.6171007 -0.4357834
v -0.106751 -0.633108 0.0275567
v 0.2879219 0.1503191 0.14573193
v -0.246831 -0.711912 0.845432
v -0.34071684 0.042116165 0.24762154
v 0.149034 0.119255 -0.152767
v 0.167034 0.18223 -0.122798
v 0.177314 0.204818 -0.0510199
v 0.168725 0.158519 -0.103729
v 0.20381087 0.2312943 -0.17670512
v 0.177164 0.238112 -0.093383
v 0.160058 0.168229 -0.195838
v 0.175228 0.201681 -0.146613
v 0.149721 0.3008 -0.00470029
v 0.167426 0.259011 -0.0241111
v 0.17918 0.290497 -0.0609743
v 0.168557 0.27236 -0.0447148
v -0.177164 0.238112 -0.093383
v 0.18057382 0.24332201 0.013107777
v 0.233098 0.21084 -0.267301
v 0.26422 0.274293 -0.228207
v 0.193571 0.26011473 -0.11506474
v 0.180783 0.946411 -0.244635
v 0.314639 0.343639 -0.292523
v 0.27622 0.344814 -0.176785
v 0.30200934 0.29118872 -0.29429817
v -0.149721 0.3008 -0.00470029
v 0.2114343 0.40209138 -0.029800475
v -0.181753 0.135303 -0.0848536
v 0.267222 0.417414 -0.116444
v -0.24204636 -0.033163786 0.89149094
v 0.15840387 0.31915995 -0.019876271
v 0.24435711 0.37248677 -0.091700196
v 0.19688892 0.14908838 -0.34150696
v 0.23828018 0.16350436 -0.37016106
v 0.2802825 0.21586943 -0.35059118
v -0.0076220036 -0.09310734 1.0417261
v -0.375596 -0.311145 0.175939
v 0.265715 0.160342 -0.469212
v 0.165912 0.939303 -0.292739
v 0.233311 0.142158 -0.432916
v 0.305787 0.218563 -0.547441
v 0.307399 0.208213 -0.46356
v 0.259412 0.1698 -0.542722
v 0.290901 0.186126 -0.509143
v 0.330786 0.26947 -0.445487
v 0.31171 0.235804 -0.406418
v 0.32675 0.280027 -0.535933
v 0.321008 0.352655 -0.511417
v -0.105712 -0.548895 -0.0268432
v 0.333345 0.309542 -0.480189
v 0.272516 0.239582 -0.609537
v 0.296456 0.295786 -0.60247
v 0.307295 0.256707 -0.578835
v 0.240548 0.35766 -0.62796
v 0.289278 0.358786 -0.584918
v 0.246645 0.312827 -0.640337
v 0.274305 0.331026 -0.617491
v 0.295245 0.436762 -0.484187
v 0.255976 0.429549 -0.563622
v 0.295399 0.395443 -0.540067
v 0.335047 -0.66747 -0.026194
v 0.288313 -0.71953 0.0292002
v 0.233667 -0.718383 -0.0394682
v 0.288912 -0.666279 -0.0831981
v 0.288523 -0.704927 -0.0329901
v 0.276152 -0.679477 0.14116
v 0.227442 -0.724741 0.0933852
v 0.327044 -0.674066 0.0872825
v 0.281161 -0.710704 0.0910758
v 0.136631 -0.686121 0.0787634
v 0.172796 -0.723594 0.0247169
v 0.182766 -0.687312 0.135767
v 0.176191 -0.716151 0.0857864
v 0.187443 -0.669698 -0.0818819
v 0.136552 -0.67511 -0.0280042
v 0.179633 -0.708233 -0.0350267
v 0.2461 -0.678205 0.889508
v 0.198896 -0.723335 0.85193
v 0.248642 -0.724519 0.790895
v 0.288217 -0.679435 0.838379
v 0.246831 -0.711912 0.845432
v 0.113033 -0.684171 0.844965
v 0.148661 -0.727347 0.795626
v 0.15574 -0.680004 0.892121
v 0.151829 -0.713932 0.849146
v 0.157976 -0.694713 0.696986
v 0.198408 -0.728532 0.734591
v 0.115859 -0.693483 0.748115
v 0.153047 -0.720555 0.741401
v 0.283587 -0.684515 0.738785
v 0.24088 -0.688682 0.691628
v 0.244434 -0.716483 0.736358
v -0.38306707 -0.09159896 0.2699852
v 0.20672977 -0.46179724 0.36634254
v 0.30391 -0.498066 0.668956
v 0.32641876 -0.54714596 0.7250031
v 0.31354 -0.474577 0.887895
v 0.331331 -0.556659 0.842236
v 0.337524 -0.478425 0.840051
v 0.319732 -0.633454 0.786428
v 0.294197 -0.618974 0.884469
v 0.315639 -0.625673 0.839496
v 0.28283 -0.632563 0.691009
v 0.308326 -0.632734 0.733956
v 0.24832344 0.7474325 -0.1880176
v -0.248642 -0.724519 0.790895
v 0.0774719 -0.570173 0.85133
v 0.0969194 -0.478778 0.897495
v 0.06405592 -0.43362454 0.8518009
v 0.106684 -0.534636 0.682874
v 0.083367944 -0.58976126 0.7393601
v 0.069956 -0.47422 0.735292
v -0.27891612 0.11098385 0.38349915
v 0.0840444 -0.64607 0.797118
v 0.119063 -0.647679 0.702012
v 0.0943475 -0.648249 0.746058
v 0.112805 -0.624088 0.888986
v 0.0899111 -0.634521 0.847274
v 0.252371 -0.581833 0.652832
v 0.208287 -0.52835 0.637223
v 0.260651 -0.513618 0.642398
v 0.20034 -0.651356 0.660475
v 0.244653 -0.641994 0.666514
v 0.15335 -0.595644 0.66033
v 0.156436 -0.650983 0.672896
v 0.153645 -0.534978 0.650489
v 0.149543 -0.554429 0.922812
v -0.23584425 0.12012869 0.6991863
v -0.38177603 -0.28872252 0.09931636
v 0.203436 -0.628169 0.923071
v 0.153584 -0.625261 0.914716
v 0.262868 -0.552296 0.920108
v 0.253551 -0.622939 0.912658
v 0.27141 -0.45184326 0.9142208
v 0.348561 -0.464054 0.158716
v 0.37301362 -0.51828384 0.09612179
v 0.387436 -0.440321 0.0296682
v -0.430349 0.658277 -0.154382
v 0.368236 -0.614976 0.0306267
v 0.325558 -0.615423 0.139592
v 0.354786 -0.614851 0.0904298
v 0.340742 -0.597899 -0.0798229
v 0.378455 -0.525308 -0.0356201
v 0.364087 -0.605614 -0.0296813
v 0.354445 -0.427851 -0.0878125
v 0.38031912 -0.4028734 -0.037208796
v 0.24572343 -0.5228277 -0.12406034
v 0.182701 -0.527846 -0.109937
v 0.12704 -0.448099 -0.0735785
v 0.179139 -0.436248 -0.106528
v 0.304443 -0.521287 -0.117606
v 0.305291 -0.427537 -0.115465
v 0.241923 -0.609859 -0.117359
v 0.296601 -0.602967 -0.109127
v 0.141316 -0.607217 -0.0730372
v 0.186967 -0.607615 -0.104287
v 0.148115 -0.512563 0.149929
v 0.188536 -0.577394 0.174934
v 0.25113 -0.502745 0.197094
v 0.196177 -0.511769 0.183546
v 0.233064 -0.638226 0.175543
v 0.145237 -0.635178 0.13052
v 0.185474 -0.638484 0.162245
v 0.293784 -0.559568 0.181063
v 0.282371 -0.626877 0.167977
v 0.304357 -0.484216 0.189956
v 0.105712 -0.548895 -0.0268432
v 0.09750518 -0.43677476 0.035351664
v 0.096809775 -0.40841827 -0.021042354
v -0.17171192 -0.22718191 -0.14426184
v 0.106751 -0.633108 0.0275567
v 0.114552 -0.619641 -0.0267392
v 0.113288 -0.573273 0.0910993
v 0.117988 -0.635837 0.0828
v 0.112515 -0.451919 0.0935688
v 0.115559 -0.506404 0.0968639
v 0.271184 0.525759 -0.460079
v -0.1813631 0.07535553 0.8724327
v 0.32839748 0.35359123 -0.40202355
v 0.291391 0.478507 -0.418527
v 0.278055 0.600765 -0.320108
v 0.282659 0.5291989 -0.26291513
v -0.271184 0.525759 -0.460079
v 0.27859628 0.55535465 -0.34227037
v 0.247008 0.54474 -0.114114
v 0.271214 0.498067 -0.167977
v 0.277875 0.55689 -0.190965
v 0.271665 0.531425 -0.180446
v 0.298509 0.427522 -0.236282
v -0.034461975 -0.20327377 0.96954536
v 0.272045 0.45855 -0.143225
v 0.317802 0.38717 -0.32759
v -0.0344822 0.159128 0.852718
v 0.267679 0.610284 -0.129549
v 0.326452 0.645309 -0.138504
v -0.053651154 -0.38814163 -0.007854462
v 0.258116 0.645451 -0.13607
v 0.289471 0.569074 -0.162469
v 0.324346 0.587714 -0.15672
v 0.239082 0.578957 -0.111996
v 0.279361 0.583208 -0.137022
v 0.401583 0.612716 -0.19176
v 0.380321 0.61857 -0.152413
v 0.228719 0.759482 -0.24458647
v 0.367842 0.597467 -0.17194
v 0.388682 0.680406 -0.144893
v 0.430349 0.658277 -0.154382
v 0.384792 0.647908 -0.143704
v 0.294439 0.591849 -0.266039
v 0.33711308 0.59185576 -0.23653984
v 0.294318 0.572729 -0.209871
v 0.28588 0.662049 -0.349089
v 0.312606 0.638668 -0.319124
v 0.290372 0.624108 -0.317788
v 0.375881 0.662505 -0.310821
v 0.343967 0.620068 -0.286887
v 0.3568611 0.68244267 -0.32887936
v 0.34177 0.649107 -0.318477
v 0.380591 0.614582 -0.245535
v -0.113033 -0.684171 0.844965
v 0.393743 0.706765 -0.3123
v 0.444197 0.711394 -0.263256
v 0.419572 0.658706 -0.261892
v 0.412958 0.685943 -0.291128
v 0.452589 0.744444 -0.206816
v 0.471552 0.708579 -0.199184
v 0.43241 0.746455 -0.258303
v 0.460792 0.730831 -0.231063
v 0.447289 0.655956 -0.196803
v 0.447397 0.702392 -0.15815
v 0.460337 0.681448 -0.17325
v 0.417303 0.633713 -0.225256
v -0.12445736 -0.46696937 0.59661484
v 0.040073395 0.3229301 0.19882774
v -0.401583 0.612716 -0.19176
v -0.21023035 0.72369766 -0.42163563
v -0.0504326 0.666442 -0.034872
v 0.37536 0.738148 -0.30116
v 0.07981968 0.31282616 0.26586533
v -0.452589 0.744444 -0.206816
v 0.046056747 -0.27400208 0.94221497
v 0.12694806 0.31228447 0.23926735
v -0.104904 -0.328487 0.922781
v 0.21544 0.938681 -0.279423
v -0.175009 0.248965 0.00116269
v 0.13501453 0.31013846 0.13004684
v -0.288217 -0.679435 0.838379
v 0.037371755 0.22641426 0.5480881
v -0.17468882 -0.48121023 0.3566761
v -0.252363 0.682167 -0.15033
v -0.148115 -0.512563 0.149929
v 0.058896594 0.2179383 0.699152
v 0.10808849 0.7829933 -0.18060875
v -0.029748201 0.2493372 0.43821716
v -0.274846 -0.418754 0.252658
v -0.227222 0.886884 -0.273083
v -0.08322334 0.123737335 0.8827591
v 0.0705061 -0.461083 0.663389
v 0.111325 0.219111 0.491389
v 0.2372487 -0.4374855 0.4233608
v -0.019037008 0.20665073 0.76358414
v -0.231211 -0.430966 0.245486
v -0.16606522 -0.27837753 0.9310703
v 0.050909996 0.2043581 0.7589493
v 0.049518585 0.12909317 0.8873787
v -0.268509 -0.018423 0.854481
v 0.015537262 0.16265869 0.8512459
v -0.2099 -0.457622 0.202318
v 0.08777428 0.16634083 0.8254738
v 0.115140915 0.11559296 0.87687683
v 0.051628113 -0.2130661 0.9650612
v 0.104202 0.191409 0.755412
v -0.20041084 -0.10407257 -0.1575222
v -0.173937 0.295795 0.151795
v 0.0619855 -0.419454 0.0516405
v -0.331012 0.0171674 0.0389716
v -0.0012328029 -0.4190359 0.021827698
v -0.3219303 0.083904386 0.14784908
v 0.053697824 -0.38823318 -0.0077114105
v -0.046957374 0.12070167 -0.30341142
v 0.17395377 0.875144 -0.33069074
v 0.0804386 -0.407577 0.025012
v 0.0781392 -0.343402 -0.0680291
v 0.0771327 -0.378765 -0.022981
v 0.101981 -0.43742 0.118873
v 0.0918712 -0.426509 0.0746889
v 0.20917442 0.76455635 -0.24276096
v 0.0149858 -0.37968445 0.8389282
v 0.032518 -0.377955 0.851217
v -0.157976 -0.694713 0.696986
v -0.20157051 0.5675106 -0.07055855
v -0.334716 -0.360298 0.654176
v -0.271214 0.498067 -0.167977
v 0.126096 0.69557 -0.127071
v -0.40658998 0.73561 -0.17331338
v 0.0473693 -0.423079 0.799815
v 0.0641499 -0.454693 0.696538
v 0.0543417 -0.44245 0.745122
v 0.0576974 -0.360469 0.893822
v 0.0495204 -0.395304 0.851292
v -0.233667 -0.718383 -0.0394682
v 0.0089536905 -0.073092006 1.0030248
v 0.08711624 0.29907227 0.31751442
v 0.12803888 0.80149126 -0.37458992
v 0.05828345 0.24665642 0.44308853
v -0.282371 -0.626877 0.167977
v 0.182724 -0.45582008 0.5353966
v 0.11444521 0.23685074 0.4387436
v -0.226436 0.912723 -0.26973
v 0.12814617 0.2936883 0.3144226
v -0.03193921 0.33780736 0.048735857
v 0.03130564 0.32920963 0.074775696
v 0.084777 0.331134 0.0392602
v -0.380321 0.61857 -0.152413
v 0.0436281 0.336529 0.047541
v -0.210129 0.15949 -0.56385
v -0.30391 -0.498066 0.668956
v -0.016132355 0.80122375 -0.41458416
v 0.123312674 0.30967024 0.04989153
v -0.0804386 -0.407577 0.025012
v 0.12668121 0.33709994 0.009584218
v 0.120968 0.319807 0.0225689
v 0 0.450581 0.0596803
v 0.058383875 0.4403053 0.05503957
v 0.058757782 -0.46473122 0.64666176
v 0.0632284 0.496693 0.0522852
v -0.014268875 -0.47879028 0.6187134
v -0.06114793 -0.51151085 0.52760696
v -0.02393949 0.2217915 0.7049923
v 0.044363737 0.3522643 0.036401927
v -0.12668109 0.33709985 0.009584248
v -0.174532 -0.282877 -0.121531
v 0.18104 0.470039 0.00485434
v 0.16653165 0.42149752 0.013534069
v -0.173109 0.951035 -0.277835
v -0.227442 -0.724741 0.0933852
v 0.112630844 0.5125427 -0.5560703
v -0.417303 0.633713 -0.225256
v -0.3369851 -0.03240037 0.004807472
v 0.07307005 0.7615738 -0.44626904
v 0.08023834 0.7004242 -0.48046112
v -0.378455 -0.525308 -0.0356201
v -0.244434 -0.716483 0.736358
v 0.199905 0.685497 -0.462496
v 0.166183 0.68143463 -0.47561836
v 0.150533 0.744043 -0.44196
v -0.141316 -0.607217 -0.0730372
v 0.20028877 0.49150467 -0.5490017
v 0.232047 0.565216 -0.501918
v 0.188173 0.564066 -0.51907
v 0.13486515 0.91258365 -0.23392081
v -0.20629382 0.8602445 -0.3187437
v -0.06350899 -0.18373442 -0.1975081
v -0.2128213 0.84183943 -0.25065285
v 0.16811964 0.903376 -0.22266164
v 0.12106991 0.45181274 -0.5925293
v -0.339263 -0.356428 0.715872
v -0.0007661581 0.65369797 -0.010290146
v -0.12326552 0.30968976 0.04983127
v 0.277858 0.727498 -0.319523
v -0.277858 0.727498 -0.319523
v 0.19965696 0.37789726 -0.63297653
v -0.34005958 -0.3296137 0.76582336
v -0.156119 -0.458526 0.595789
v -0.032564163 -0.090344906 1.0230184
v -0.076927364 0.81716466 -0.36862803
v -0.0632284 0.496693 0.0522852
v 0.030304909 -0.3077011 0.92139816
v -0.28265893 0.52919954 -0.2629156
v -0.19347572 0.23547912 0.031417847
v 0.15154934 -0.48514462 0.5292549
v 0.0688023 -0.319918 0.921674
v -0.291897 -0.0177918 0.816142
v -0.148661 -0.727347 0.795626
v -0.0041775703 -0.32593918 -0.100112915
v -0.33315253 0.0075149536 0.43086052
v 0.043812275 -0.3162613 -0.10307312
v -0.0449537 0.11665 -0.27594
v -0.0638504 -0.4657526 0.6410179
v 0.04119754 -0.23906898 -0.17225075
v -0.177314 0.204818 -0.0510199
v -0.176383 -0.34915 -0.10631
v -0.314639 0.343639 -0.292523
v 0.0878074 -0.176513 -0.193941
v 0.0840611 -0.222685 -0.173847
v 0.0796433 -0.304819 -0.108871
v -0.033712387 -0.121032715 -0.2156434
v -0.176191 -0.716151 0.0857864
v -0.136631 -0.686121 0.0787634
v 0.040480614 -0.11974335 -0.2146802
v 0.409429 0.752424 -0.202781
v 0.390758 0.753705 -0.27032
v -0.019717157 0.23064512 0.51031923
v -0.176258 0.119186 -0.482359
v -0.33529162 -0.26952934 0.76029396
v 0.115674 0.055105 -0.187883
v 0.15569544 0.8043063 -0.21789247
v 0.11996651 -0.15564823 -0.18972111
v 0 0.0779149 -0.251636
v 0.0428926 0.103386 -0.257977
v 0.0803711 0.0844567 -0.225271
v 0.0406901 0.0790388 -0.244814
v 0.18183726 0.80465555 -0.2291035
v 0.0884331 0.12573 -0.258533
v 0 0.114136 -0.282485
v 0.0449537 0.11665 -0.27594
v 0.120922 0.124855 -0.209363
v 0.12860993 0.91611266 -0.26447558
v 0.128964 0.142918 -0.232488
v 0.118034 0.096215 -0.193935
v -0.259412 0.1698 -0.542722
v 0.258236 0.693552 -0.356883
v 0.09327984 0.13044733 -0.28997755
v -0.295245 0.436762 -0.484187
v 0.101766765 0.10285986 -0.44970557
v 0.089726925 0.10393825 -0.40205026
v -0.08712959 0.21234912 0.6943226
v -0.26422 0.274293 -0.228207
v 0.17418802 0.12176615 -0.3963318
v 0.16045 0.112915 -0.441079
v -0.0781392 -0.343402 -0.0680291
v 0.13936573 0.14898932 -0.2677536
v -0.052942872 0.10906468 -0.49461985
v 0.122481585 0.12740874 -0.5350356
v 0.1657691 0.6128311 -0.07862091
v 0.11214191 0.111466646 -0.49469694
v 0.13754177 0.18395424 -0.61290836
v 0.1475 0.153854 -0.575332
v 0.06505382 0.15079737 -0.5797882
v -0.118034 0.096215 -0.193935
v 0.194944 0.134806 -0.523346
v 0.219301 0.191387 -0.600189
v 0.210129 0.15949 -0.56385
v 0.176258 0.119186 -0.482359
v -0.035751104 0.74077797 -0.08893967
v -0.102981 -0.465723 0.632974
v 0.154044 0.222564 -0.638941
v 0.068284035 0.21966171 -0.6434231
v 0.12649536 0.30434585 -0.6673886
v -0.138015 -0.443895 0.192281
v -0.16045 0.112915 -0.441079
v 0.213772 0.26767 -0.647803
v 0.202463 0.304851 -0.656009
v 0.21995 0.228648 -0.628685
v 0.126715 0.537337 0.0111468
v 0.0606884 0.60785 0.00104436
v 0 0.554408 0.0408567
v 0.0643107 0.550463 0.0321785
v -0.23912579 -0.3395224 -0.1179251
v 0.185308 0.513743 -0.0172354
v 0.0012111664 -0.5155277 0.5302315
v 0.20159149 0.56739235 -0.07054138
f 248 1283 1284 
f 1319 1268 330 
f 748 738 737 
f 753 737 738 
f 792 794 23 
f 193 740 190 
f 450 1463 336 
f 1274 193 753 
f 745 746 191 
f 744 191 746 
f 1087 1085 1081 
f 107 940 121 
f 39 176 1358 
f 737 750 748 
f 191 749 745 
f 750 745 749 
f 752 753 751 
f 350 1338 346 
f 1319 1317 894 
f 1282 180 119 
f 195 756 755 
f 758 755 756 
f 751 757 752 
f 758 752 757 
f 759 196 762 
f 760 762 196 
f 761 762 195 
f 756 195 762 
f 861 1274 753 
f 497 76 407 
f 196 861 760 
f 728 329 965 
f 769 765 766 
f 198 766 765 
f 768 769 201 
f 767 201 769 
f 776 773 199 
f 770 199 773 
f 772 773 198 
f 766 198 773 
f 23 793 1410 
f 931 975 932 
f 56 1220 1221 
f 1222 1221 1220 
f 201 767 787 
f 780 787 767 
f 786 780 791 
f 775 791 780 
f 783 993 781 
f 24 1323 1008 
f 501 536 11 
f 1392 1294 1419 
f 660 452 709 
f 1289 1291 1293 
f 781 787 783 
f 786 783 787 
f 786 791 204 
f 775 204 791 
f 230 470 1422 
f 112 1349 658 
f 993 783 792 
f 794 792 783 
f 204 793 786 
f 794 786 793 
f 803 1148 2 
f 413 269 465 
f 210 1148 211 
f 695 825 325 
f 586 416 249 
f 803 800 208 
f 2 229 803 
f 922 423 97 
f 1105 49 1106 
f 1104 1106 49 
f 1002 439 444 
f 267 1333 22 
f 211 810 210 
f 808 210 810 
f 809 810 209 
f 805 209 810 
f 201 811 768 
f 1044 872 957 
f 214 1160 215 
f 811 215 1160 
f 543 896 171 
f 1390 186 927 
f 787 817 201 
f 811 201 817 
f 1403 510 154 
f 982 983 990 
f 974 1325 612 
f 1139 1138 1136 
f 215 824 214 
f 822 214 824 
f 823 824 833 
f 1041 1046 36 
f 1300 1189 1299 
f 738 748 830 
f 1410 1424 23 
f 290 1093 1092 
f 833 829 823 
f 830 823 829 
f 854 1334 424 
f 73 1345 832 
f 829 833 842 
f 1019 23 1424 
f 103 34 462 
f 986 1291 1210 
f 532 779 145 
f 224 673 694 
f 138 517 186 
f 140 648 1408 
f 1240 323 1242 
f 1411 798 747 
f 839 848 841 
f 840 841 848 
f 1162 1164 1161 
f 533 59 372 
f 898 842 841 
f 839 841 842 
f 842 845 839 
f 1005 954 1004 
f 1455 117 1408 
f 879 818 1197 
f 514 1010 605 
f 1381 71 126 
f 1201 53 1202 
f 856 839 845 
f 750 749 748 
f 817 851 852 
f 18 755 757 
f 1365 32 844 
f 845 859 856 
f 1213 1219 317 
f 852 851 859 
f 856 859 851 
f 820 212 859 
f 852 859 212 
f 581 1004 954 
f 627 832 1345 
f 787 781 817 
f 119 1265 427 
f 212 817 852 
f 10 1299 1189 
f 225 862 864 
f 1095 1092 1093 
f 258 380 261 
f 992 176 39 
f 862 868 907 
f 865 907 868 
f 867 868 225 
f 862 225 868 
f 227 870 17 
f 1405 479 876 
f 75 94 827 
f 870 862 907 
f 864 882 2 
f 229 2 882 
f 50 1096 1098 
f 870 227 882 
f 835 1380 1332 
f 8 229 878 
f 232 886 878 
f 1358 1359 39 
f 480 183 338 
f 695 549 515 
f 1231 1235 1229 
f 882 878 229 
f 249 175 586 
f 364 1345 1040 
f 605 704 550 
f 1344 348 1329 
f 888 886 232 
f 866 653 714 
f 1221 1245 56 
f 1260 22 1333 
f 78 1302 341 
f 233 841 840 
f 1102 47 1103 
f 147 869 1428 
f 4 307 465 
f 1193 1196 1206 
f 777 766 776 
f 841 233 888 
f 457 167 151 
f 620 613 678 
f 143 1040 1345 
f 131 1003 1288 
f 954 675 581 
f 585 584 124 
f 266 678 613 
f 1366 451 733 
f 829 906 830 
f 323 1240 1243 
f 145 557 532 
f 134 5 1431 
f 788 636 899 
f 1121 297 1132 
f 1340 71 1338 
f 906 829 907 
f 399 89 1318 
f 871 837 642 
f 172 151 167 
f 1309 505 836 
f 1056 1060 276 
f 751 906 757 
f 907 865 906 
f 1245 1243 1240 
f 1020 268 1022 
f 1169 1170 46 
f 1016 910 975 
f 443 1108 98 
f 238 915 914 
f 917 914 915 
f 917 910 916 
f 1185 308 1186 
f 918 239 921 
f 919 921 239 
f 920 921 238 
f 915 238 921 
f 742 1378 352 
f 444 190 1108 
f 239 932 919 
f 975 919 932 
f 383 590 371 
f 335 158 816 
f 926 245 958 
f 936 958 245 
f 968 489 1350 
f 891 586 175 
f 978 931 926 
f 932 926 931 
f 938 918 243 
f 21 243 918 
f 381 1439 360 
f 573 1350 489 
f 938 936 245 
f 1117 49 1137 
f 966 162 1010 
f 615 304 142 
f 471 236 1007 
f 821 714 653 
f 227 232 882 
f 246 941 952 
f 945 946 964 
f 28 964 946 
f 506 676 731 
f 1239 1242 55 
f 184 674 939 
f 248 941 951 
f 1370 719 1351 
f 951 945 964 
f 1255 1204 496 
f 1100 1103 47 
f 746 745 190 
f 581 675 421 
f 955 958 936 
f 1386 1313 809 
f 1233 1246 57 
f 781 999 817 
f 464 1444 644 
f 200 9 351 
f 1105 1137 49 
f 1256 1248 1253 
f 213 663 981 
f 469 465 269 
f 963 964 959 
f 955 959 964 
f 204 1410 793 
f 144 563 351 
f 17 907 898 
f 858 481 139 
f 848 972 840 
f 1009 840 972 
f 411 492 1252 
f 160 890 892 
f 1356 371 590 
f 799 111 1306 
f 1461 126 71 
f 772 1164 12 
f 586 891 838 
f 144 9 814 
f 704 605 1010 
f 931 972 975 
f 30 173 240 
f 1172 306 1174 
f 255 156 884 
f 843 816 158 
f 983 982 257 
f 979 257 982 
f 141 819 436 
f 851 1016 1013 
f 1177 1175 1172 
f 246 983 946 
f 345 120 508 
f 1324 21 1256 
f 378 85 996 
f 534 426 312 
f 1360 39 1359 
f 987 983 246 
f 886 982 878 
f 990 878 982 
f 990 987 989 
f 86 844 32 
f 991 260 994 
f 918 938 239 
f 792 994 993 
f 824 820 845 
f 916 910 998 
f 893 155 962 
f 245 239 938 
f 998 260 1032 
f 7 522 129 
f 1276 1282 928 
f 3 782 1267 
f 1053 470 885 
f 543 161 889 
f 515 150 708 
f 413 465 80 
f 648 687 715 
f 370 1415 1414 
f 802 1042 521 
f 28 257 958 
f 119 1454 928 
f 1389 621 640 
f 930 403 119 
f 552 980 269 
f 64 200 644 
f 356 131 1373 
f 337 467 795 
f 840 1009 233 
f 979 233 1009 
f 880 909 392 
f 977 958 257 
f 6 1373 131 
f 537 801 454 
f 997 104 806 
f 1013 856 851 
f 127 1306 111 
f 38 1072 1073 
f 380 344 412 
f 999 998 851 
f 737 193 750 
f 573 1315 724 
f 557 145 935 
f 986 1293 1291 
f 89 102 813 
f 1016 851 998 
f 1013 975 972 
f 740 1108 190 
f 1435 121 524 
f 1406 680 1241 
f 1019 265 1022 
f 1020 1022 265 
f 1022 1021 991 
f 260 991 1021 
f 1023 1035 1026 
f 1024 1026 1035 
f 1025 1026 265 
f 1020 265 1026 
f 1030 1027 1028 
f 267 1028 1027 
f 1035 1029 1024 
f 1030 1024 1029 
f 1021 1032 260 
f 1032 1021 1028 
f 1028 267 1032 
f 1456 377 1457 
f 1049 1034 1033 
f 1023 1033 1034 
f 734 691 1031 
f 642 594 1320 
f 1038 1039 270 
f 1037 270 1039 
f 252 454 1387 
f 1034 1049 1039 
f 42 1068 1070 
f 114 1437 1429 
f 270 1043 1038 
f 1046 1038 1043 
f 363 1320 594 
f 1029 1035 1046 
f 904 1270 451 
f 1045 1046 1041 
f 978 972 931 
f 831 774 1143 
f 1033 1048 1049 
f 150 515 549 
f 274 1052 40 
f 1054 40 1052 
f 1047 1433 1048 
f 1054 1048 1433 
f 1056 1058 275 
f 1055 275 1058 
f 1057 1058 274 
f 1052 274 1058 
f 22 1260 914 
f 1060 1039 1049 
f 275 1059 1056 
f 1060 1056 1059 
f 1061 1064 275 
f 1059 275 1064 
f 1193 1064 279 
f 1062 279 1064 
f 277 1066 1065 
f 1067 1065 1066 
f 275 1055 1061 
f 1067 1061 1055 
f 278 1069 1068 
f 1071 1068 1069 
f 1070 1071 277 
f 1066 277 1071 
f 279 1062 1072 
f 1074 1072 1062 
f 1073 1074 278 
f 1069 278 1074 
f 1076 1079 281 
f 1075 281 1079 
f 1077 284 1079 
f 1078 1079 284 
f 1081 1083 282 
f 1080 282 1083 
f 281 1082 1076 
f 1083 1076 1082 
f 283 1085 1084 
f 1087 1084 1085 
f 282 1086 1081 
f 1087 1081 1086 
f 284 1077 1088 
f 1090 1088 1077 
f 1090 1085 1089 
f 283 1089 1085 
f 1092 1095 286 
f 1091 286 1095 
f 1095 1093 1094 
f 289 1094 1093 
f 1097 1099 287 
f 1096 287 1099 
f 286 1098 1092 
f 1099 1092 1098 
f 288 1101 1100 
f 1103 1100 1101 
f 287 1102 1097 
f 1103 1097 1102 
f 289 1093 1104 
f 1106 1104 1093 
f 1101 288 1106 
f 1105 1106 288 
f 1323 1270 960 
f 1110 867 225 
f 292 1109 1110 
f 1157 302 1158 
f 1112 1113 291 
f 1111 291 1113 
f 864 1113 225 
f 1380 835 834 
f 289 1114 1094 
f 1116 1094 1114 
f 291 1115 1112 
f 1116 1112 1115 
f 1110 1118 292 
f 1117 292 1118 
f 289 1104 1114 
f 1118 1114 1104 
f 1403 154 1402 
f 185 985 520 
f 1122 1123 296 
f 1121 296 1123 
f 1402 1350 724 
f 295 1125 1124 
f 459 1402 154 
f 1125 294 1126 
f 1128 1130 287 
f 1102 287 1130 
f 295 1129 1125 
f 1130 1125 1129 
f 296 1121 1131 
f 1132 1131 1121 
f 287 1096 1128 
f 1132 1128 1096 
f 1133 1135 292 
f 1109 292 1135 
f 755 1135 195 
f 1134 195 1135 
f 288 1136 1105 
f 1137 1105 1136 
f 292 1117 1133 
f 1137 1133 1117 
f 295 1138 1129 
f 1139 1129 1138 
f 1136 288 1139 
f 1100 1139 288 
f 195 1134 761 
f 1140 761 1134 
f 295 1124 1138 
f 1140 1138 1124 
f 808 1122 1141 
f 296 1141 1122 
f 1301 106 696 
f 210 808 299 
f 1144 1145 286 
f 1098 286 1145 
f 1141 296 1145 
f 1131 1145 296 
f 291 1146 1115 
f 1147 1115 1146 
f 286 1091 1144 
f 1147 1144 1091 
f 299 1148 210 
f 1079 1076 1077 
f 1146 291 1148 
f 1111 1148 291 
f 300 1150 1149 
f 306 1172 1175 
f 214 822 1151 
f 1150 1151 822 
f 1153 1155 281 
f 1082 281 1155 
f 1150 300 1155 
f 1154 1155 300 
f 301 1157 1156 
f 1158 1156 1157 
f 281 1075 1153 
f 1158 1153 1075 
f 1151 1160 214 
f 888 17 898 
f 1157 301 1160 
f 1159 1160 301 
f 198 1161 772 
f 1164 772 1161 
f 1164 1162 1163 
f 303 1163 1162 
f 1165 1166 301 
f 1159 301 1166 
f 765 1166 198 
f 1161 198 1166 
f 284 1167 1078 
f 1168 1078 1167 
f 301 1156 1165 
f 1168 1165 1156 
f 1162 1170 303 
f 1169 303 1170 
f 1167 284 1170 
f 1088 1170 284 
f 305 1172 1171 
f 1174 1171 1172 
f 191 744 1173 
f 1174 1173 744 
f 1175 1177 282 
f 1086 282 1177 
f 1176 1177 305 
f 1172 305 1177 
f 300 1178 1154 
f 1179 1154 1178 
f 282 1080 1175 
f 1179 1175 1080 
f 1173 1180 191 
f 749 191 1180 
f 1149 1180 300 
f 1178 300 1180 
f 1181 1183 303 
f 1163 303 1183 
f 728 1 966 
f 1196 1200 1203 
f 283 1185 1089 
f 1186 1089 1185 
f 303 1169 1181 
f 1186 1181 1169 
f 305 1187 1176 
f 1188 1176 1187 
f 283 1084 1185 
f 1188 1185 1084 
f 888 898 841 
f 1190 1189 1182 
f 1171 1190 305 
f 1187 305 1190 
f 1198 1194 309 
f 1191 309 1194 
f 1072 1194 279 
f 1193 279 1194 
f 1195 310 1198 
f 1196 1198 310 
f 1028 268 1030 
f 1014 1198 309 
f 1202 1199 1200 
f 311 1200 1199 
f 310 1201 1196 
f 1202 1196 1201 
f 1203 1205 270 
f 1043 270 1205 
f 1200 311 1205 
f 559 634 564 
f 810 809 808 
f 20 808 809 
f 270 1037 1203 
f 1206 1203 1037 
f 1208 1211 313 
f 396 313 1211 
f 231 1211 316 
f 1209 316 1211 
f 314 1213 1212 
f 1215 1212 1213 
f 313 1214 1208 
f 1215 1208 1214 
f 315 1217 1216 
f 1219 1216 1217 
f 1219 1213 314 
f 651 264 1305 
f 1209 1222 316 
f 1220 316 1222 
f 1221 1222 315 
f 1217 315 1222 
f 1223 1225 310 
f 1201 310 1225 
f 1212 1225 314 
f 1224 314 1225 
f 318 1227 1226 
f 1228 1226 1227 
f 1228 1223 1195 
f 310 1195 1223 
f 1230 1232 319 
f 1229 319 1232 
f 1231 1232 318 
f 1227 318 1232 
f 1236 1242 323 
f 716 732 1453 
f 319 1233 1230 
f 1224 1230 1233 
f 1236 1238 321 
f 1235 321 1238 
f 1237 319 1238 
f 1229 1238 319 
f 322 1240 1239 
f 1242 1239 1240 
f 321 1241 1236 
f 1242 1236 1241 
f 315 1243 1221 
f 1245 1221 1243 
f 1240 322 1245 
f 1244 1245 322 
f 319 1237 1233 
f 1246 1233 1237 
f 1246 1243 1216 
f 315 1216 1243 
f 661 516 158 
f 625 623 624 
f 326 1326 1256 
f 1248 1256 1326 
f 949 1197 1428 
f 501 1184 875 
f 826 1253 614 
f 1248 614 1253 
f 238 1256 920 
f 753 760 861 
f 1317 1324 1253 
f 1256 1253 1324 
f 1256 1260 326 
f 504 718 100 
f 914 1260 238 
f 1256 238 1260 
f 721 735 251 
f 328 1262 1407 
f 1090 1077 1085 
f 1262 331 330 
f 13 761 1124 
f 1216 1219 57 
f 285 1077 1076 
f 406 992 1360 
f 959 331 963 
f 1227 320 1228 
f 131 1288 6 
f 977 1009 972 
f 1094 44 1095 
f 1273 330 331 
f 64 644 1444 
f 1015 962 596 
f 1278 1275 332 
f 184 939 901 
f 1372 379 72 
f 379 1460 360 
f 1283 1281 1279 
f 299 1141 1144 
f 717 254 152 
f 1382 1386 1255 
f 10 744 746 
f 193 190 745 
f 1279 1284 1283 
f 984 94 189 
f 963 1266 1286 
f 1278 1286 1266 
f 951 1286 248 
f 1283 248 1286 
f 600 425 355 
f 1165 1168 1161 
f 61 244 1289 
f 1291 1289 244 
f 1293 986 1391 
f 241 525 1258 
f 93 355 425 
f 150 549 1425 
f 1298 1183 1296 
f 1182 1296 1183 
f 1298 1293 1297 
f 1391 1297 1293 
f 1289 1300 61 
f 1299 61 1300 
f 1296 1182 1300 
f 1189 1300 1182 
f 1059 37 1060 
f 77 1191 1363 
f 332 1283 1278 
f 1303 341 1302 
f 1273 33 1322 
f 663 944 564 
f 168 531 485 
f 133 74 1302 
f 1310 1312 294 
f 1126 294 1312 
f 243 1322 33 
f 1311 1312 340 
f 341 1303 1313 
f 1314 1313 1303 
f 294 1123 1310 
f 1314 1310 1123 
f 119 427 930 
f 854 930 427 
f 424 1291 244 
f 311 1464 36 
f 1089 46 1090 
f 285 1085 1077 
f 1462 1459 1460 
f 543 650 896 
f 496 743 1255 
f 1138 1140 298 
f 1322 1319 1273 
f 330 1273 1319 
f 1347 36 1464 
f 1464 1466 1459 
f 21 1324 243 
f 1322 243 1324 
f 43 1075 1078 
f 1329 1325 1326 
f 346 1344 1327 
f 1329 1327 1344 
f 672 973 988 
f 438 702 812 
f 619 1288 1003 
f 1441 1443 435 
f 1217 317 1219 
f 1136 298 1137 
f 1361 962 155 
f 1333 326 1260 
f 1335 346 1336 
f 1327 1336 346 
f 1027 1336 267 
f 1333 267 1336 
f 1129 47 1130 
f 348 1338 1337 
f 349 1340 350 
f 1338 350 1340 
f 1125 1126 1124 
f 573 724 1350 
f 1338 348 1344 
f 1182 308 1190 
f 1041 1348 1045 
f 1335 1045 1348 
f 765 768 1166 
f 13 1124 1126 
f 349 350 1347 
f 1348 1347 350 
f 1440 1429 1437 
f 1327 1329 326 
f 1351 59 1355 
f 533 1355 59 
f 53 1201 1212 
f 788 408 1301 
f 268 1028 1021 
f 1301 739 597 
f 630 971 111 
f 15 708 150 
f 353 1359 1358 
f 1225 1223 1224 
f 1354 1360 1355 
f 1359 1355 1360 
f 1225 1212 1201 
f 1362 1351 1364 
f 1363 1364 353 
f 1359 353 1364 
f 1422 373 404 
f 681 710 506 
f 1313 1314 20 
f 1312 1310 340 
f 20 809 1313 
f 1071 1070 1068 
f 266 719 358 
f 1370 358 719 
f 1362 1073 1376 
f 278 1376 1073 
f 1351 1362 1370 
f 22 1032 267 
f 358 1376 357 
f 42 357 1376 
f 278 1068 1376 
f 328 1266 1262 
f 1285 1204 1255 
f 453 551 1316 
f 1181 1186 308 
f 462 1285 805 
f 763 312 587 
f 381 360 1460 
f 1328 722 605 
f 461 1002 686 
f 1101 290 1103 
f 1386 809 209 
f 1382 341 1386 
f 1313 1386 341 
f 947 146 441 
f 1397 441 146 
f 805 1285 209 
f 1097 1103 290 
f 900 697 652 
f 1389 362 1391 
f 51 1226 1195 
f 6 90 612 
f 545 696 106 
f 1184 501 436 
f 487 151 172 
f 1170 1162 1167 
f 1394 1399 199 
f 776 199 1399 
f 1398 1399 58 
f 1394 58 1399 
f 1400 1297 1391 
f 1193 1206 37 
f 199 770 1394 
f 1400 1394 770 
f 273 630 83 
f 1401 365 1404 
f 713 83 630 
f 77 223 1014 
f 366 204 367 
f 33 936 243 
f 367 1404 365 
f 494 1432 622 
f 921 919 915 
f 1043 36 1046 
f 1410 204 366 
f 1127 118 618 
f 58 1404 1398 
f 1412 1398 1404 
f 1038 1046 272 
f 1412 204 775 
f 1414 1416 368 
f 1413 368 1416 
f 367 1416 366 
f 1415 366 1416 
f 1418 1420 1427 
f 62 1427 1420 
f 1419 1420 368 
f 1414 368 1420 
f 265 1421 1025 
f 1423 1025 1421 
f 1423 1418 1436 
f 1427 1436 1418 
f 366 1415 1410 
f 1424 1410 1415 
f 1424 1421 1019 
f 265 1019 1421 
f 68 1430 62 
f 16 822 823 
f 1202 1200 1196 
f 87 475 3 
f 1454 119 403 
f 526 106 1301 
f 213 15 1425 
f 494 146 634 
f 36 1043 311 
f 424 1210 1291 
f 1434 1433 1429 
f 1430 1429 1433 
f 1029 1045 1030 
f 1199 1202 53 
f 958 977 978 
f 1436 1433 1047 
f 1438 1440 687 
f 1437 687 1440 
f 448 706 60 
f 280 1069 1062 
f 807 805 208 
f 1443 1441 1442 
f 216 924 164 
f 687 1443 1438 
f 1445 1447 274 
f 1057 274 1447 
f 1446 1447 1441 
f 1442 1441 1447 
f 1429 1440 1434 
f 1448 1434 1440 
f 274 40 1445 
f 1448 1445 40 
f 623 625 522 
f 904 256 1368 
f 1451 1441 1452 
f 211 208 805 
f 1167 1161 1168 
f 342 340 1310 
f 178 1368 256 
f 60 686 827 
f 277 1456 1070 
f 1457 1070 1456 
f 357 42 1453 
f 1457 1453 42 
f 1446 1441 1458 
f 1451 1458 1441 
f 1065 1458 277 
f 1456 277 1458 
f 1462 1340 1459 
f 349 1459 1340 
f 1461 1462 1372 
f 1460 1372 1462 
f 1464 311 1466 
f 146 494 1397 
f 1459 349 1464 
f 1347 1464 349 
f 1439 1466 313 
f 1214 313 1466 
f 1199 1466 311 
f 859 845 820 
f 379 360 1308 
f 1439 1308 360 
f 313 396 1439 
f 1163 12 1164 
f 556 1031 691 
f 379 1372 1460 
f 314 57 1219 
f 19 701 911 
f 1363 353 77 
f 223 77 353 
f 1191 77 309 
f 1014 309 77 
f 308 1182 1181 
f 176 382 253 
f 1358 253 353 
f 223 353 253 
f 1216 57 1246 
f 1237 323 1246 
f 925 1365 844 
f 1014 382 849 
f 384 1258 378 
f 707 378 1258 
f 387 667 764 
f 707 764 667 
f 525 241 385 
f 685 385 241 
f 763 241 384 
f 1258 384 241 
f 386 101 230 
f 885 230 101 
f 385 1053 525 
f 885 525 1053 
f 764 1036 387 
f 430 387 1036 
f 101 386 1036 
f 925 1036 386 
f 70 596 427 
f 125 1051 995 
f 75 827 686 
f 696 391 1301 
f 115 480 484 
f 1009 977 979 
f 1143 616 206 
f 1369 747 798 
f 941 246 945 
f 87 3 86 
f 612 923 1373 
f 452 177 709 
f 391 739 1301 
f 381 1460 1459 
f 1417 397 1411 
f 739 391 355 
f 193 1274 740 
f 23 1019 991 
f 597 1411 788 
f 1082 48 1083 
f 747 86 636 
f 833 824 842 
f 205 145 779 
f 1127 344 698 
f 849 51 1014 
f 3 1267 636 
f 1341 1465 1339 
f 1088 1090 46 
f 1080 1083 48 
f 1088 46 1170 
f 513 828 948 
f 1267 899 636 
f 1151 1150 302 
f 1205 1203 1200 
f 257 979 977 
f 66 89 399 
f 144 726 563 
f 197 390 556 
f 1119 876 479 
f 192 399 417 
f 172 87 487 
f 142 540 615 
f 1259 197 1395 
f 458 174 934 
f 52 477 442 
f 17 888 227 
f 139 507 1018 
f 849 176 545 
f 953 866 159 
f 1447 1445 1442 
f 780 767 775 
f 999 781 993 
f 1317 826 894 
f 994 260 993 
f 53 1214 1199 
f 1447 1446 1057 
f 712 694 961 
f 516 421 675 
f 92 19 155 
f 1 778 162 
f 1142 538 473 
f 556 1395 197 
f 1044 414 903 
f 1061 1067 280 
f 855 1349 169 
f 608 965 329 
f 1458 1065 1446 
f 1203 1206 1196 
f 946 983 28 
f 1301 597 788 
f 1150 822 1149 
f 23 991 792 
f 479 408 899 
f 1453 1457 377 
f 899 408 788 
f 420 417 1318 
f 41 1446 1065 
f 377 1456 1451 
f 246 952 987 
f 600 426 996 
f 71 1340 1461 
f 1301 1218 526 
f 1374 410 526 
f 106 526 410 
f 408 479 1218 
f 1107 774 236 
f 1458 1451 1456 
f 492 526 1218 
f 1252 1406 321 
f 1241 321 1406 
f 680 1406 95 
f 492 95 1406 
f 318 529 1231 
f 202 1231 529 
f 321 1235 1252 
f 202 1252 1235 
f 1374 529 410 
f 1426 410 529 
f 1226 529 318 
f 175 352 725 
f 883 29 887 
f 994 792 991 
f 899 1119 479 
f 631 372 59 
f 1131 50 1145 
f 316 528 231 
f 231 1119 396 
f 899 396 1119 
f 322 876 1244 
f 528 1244 876 
f 964 963 951 
f 316 1220 528 
f 1405 680 479 
f 95 479 680 
f 322 1239 876 
f 1405 876 1239 
f 458 987 952 
f 950 563 726 
f 95 1218 479 
f 949 947 546 
f 730 203 469 
f 1040 143 390 
f 37 1059 1193 
f 950 564 944 
f 415 475 87 
f 1064 1061 1062 
f 1055 41 1067 
f 218 1307 105 
f 782 54 379 
f 592 911 701 
f 970 54 415 
f 475 415 54 
f 1161 1167 1162 
f 899 1267 396 
f 379 1308 782 
f 1267 782 1308 
f 38 1073 1362 
f 358 357 266 
f 915 919 917 
f 268 1020 1024 
f 554 560 814 
f 1442 1438 1443 
f 420 419 417 
f 969 417 419 
f 1318 417 399 
f 1432 814 560 
f 790 304 894 
f 1319 1322 1317 
f 1290 116 1353 
f 1180 1173 1178 
f 568 873 499 
f 234 424 244 
f 400 406 1354 
f 1360 1354 406 
f 992 406 813 
f 1318 813 406 
f 419 420 1332 
f 400 1332 420 
f 548 455 110 
f 585 187 668 
f 1383 105 1307 
f 487 87 32 
f 37 1037 1039 
f 546 688 512 
f 133 1302 78 
f 209 1255 1386 
f 440 121 693 
f 665 681 847 
f 509 404 417 
f 1284 952 248 
f 758 757 755 
f 167 939 172 
f 707 667 378 
f 160 512 688 
f 1078 1168 43 
f 1277 453 718 
f 38 1191 1072 
f 176 992 813 
f 41 1055 1057 
f 413 179 174 
f 336 592 254 
f 813 102 545 
f 493 1353 116 
f 988 152 254 
f 1159 1166 768 
f 106 410 545 
f 696 545 102 
f 448 553 1263 
f 176 849 382 
f 848 839 856 
f 1426 849 410 
f 545 410 849 
f 672 1315 489 
f 92 155 27 
f 391 102 426 
f 25 426 102 
f 384 534 763 
f 312 763 534 
f 449 587 25 
f 312 25 587 
f 425 600 85 
f 996 85 600 
f 384 378 534 
f 996 534 378 
f 426 600 391 
f 355 391 600 
f 1154 48 1155 
f 887 568 708 
f 687 648 456 
f 611 815 433 
f 192 221 401 
f 215 811 212 
f 385 221 1053 
f 817 212 811 
f 373 470 221 
f 1037 37 1206 
f 449 1295 587 
f 635 587 1295 
f 385 685 221 
f 635 221 685 
f 401 221 66 
f 1295 66 221 
f 893 27 155 
f 27 724 1315 
f 389 372 631 
f 1392 626 108 
f 404 32 503 
f 1365 503 32 
f 386 503 925 
f 1365 925 503 
f 1337 71 943 
f 314 1224 57 
f 946 945 246 
f 470 373 1422 
f 503 386 1422 
f 230 1422 386 
f 118 1127 927 
f 503 1422 404 
f 795 132 1444 
f 926 932 245 
f 780 786 787 
f 397 1417 425 
f 167 434 659 
f 99 112 912 
f 387 798 667 
f 397 667 798 
f 425 85 397 
f 910 917 919 
f 956 550 704 
f 813 545 176 
f 387 430 798 
f 1369 798 430 
f 658 912 112 
f 207 169 1349 
f 747 1369 844 
f 644 108 626 
f 1321 861 196 
f 262 928 1454 
f 1274 861 98 
f 31 98 861 
f 13 874 759 
f 874 432 857 
f 857 1321 759 
f 196 759 1321 
f 472 446 31 
f 34 103 80 
f 127 1331 639 
f 857 759 874 
f 20 1123 1122 
f 1437 715 687 
f 132 521 1042 
f 98 31 446 
f 340 929 1311 
f 1272 1311 929 
f 432 874 1339 
f 1272 1339 874 
f 947 441 1383 
f 507 139 1107 
f 74 929 340 
f 800 361 179 
f 625 133 394 
f 217 451 1270 
f 178 702 937 
f 1339 929 1341 
f 568 887 29 
f 63 705 157 
f 51 849 1426 
f 1385 857 432 
f 905 157 968 
f 339 1309 369 
f 244 61 429 
f 942 1368 937 
f 1326 326 1329 
f 347 263 439 
f 863 485 531 
f 347 61 1299 
f 125 442 477 
f 55 1241 680 
f 1302 74 342 
f 690 173 834 
f 1235 1231 202 
f 461 429 61 
f 1396 121 940 
f 433 1352 611 
f 444 746 190 
f 1086 45 1087 
f 1140 1124 761 
f 263 444 439 
f 740 1274 1108 
f 98 1108 1274 
f 1084 1087 45 
f 1233 57 1224 
f 965 608 684 
f 418 1331 971 
f 1123 294 1121 
f 1391 362 1400 
f 418 249 416 
f 340 342 74 
f 127 971 1331 
f 1002 444 443 
f 802 271 689 
f 1385 31 1321 
f 1058 1056 1052 
f 1207 242 520 
f 446 472 189 
f 984 189 472 
f 94 984 1465 
f 447 1465 984 
f 810 211 805 
f 31 1385 472 
f 1106 1093 1101 
f 1135 1133 1134 
f 1339 447 432 
f 1385 432 447 
f 674 543 171 
f 525 885 388 
f 636 788 1411 
f 1399 1398 776 
f 446 189 1002 
f 686 1002 189 
f 162 491 333 
f 297 1121 294 
f 83 713 480 
f 429 461 686 
f 1251 422 324 
f 651 324 422 
f 461 439 1002 
f 913 1277 407 
f 1002 443 446 
f 290 1101 1093 
f 252 903 113 
f 242 1275 395 
f 706 234 429 
f 1330 456 140 
f 838 816 586 
f 510 1015 70 
f 1171 1174 10 
f 689 116 1384 
f 212 820 215 
f 1048 1033 1047 
f 734 814 9 
f 103 179 413 
f 251 730 754 
f 608 771 628 
f 564 950 559 
f 596 70 1015 
f 235 847 681 
f 499 708 568 
f 12 1163 1183 
f 103 807 179 
f 861 1321 31 
f 1207 474 1281 
f 208 179 807 
f 1232 1230 1227 
f 250 148 1250 
f 1144 1147 299 
f 361 800 229 
f 721 1192 903 
f 880 499 873 
f 179 208 800 
f 361 934 179 
f 1413 1416 365 
f 229 8 361 
f 399 192 401 
f 1266 1343 1278 
f 174 179 934 
f 375 137 666 
f 1353 149 502 
f 458 934 987 
f 989 987 934 
f 164 466 216 
f 1243 1246 323 
f 54 970 379 
f 878 882 232 
f 260 998 999 
f 534 996 426 
f 721 903 414 
f 334 985 185 
f 458 952 850 
f 1299 10 347 
f 25 312 426 
f 742 273 83 
f 413 174 850 
f 1346 875 1184 
f 122 897 67 
f 394 522 625 
f 1324 1317 1322 
f 544 269 980 
f 850 552 413 
f 317 1209 1208 
f 504 463 730 
f 539 100 718 
f 1284 1279 552 
f 66 399 401 
f 1267 1308 396 
f 3 475 782 
f 828 1409 797 
f 513 1007 1409 
f 832 627 943 
f 980 552 1279 
f 302 1150 1153 
f 145 205 376 
f 913 785 1257 
f 1285 551 1204 
f 1000 594 180 
f 225 293 1110 
f 16 1149 822 
f 10 746 263 
f 194 148 372 
f 276 1049 1048 
f 807 103 805 
f 462 805 103 
f 539 109 1379 
f 116 689 271 
f 76 498 490 
f 662 372 148 
f 413 80 103 
f 540 142 541 
f 1091 44 1147 
f 320 1227 1230 
f 824 215 820 
f 75 686 189 
f 409 473 134 
f 578 720 1120 
f 80 465 307 
f 1183 1181 1182 
f 18 1109 755 
f 124 1006 585 
f 109 34 307 
f 80 307 34 
f 1232 1231 1229 
f 934 361 8 
f 392 468 519 
f 649 325 825 
f 1211 1208 1209 
f 1021 1022 268 
f 717 152 371 
f 269 544 469 
f 10 1189 1171 
f 182 1356 881 
f 1214 53 1215 
f 1427 62 1430 
f 1094 1116 44 
f 980 474 26 
f 187 585 1006 
f 716 649 519 
f 1212 1215 53 
f 933 261 380 
f 81 154 510 
f 462 1316 551 
f 144 351 9 
f 1007 513 471 
f 160 892 853 
f 135 460 153 
f 1316 462 34 
f 237 944 117 
f 897 122 542 
f 440 595 1063 
f 1196 1193 1198 
f 1079 1078 1075 
f 596 1063 595 
f 8 989 934 
f 953 159 1006 
f 1248 1326 614 
f 1166 1165 1161 
f 1211 231 396 
f 652 697 512 
f 357 1453 732 
f 762 760 756 
f 1050 4 203 
f 1312 1311 1126 
f 1143 995 1051 
f 1234 1006 159 
f 1462 1461 1340 
f 1068 42 1376 
f 109 4 1050 
f 879 512 697 
f 523 506 710 
f 1176 45 1177 
f 272 1034 1038 
f 477 183 115 
f 480 115 183 
f 617 1393 1341 
f 1355 533 1354 
f 478 1269 442 
f 52 442 1269 
f 560 554 935 
f 183 477 52 
f 928 423 1276 
f 338 1276 423 
f 1282 1276 478 
f 1269 478 1276 
f 850 1284 552 
f 123 480 338 
f 423 922 338 
f 374 1413 819 
f 815 611 924 
f 87 172 674 
f 713 484 480 
f 74 359 929 
f 482 83 327 
f 480 327 83 
f 578 1120 128 
f 137 924 611 
f 273 742 483 
f 352 483 742 
f 1378 742 482 
f 83 482 742 
f 484 713 111 
f 630 111 713 
f 483 971 273 
f 630 273 971 
f 536 548 486 
f 110 486 548 
f 548 875 455 
f 1463 455 875 
f 11 637 1287 
f 508 1287 637 
f 776 1412 777 
f 637 536 486 
f 1222 1209 1217 
f 317 1217 1209 
f 830 906 738 
f 751 738 906 
f 875 1346 1463 
f 1396 1463 1346 
f 846 1346 488 
f 1184 488 1346 
f 409 541 1142 
f 118 1142 541 
f 21 918 920 
f 345 493 271 
f 337 508 467 
f 120 467 508 
f 271 521 345 
f 120 345 521 
f 1286 1278 1283 
f 408 1218 1301 
f 11 1287 337 
f 508 337 1287 
f 493 345 486 
f 508 486 345 
f 162 966 1 
f 444 263 746 
f 495 407 490 
f 76 490 407 
f 1276 338 1269 
f 660 812 256 
f 1277 913 496 
f 1257 496 913 
f 785 913 495 
f 407 495 913 
f 1131 1132 50 
f 341 1382 78 
f 1180 1149 749 
f 16 749 1149 
f 498 76 136 
f 653 860 785 
f 1050 463 1379 
f 290 1092 1097 
f 500 206 182 
f 149 182 206 
f 486 110 149 
f 327 181 354 
f 1049 276 1060 
f 1051 831 1143 
f 995 1143 500 
f 206 500 1143 
f 102 89 25 
f 88 1051 477 
f 1355 1359 1351 
f 306 1178 1173 
f 149 1353 486 
f 775 777 1412 
f 726 144 814 
f 449 25 89 
f 1443 456 435 
f 62 1419 1294 
f 659 226 167 
f 115 88 477 
f 912 658 24 
f 126 324 437 
f 458 850 174 
f 1263 699 97 
f 1074 1062 1069 
f 1110 1109 867 
f 192 404 373 
f 1071 1069 1066 
f 108 644 200 
f 715 1408 648 
f 280 1066 1069 
f 88 831 1051 
f 1107 236 507 
f 431 507 236 
f 421 796 581 
f 692 240 173 
f 325 1452 435 
f 907 829 898 
f 22 916 1032 
f 874 13 1272 
f 51 1426 1226 
f 960 1008 1323 
f 774 1107 481 
f 84 720 1388 
f 476 1444 132 
f 485 967 168 
f 671 24 658 
f 1438 1442 1445 
f 487 404 509 
f 226 901 939 
f 511 1290 82 
f 1353 82 1290 
f 502 82 1353 
f 1343 1266 328 
f 486 1353 493 
f 978 926 958 
f 578 1388 720 
f 923 612 1325 
f 616 858 502 
f 82 502 858 
f 82 858 511 
f 139 511 858 
f 666 611 1352 
f 1280 1387 872 
f 54 782 475 
f 502 206 616 
f 954 797 1377 
f 1099 1097 1092 
f 1409 828 513 
f 975 1013 1016 
f 136 828 498 
f 797 498 828 
f 1220 56 528 
f 1409 398 1377 
f 2 1148 1111 
f 872 1044 1280 
f 1377 1371 954 
f 639 954 1371 
f 1306 1371 398 
f 1377 398 1371 
f 948 228 517 
f 982 886 979 
f 872 228 136 
f 1451 1452 377 
f 1146 299 1147 
f 416 586 816 
f 471 948 517 
f 906 865 757 
f 1022 991 1019 
f 69 166 1352 
f 117 1455 237 
f 564 981 663 
f 160 688 890 
f 828 136 228 
f 1086 1177 45 
f 34 109 1316 
f 935 402 143 
f 1420 1419 62 
f 1238 1236 1237 
f 138 431 236 
f 1263 97 262 
f 1449 896 650 
f 1007 236 774 
f 454 252 537 
f 147 1197 818 
f 233 979 886 
f 703 731 177 
f 743 1257 877 
f 236 471 138 
f 4 109 307 
f 125 995 518 
f 1145 1144 1141 
f 617 929 359 
f 331 1262 1266 
f 498 797 741 
f 177 731 676 
f 398 799 1306 
f 801 927 186 
f 111 799 484 
f 1344 346 1338 
f 762 761 759 
f 594 642 837 
f 228 872 1387 
f 1244 528 56 
f 831 88 398 
f 1342 1465 1341 
f 88 115 799 
f 262 97 423 
f 170 476 1042 
f 382 1014 223 
f 127 111 971 
f 130 14 638 
f 258 219 222 
f 698 344 222 
f 132 1042 476 
f 789 116 1290 
f 219 258 527 
f 261 527 258 
f 380 258 344 
f 222 344 258 
f 619 1003 130 
f 14 130 1003 
f 527 1288 219 
f 619 219 1288 
f 86 32 87 
f 530 618 118 
f 813 1318 89 
f 110 727 182 
f 374 464 626 
f 395 520 242 
f 412 618 530 
f 1114 293 1116 
f 443 444 1108 
f 119 928 1282 
f 933 380 445 
f 412 445 380 
f 881 590 784 
f 344 1127 618 
f 99 659 434 
f 877 129 522 
f 1192 334 113 
f 1383 546 947 
f 537 113 538 
f 1418 1423 370 
f 185 535 334 
f 436 1367 1184 
f 985 334 1192 
f 1192 902 985 
f 1416 1414 1415 
f 701 254 592 
f 473 535 5 
f 453 1277 1204 
f 637 11 536 
f 538 1142 537 
f 1361 155 19 
f 473 409 1142 
f 206 502 149 
f 1362 1376 1370 
f 1255 209 1285 
f 541 530 118 
f 1296 1293 1298 
f 219 619 222 
f 178 256 812 
f 472 447 984 
f 541 409 540 
f 134 540 409 
f 1017 1120 720 
f 491 162 778 
f 1112 1116 293 
f 1297 1400 12 
f 1130 1128 1125 
f 643 247 1294 
f 1305 333 491 
f 789 1292 638 
f 507 431 1390 
f 692 173 1366 
f 93 425 1417 
f 131 356 1384 
f 105 1383 441 
f 1390 927 1127 
f 393 91 156 
f 1357 128 1120 
f 698 1390 1127 
f 878 990 8 
f 1390 1018 507 
f 677 1428 869 
f 153 1261 135 
f 285 1076 1081 
f 18 757 865 
f 454 186 517 
f 1017 135 1261 
f 1148 803 211 
f 1387 1280 252 
f 16 748 749 
f 517 228 454 
f 1387 454 228 
f 685 587 635 
f 252 113 537 
f 449 89 1295 
f 1295 221 635 
f 700 354 181 
f 700 1247 354 
f 1142 801 537 
f 1394 1400 362 
f 411 1374 526 
f 521 271 802 
f 1042 802 689 
f 1213 317 1215 
f 1155 1153 1150 
f 1421 370 1423 
f 521 132 120 
f 467 120 132 
f 184 937 702 
f 1304 884 156 
f 116 789 14 
f 351 237 643 
f 1208 1215 317 
f 370 1414 1418 
f 1003 1384 14 
f 41 1057 1446 
f 298 1136 1138 
f 1142 118 801 
f 613 719 266 
f 334 538 113 
f 680 1405 55 
f 1395 556 170 
f 129 877 1257 
f 927 801 118 
f 186 1390 138 
f 431 138 1390 
f 58 1367 1401 
f 1194 1072 1191 
f 11 436 501 
f 651 437 324 
f 88 799 398 
f 531 168 733 
f 1148 299 1146 
f 139 1018 1292 
f 511 139 1292 
f 646 264 161 
f 1292 1018 698 
f 1415 370 1424 
f 771 608 329 
f 664 682 674 
f 35 1025 1436 
f 638 14 789 
f 698 638 1292 
f 1048 1054 276 
f 1292 789 511 
f 1290 511 789 
f 1423 1436 1025 
f 130 222 619 
f 170 1042 1395 
f 689 1395 1042 
f 476 170 555 
f 691 555 170 
f 197 1259 356 
f 222 130 698 
f 1395 689 1259 
f 1384 1259 689 
f 554 1031 402 
f 390 402 1031 
f 390 197 1040 
f 356 1040 197 
f 9 555 734 
f 691 734 555 
f 814 734 554 
f 1031 554 734 
f 793 23 794 
f 405 363 1000 
f 559 726 1432 
f 814 1432 726 
f 298 1134 1133 
f 143 557 935 
f 594 1000 363 
f 402 935 554 
f 558 622 376 
f 935 376 622 
f 1074 1073 1072 
f 1430 1433 1427 
f 1432 494 559 
f 447 1339 1465 
f 1397 494 558 
f 622 558 494 
f 220 624 623 
f 726 559 950 
f 909 678 468 
f 12 770 772 
f 561 981 1001 
f 634 1001 981 
f 335 1357 158 
f 634 559 494 
f 663 213 562 
f 1425 562 213 
f 15 213 561 
f 981 561 213 
f 563 950 237 
f 944 237 950 
f 562 117 663 
f 944 663 117 
f 29 883 565 
f 947 565 883 
f 1001 883 561 
f 887 561 883 
f 873 677 566 
f 869 566 677 
f 565 1428 29 
f 677 29 1428 
f 499 880 567 
f 392 567 880 
f 566 909 873 
f 880 873 909 
f 561 887 15 
f 708 15 887 
f 567 515 499 
f 708 499 515 
f 1315 672 569 
f 988 569 672 
f 489 572 672 
f 973 672 572 
f 724 27 570 
f 893 570 27 
f 569 92 1315 
f 27 1315 92 
f 571 1350 459 
f 1402 459 1350 
f 570 1403 724 
f 1402 724 1403 
f 572 489 188 
f 968 188 489 
f 1350 571 968 
f 905 968 571 
f 1120 1017 574 
f 1261 574 1017 
f 720 577 1017 
f 135 1017 577 
f 128 1357 575 
f 335 575 1357 
f 574 661 1120 
f 1357 1120 661 
f 576 1388 393 
f 91 393 1388 
f 575 1304 128 
f 91 128 1304 
f 577 720 683 
f 84 683 720 
f 1388 576 84 
f 1234 84 576 
f 579 675 1331 
f 1075 43 1158 
f 868 867 865 
f 675 954 639 
f 574 421 661 
f 516 661 421 
f 675 579 516 
f 843 516 579 
f 580 1004 908 
f 796 908 1004 
f 574 1261 421 
f 796 421 1261 
f 18 865 867 
f 797 954 1005 
f 1004 580 1005 
f 741 1005 580 
f 124 7 582 
f 860 582 7 
f 1249 166 722 
f 1388 578 91 
f 576 187 1234 
f 1006 1234 187 
f 582 953 124 
f 1006 124 953 
f 583 668 255 
f 79 255 668 
f 187 576 79 
f 393 79 576 
f 128 91 578 
f 668 67 584 
f 1234 159 84 
f 583 725 668 
f 249 418 483 
f 971 483 418 
f 1331 418 579 
f 416 579 418 
f 583 891 725 
f 175 725 891 
f 483 352 249 
f 175 249 352 
f 838 884 575 
f 1304 575 884 
f 583 255 891 
f 884 891 255 
f 579 416 843 
f 816 843 416 
f 575 335 838 
f 816 838 335 
f 653 785 821 
f 495 821 785 
f 101 388 885 
f 582 860 653 
f 723 490 580 
f 741 580 490 
f 821 495 490 
f 1083 1081 1076 
f 577 714 135 
f 460 135 714 
f 580 908 723 
f 460 723 908 
f 653 866 582 
f 953 582 866 
f 866 714 683 
f 577 683 714 
f 500 881 995 
f 784 995 881 
f 589 518 784 
f 989 8 990 
f 1356 182 588 
f 727 588 182 
f 364 1373 923 
f 881 500 182 
f 572 383 973 
f 371 973 383 
f 588 717 1356 
f 371 1356 717 
f 784 705 589 
f 63 589 705 
f 383 572 705 
f 188 705 572 
f 940 107 911 
f 591 911 107 
f 346 1335 350 
f 940 1463 1396 
f 701 19 569 
f 92 569 19 
f 911 591 19 
f 1361 19 591 
f 588 336 717 
f 254 717 336 
f 569 988 701 
f 254 701 988 
f 455 1463 450 
f 1348 350 1335 
f 336 588 450 
f 727 450 588 
f 478 1000 1282 
f 180 1282 1000 
f 593 1265 837 
f 180 837 1265 
f 363 405 589 
f 518 589 405 
f 442 405 478 
f 1000 478 405 
f 571 642 905 
f 1320 905 642 
f 589 63 363 
f 1320 363 63 
f 837 871 593 
f 81 593 871 
f 459 871 571 
f 642 571 871 
f 96 259 1342 
f 998 1032 916 
f 107 440 591 
f 1063 591 440 
f 70 427 593 
f 1265 593 427 
f 308 1185 1187 
f 573 489 1315 
f 570 1015 1403 
f 510 1403 1015 
f 593 81 70 
f 510 70 81 
f 591 1063 1361 
f 962 1361 1063 
f 570 893 1015 
f 962 1015 893 
f 947 949 565 
f 1428 565 949 
f 1197 949 599 
f 546 599 949 
f 558 105 1397 
f 441 1397 105 
f 1160 768 811 
f 754 26 251 
f 1307 218 205 
f 1381 943 71 
f 105 558 218 
f 376 218 558 
f 598 1383 1 
f 778 1 1383 
f 778 1307 491 
f 205 491 1307 
f 1173 1174 306 
f 512 599 546 
f 688 546 598 
f 1383 598 546 
f 1264 601 956 
f 550 956 601 
f 646 956 604 
f 704 604 956 
f 1328 343 602 
f 1152 602 343 
f 550 601 343 
f 670 343 601 
f 514 722 603 
f 166 603 722 
f 602 1249 1328 
f 722 1328 1249 
f 604 704 333 
f 1010 333 704 
f 603 966 514 
f 1010 514 966 
f 329 728 603 
f 966 603 728 
f 965 598 728 
f 1 728 598 
f 606 771 69 
f 329 69 771 
f 603 166 329 
f 406 400 1318 
f 628 804 607 
f 163 607 804 
f 806 804 606 
f 771 606 804 
f 684 688 965 
f 598 965 688 
f 607 890 628 
f 684 628 890 
f 433 997 606 
f 806 606 997 
f 104 997 610 
f 815 610 997 
f 666 1352 602 
f 1249 602 1352 
f 606 69 433 
f 1352 433 69 
f 137 375 609 
f 1011 609 375 
f 602 1152 666 
f 375 666 1152 
f 610 815 216 
f 924 216 815 
f 609 1254 137 
f 924 137 1254 
f 956 646 1264 
f 438 177 676 
f 1265 119 180 
f 263 347 10 
f 90 6 527 
f 1288 527 6 
f 590 881 1356 
f 161 1264 646 
f 894 826 790 
f 736 790 826 
f 527 261 90 
f 736 90 261 
f 1247 1450 1378 
f 752 758 760 
f 911 592 940 
f 908 153 460 
f 615 1012 1407 
f 738 751 753 
f 497 718 504 
f 420 1318 400 
f 61 439 461 
f 435 1452 1441 
f 958 955 28 
f 1128 1132 297 
f 1310 1314 342 
f 102 391 696 
f 540 134 1012 
f 1431 1012 134 
f 1407 1343 328 
f 39 1360 992 
f 998 910 1016 
f 285 1081 1085 
f 1431 711 1343 
f 1275 1343 711 
f 1183 1298 12 
f 332 1275 242 
f 5 535 711 
f 395 711 535 
f 973 371 152 
f 1119 231 876 
f 163 806 104 
f 221 192 373 
f 520 395 185 
f 535 185 395 
f 242 1207 332 
f 1281 332 1207 
f 520 1271 1207 
f 474 1207 1271 
f 1336 1327 1333 
f 1336 1027 1335 
f 1249 1352 166 
f 830 748 823 
f 1334 854 595 
f 427 595 854 
f 930 854 424 
f 1045 1335 1027 
f 693 1435 1210 
f 621 1210 1435 
f 693 1334 440 
f 595 440 1334 
f 342 1303 1302 
f 72 970 1449 
f 1210 621 986 
f 261 933 736 
f 1466 1199 1214 
f 394 133 78 
f 863 671 428 
f 276 1052 1056 
f 584 623 7 
f 522 7 623 
f 78 877 394 
f 522 394 877 
f 1348 1041 1347 
f 897 624 220 
f 623 584 220 
f 67 220 584 
f 359 74 133 
f 658 428 671 
f 36 1347 1041 
f 883 1001 947 
f 1463 940 592 
f 218 376 205 
f 894 1268 1319 
f 784 518 995 
f 933 445 790 
f 304 790 445 
f 1239 55 1405 
f 1135 755 1109 
f 1218 95 492 
f 964 28 955 
f 644 626 464 
f 365 819 1413 
f 1027 1030 1045 
f 1421 1424 370 
f 304 615 1268 
f 1407 1268 615 
f 627 923 348 
f 1325 348 923 
f 1326 1325 974 
f 2 1111 864 
f 1040 356 364 
f 1373 364 356 
f 1345 364 627 
f 923 627 364 
f 417 969 509 
f 1373 6 612 
f 93 597 739 
f 1096 50 1132 
f 1254 164 924 
f 430 844 1369 
f 614 974 612 
f 69 329 166 
f 629 832 1381 
f 943 1381 832 
f 1271 520 985 
f 348 1337 943 
f 1436 1427 1433 
f 178 812 702 
f 629 532 832 
f 73 832 532 
f 584 585 668 
f 1104 49 1118 
f 557 143 73 
f 1345 73 143 
f 18 867 1109 
f 1187 1190 308 
f 1117 1118 49 
f 1118 1110 1114 
f 1266 963 331 
f 269 413 552 
f 1311 1272 13 
f 402 390 143 
f 818 632 389 
f 372 389 632 
f 547 389 631 
f 1091 1095 44 
f 633 372 662 
f 1039 1038 1034 
f 632 194 372 
f 331 959 1273 
f 517 138 471 
f 35 1047 1033 
f 129 785 860 
f 372 633 533 
f 1052 276 1054 
f 1433 40 1054 
f 75 189 94 
f 853 703 1250 
f 566 678 909 
f 293 1114 1110 
f 266 732 678 
f 468 678 732 
f 631 613 547 
f 620 547 613 
f 869 620 566 
f 678 566 620 
f 690 1250 703 
f 7 124 584 
f 613 631 719 
f 59 719 631 
f 1089 1186 46 
f 529 1226 1426 
f 1330 1425 549 
f 1176 1188 45 
f 753 193 737 
f 1277 496 1204 
f 16 823 748 
f 1210 424 1334 
f 842 898 829 
f 877 78 743 
f 294 1125 297 
f 743 496 1257 
f 129 860 7 
f 1382 1255 743 
f 333 1010 162 
f 993 260 999 
f 104 847 163 
f 986 621 1389 
f 640 362 1389 
f 675 639 1331 
f 488 729 846 
f 524 846 729 
f 524 621 1435 
f 182 149 110 
f 959 955 33 
f 133 625 359 
f 1184 729 488 
f 936 33 955 
f 729 1394 640 
f 362 640 1394 
f 705 784 383 
f 1156 1158 43 
f 1175 1179 306 
f 590 383 784 
f 1178 306 1179 
f 343 1328 550 
f 337 141 11 
f 436 11 141 
f 691 170 556 
f 436 1401 1367 
f 141 337 641 
f 795 641 337 
f 1308 1439 396 
f 919 975 910 
f 819 365 1401 
f 560 622 1432 
f 641 819 141 
f 388 1258 525 
f 464 374 641 
f 819 641 374 
f 626 368 374 
f 1413 374 368 
f 1444 476 64 
f 555 64 476 
f 641 795 464 
f 1444 464 795 
f 200 351 108 
f 643 108 351 
f 555 9 64 
f 200 64 9 
f 1419 368 1392 
f 626 1392 368 
f 108 643 1392 
f 1294 1392 643 
f 1198 1014 1195 
f 699 1263 553 
f 228 948 828 
f 1294 68 62 
f 1190 1171 1189 
f 351 563 237 
f 1194 1198 1193 
f 51 1195 1014 
f 247 237 645 
f 1455 645 237 
f 845 842 824 
f 1024 1030 268 
f 150 1425 15 
f 981 564 634 
f 645 114 247 
f 68 247 114 
f 715 1437 645 
f 114 645 1437 
f 1152 165 375 
f 188 157 705 
f 562 140 117 
f 1408 117 140 
f 645 1455 715 
f 1408 715 1455 
f 456 1330 647 
f 549 647 1330 
f 1425 1330 562 
f 140 562 1330 
f 456 1443 687 
f 1011 375 165 
f 647 435 456 
f 239 245 932 
f 1401 436 819 
f 435 647 325 
f 325 649 1452 
f 377 1452 649 
f 825 695 567 
f 515 567 695 
f 549 695 647 
f 325 647 695 
f 732 716 468 
f 519 468 716 
f 567 392 825 
f 519 825 392 
f 649 716 377 
f 1453 377 716 
f 997 433 815 
f 587 685 763 
f 126 1461 324 
f 1372 324 1461 
f 126 437 1381 
f 629 1381 437 
f 422 1251 650 
f 1449 650 1251 
f 1033 1023 35 
f 1251 324 1372 
f 604 264 646 
f 1156 43 1168 
f 650 889 422 
f 264 422 889 
f 882 864 870 
f 491 205 1305 
f 333 1305 604 
f 264 604 1305 
f 437 779 629 
f 532 629 779 
f 779 1305 205 
f 447 472 1385 
f 1197 599 879 
f 512 879 599 
f 818 879 632 
f 697 632 879 
f 895 505 1309 
f 512 853 652 
f 323 1237 1236 
f 1241 55 1242 
f 194 632 900 
f 697 900 632 
f 1250 900 652 
f 856 972 848 
f 654 912 1008 
f 24 1008 912 
f 657 1323 671 
f 24 671 1323 
f 112 99 655 
f 434 655 99 
f 659 99 654 
f 912 654 99 
f 656 428 855 
f 1349 855 428 
f 655 207 112 
f 1349 112 207 
f 671 863 657 
f 531 657 863 
f 485 863 656 
f 428 656 863 
f 438 709 177 
f 445 142 304 
f 348 943 627 
f 1008 960 942 
f 835 662 250 
f 1300 1289 1296 
f 709 438 660 
f 812 660 438 
f 13 1126 1311 
f 528 876 231 
f 148 250 662 
f 620 869 547 
f 1286 951 963 
f 452 1366 173 
f 622 560 935 
f 1160 1151 1157 
f 858 616 481 
f 702 664 184 
f 766 777 769 
f 1406 1252 492 
f 682 543 674 
f 729 640 524 
f 1143 481 616 
f 779 437 1305 
f 1018 1390 698 
f 5 134 473 
f 38 1363 1191 
f 711 395 1275 
f 767 769 777 
f 1371 1306 639 
f 939 674 172 
f 208 211 803 
f 302 1157 1151 
f 474 1279 1281 
f 667 397 85 
f 30 669 834 
f 1404 367 1412 
f 96 181 553 
f 381 1459 1466 
f 648 140 456 
f 93 739 355 
f 1064 1193 1059 
f 699 553 181 
f 369 836 438 
f 30 834 173 
f 986 1389 1391 
f 972 856 1013 
f 330 1407 1262 
f 1066 280 1067 
f 320 1224 1223 
f 1379 109 1050 
f 1253 826 1317 
f 1259 1384 356 
f 1393 1247 700 
f 127 639 1306 
f 1244 56 1245 
f 411 526 492 
f 1264 161 505 
f 147 818 547 
f 490 723 821 
f 151 487 673 
f 917 916 914 
f 129 1257 785 
f 131 1384 1003 
f 1169 46 1186 
f 381 1466 1439 
f 1141 299 808 
f 1031 556 390 
f 132 795 467 
f 116 271 493 
f 523 369 676 
f 438 676 369 
f 682 664 836 
f 438 836 664 
f 272 1046 1035 
f 1102 1130 47 
f 417 404 192 
f 20 1122 808 
f 664 702 438 
f 824 823 822 
f 1375 506 679 
f 731 679 506 
f 152 988 973 
f 147 1428 1197 
f 142 445 530 
f 890 607 235 
f 892 235 679 
f 1375 679 235 
f 610 665 104 
f 847 104 665 
f 607 163 235 
f 847 235 163 
f 745 750 193 
f 35 1436 1047 
f 216 710 610 
f 665 610 710 
f 676 506 523 
f 1058 1057 1055 
f 466 523 710 
f 844 86 747 
f 1364 1351 1359 
f 681 665 710 
f 628 684 608 
f 505 682 836 
f 466 339 523 
f 369 523 339 
f 1004 581 796 
f 777 775 767 
f 609 1309 1254 
f 339 1254 1309 
f 1063 596 962 
f 217 733 451 
f 941 248 952 
f 601 895 670 
f 609 1011 1309 
f 895 1309 1011 
f 1325 1329 348 
f 682 505 161 
f 505 895 1264 
f 601 1264 895 
f 843 158 516 
f 439 61 347 
f 683 84 159 
f 674 171 87 
f 773 772 770 
f 530 541 142 
f 621 524 640 
f 846 524 121 
f 536 501 548 
f 543 889 650 
f 1098 1145 50 
f 682 161 543 
f 896 1449 415 
f 970 415 1449 
f 756 760 758 
f 875 548 501 
f 1133 1137 298 
f 790 736 933 
f 415 87 896 
f 171 896 87 
f 1380 969 419 
f 770 12 1400 
f 466 164 339 
f 1380 509 969 
f 1284 850 952 
f 1332 633 835 
f 419 1332 1380 
f 13 759 761 
f 834 835 690 
f 250 690 835 
f 662 835 633 
f 253 1358 176 
f 1380 834 669 
f 297 1125 1128 
f 624 359 625 
f 651 1305 437 
f 836 369 1309 
f 509 1380 673 
f 972 978 977 
f 961 1380 669 
f 40 1433 1434 
f 68 1294 247 
f 154 81 459 
f 778 1383 1307 
f 1254 339 164 
f 1297 12 1298 
f 851 817 999 
f 1205 311 1043 
f 487 509 673 
f 1364 1363 1362 
f 1100 47 1139 
f 1343 1407 1431 
f 76 497 957 
f 29 677 568 
f 670 895 165 
f 484 799 115 
f 1153 1158 302 
f 165 1152 670 
f 1080 48 1179 
f 1250 690 250 
f 892 679 853 
f 703 853 679 
f 862 870 864 
f 1250 652 853 
f 122 1378 1450 
f 177 452 703 
f 731 703 679 
f 1382 743 78 
f 497 407 1277 
f 535 473 538 
f 452 690 703 
f 1258 388 707 
f 660 451 452 
f 1366 452 451 
f 1304 156 91 
f 1261 153 796 
f 1411 597 1417 
f 661 158 1357 
f 256 904 660 
f 451 660 904 
f 657 217 1323 
f 1270 1323 217 
f 1368 960 904 
f 1270 904 960 
f 692 1366 168 
f 733 168 1366 
f 657 531 217 
f 733 217 531 
f 1082 1155 48 
f 961 669 712 
f 987 990 983 
f 611 666 137 
f 908 796 153 
f 393 156 79 
f 669 30 712 
f 240 712 30 
f 656 712 485 
f 967 485 712 
f 692 168 240 
f 967 240 168 
f 694 712 169 
f 1084 45 1188 
f 656 855 712 
f 783 786 794 
f 673 976 151 
f 457 151 976 
f 1113 864 1111 
f 1394 729 58 
f 93 1417 597 
f 1293 1296 1289 
f 72 379 970 
f 976 673 224 
f 976 224 655 
f 207 655 224 
f 921 920 918 
f 169 224 694 
f 122 352 1378 
f 1337 1338 71 
f 655 434 976 
f 457 976 434 
f 714 821 460 
f 937 184 942 
f 1053 221 470 
f 683 159 866 
f 939 167 226 
f 1367 58 729 
f 723 460 821 
f 1354 65 400 
f 654 901 659 
f 226 659 901 
f 800 803 229 
f 178 937 1368 
f 1368 942 960 
f 376 935 145 
f 654 1008 901 
f 942 901 1008 
f 123 699 327 
f 181 327 699 
f 354 482 327 
f 1134 298 1140 
f 230 885 470 
f 1377 797 1409 
f 1039 1060 37 
f 358 1370 1376 
f 961 694 673 
f 1123 20 1314 
f 684 890 688 
f 1407 330 1268 
f 1247 1378 354 
f 482 354 1378 
f 948 471 513 
f 764 707 388 
f 1247 1393 1450 
f 542 1450 1393 
f 624 897 617 
f 542 617 897 
f 255 79 156 
f 235 892 890 
f 465 469 4 
f 411 529 1374 
f 929 617 1341 
f 1005 741 797 
f 681 1375 235 
f 1012 1431 1407 
f 618 412 344 
f 359 624 617 
f 902 251 26 
f 498 741 490 
f 412 530 445 
f 244 429 234 
f 326 1333 1327 
f 481 1143 774 
f 853 512 160 
f 203 4 469 
f 617 542 1393 
f 1435 693 121 
f 22 914 916 
f 825 519 649 
f 884 838 891 
f 1230 1224 320 
f 424 234 930 
f 403 930 234 
f 706 1454 234 
f 403 234 1454 
f 1281 1283 332 
f 1454 706 262 
f 262 423 928 
f 769 768 765 
f 455 450 110 
f 1154 1179 48 
f 592 336 1463 
f 886 888 233 
f 651 422 264 
f 404 487 32 
f 1269 338 52 
f 727 110 450 
f 945 951 941 
f 1228 1195 1226 
f 922 97 123 
f 699 123 97 
f 428 658 1349 
f 1341 1393 1342 
f 1099 1098 1096 
f 1420 1418 1414 
f 1411 747 636 
f 1026 1024 1020 
f 681 506 1375 
f 700 1342 1393 
f 1115 44 1116 
f 1113 1112 225 
f 181 96 700 
f 760 753 752 
f 259 94 1342 
f 1465 1342 94 
f 553 827 96 
f 259 96 827 
f 553 448 827 
f 60 827 448 
f 1412 776 1398 
f 1188 1187 1185 
f 744 10 1174 
f 183 52 338 
f 293 225 1112 
f 901 942 184 
f 429 60 706 
f 148 194 1250 
f 1263 262 448 
f 706 448 262 
f 60 429 686 
f 232 227 888 
f 73 532 557 
f 900 1250 194 
f 729 1184 1367 
f 837 180 594 
f 595 427 596 
f 1346 846 1396 
f 1429 1430 114 
f 463 1050 203 
f 1046 1045 1029 
f 1036 925 430 
f 798 1411 397 
f 871 459 81 
f 551 1285 462 
f 1434 1448 40 
f 957 735 414 
f 247 643 237 
f 405 442 518 
f 90 736 614 
f 136 957 872 
f 122 67 725 
f 1238 1229 1235 
f 414 1044 957 
f 938 243 936 
f 1012 615 540 
f 637 486 508 
f 957 136 76 
f 718 497 1277 
f 668 725 67 
f 79 668 187 
f 1035 1023 272 
f 125 518 442 
f 504 735 497 
f 636 86 3 
f 220 67 897 
f 1223 1228 320 
f 414 735 721 
f 929 1339 1272 
f 1275 1278 1343 
f 605 550 1328 
f 251 902 721 
f 343 670 1152 
f 711 1431 5 
f 1450 542 122 
f 35 1023 1025 
f 121 1396 846 
f 721 902 1192 
f 66 1295 89 
f 907 17 870 
f 1026 1025 1023 
f 113 903 1192 
f 1252 202 411 
f 59 1351 719 
f 1280 1044 252 
f 903 252 1044 
f 26 754 980 
f 544 980 754 
f 1271 985 902 
f 1385 1321 857 
f 1271 26 474 
f 38 1362 1363 
f 146 947 1001 
f 398 1409 1007 
f 633 1332 65 
f 398 1007 831 
f 614 612 90 
f 26 1271 902 
f 240 967 712 
f 855 169 712 
f 774 831 1007 
f 732 266 357 
f 551 453 1204 
f 338 922 123 
f 1404 58 1401 
f 481 1107 139 
f 638 698 130 
f 538 334 535 
f 1070 1457 42 
f 1303 342 1314 
f 207 224 169 
f 1129 1139 47 
f 1380 961 673 
f 204 1412 367 
f 1115 1147 44 
f 468 392 909 
f 1268 894 304 
f 434 167 457 
f 85 378 667 
f 188 968 157 
f 147 547 869 
f 1440 1438 1448 
f 100 1379 463 
f 259 827 94 
f 280 1062 1061 
f 100 539 1379 
f 826 614 736 
f 241 763 685 
f 100 463 504 
f 253 382 223 
f 1445 1448 1438 
f 804 628 771 
f 804 806 163 
f 1334 693 1210 
f 367 365 1416 
f 730 251 504 
f 974 614 1326 
f 72 1449 1372 
f 844 430 925 
f 1036 764 101 
f 388 101 764 
f 773 776 766 
f 1011 165 895 
f 1342 700 96 
f 1001 634 146 
f 125 477 1051 
f 1251 1372 1449 
f 873 568 677 
f 469 544 730 
f 754 730 544 
f 504 251 735 
f 514 605 722 
f 1316 539 453 
f 327 480 123 
f 529 411 202 
f 63 157 1320 
f 109 539 1316 
f 710 216 466 
f 389 547 818 
f 452 173 690 
f 1332 400 65 
f 14 1384 116 
f 65 1354 533 
f 718 453 539 
f 889 161 264 
f 33 1273 959 
f 1034 272 1023 
f 186 454 801 
f 768 1160 1159 
f 122 725 352 
f 497 735 957 
f 121 440 107 
f 1279 474 980 
f 674 184 664 
f 920 1256 21 
f 65 533 633 
f 905 1320 157 
f 1065 1067 41 
f 98 446 443 
f 203 730 463 
f 68 114 1430 
f 257 28 983 
