v -0.277875 0.55689 -0.190965
v 0.31204748 -0.36292267 0.8765793
v 0.4496606 0.74738026 -0.2069819
v 0.024671316 -0.07756695 1.0459908
v 0.28867328 0.66521925 -0.34749997
v -0.12445736 -0.46696937 0.59661484
v -0.25521725 0.6948633 -0.3555665
v 0.29620552 -0.06461766 0.8400383
v -0.160058 0.168229 -0.195838
v 0.15113384 -0.45333505 0.16332042
v -0.19714165 -0.120183945 -0.16049099
v -0.17476046 0.27621794 0.309515
v 0.10302639 -0.4776181 0.6684203
v -0.2750889 0.17325044 0.11883354
v -0.305787 0.218563 -0.547441
v 0.358602 -0.37797 0.17897
v 0.30654585 -0.50489765 -0.11830813
v 0.16161153 -0.45860493 0.5948114
v -0.18451244 -0.59464115 -0.10704607
v 0.0876766 -0.391182 0.901606
v 0.14750266 0.28923702 0.3132
v -0.101887226 -0.5403056 0.897635
v 0.158786 0.0751889 -0.141343
v 0.08777428 0.16634083 0.8254738
v 0.21064425 0.9011507 -0.3200314
v 0.105700254 -0.50476503 0.3492241
v -0.179633 -0.708233 -0.0350267
v 0.20836854 0.14783713 0.70325947
v 0.16653165 0.42149752 0.013534069
v 0.290901 0.186126 -0.509143
v 0.17062163 -0.4879725 0.49588394
v 0.09613156 0.8179765 -0.22376478
v 0.32245082 0.35857105 -0.49826527
v 0.288217 -0.679435 0.838379
v -0.25113 -0.502745 0.197094
v 0.22759116 0.4319526 -0.039031506
v 0.31642723 0.34855294 -0.2864189
v -0.119478 -0.295776 -0.113872
v -0.31715155 0.3865242 -0.4846344
v -0.07127285 0.7900429 -0.16921043
v 0.271501 0.201979 -0.579853
v 0.305787 0.218563 -0.547441
v 0.33837605 -0.6077579 -0.07766056
v -0.16560747 0.9541622 -0.26128617
v 0.104904 -0.328487 0.922781
v 0.153343 -0.652512 -0.0628489
v 0.14885712 -0.69277096 0.7015879
v -0.29416656 0.04873684 0.6950035
v -0.20409411 -0.2720045 -0.1254965
v 0.1161747 -0.6374955 0.8857441
v 0.264169 0.646946 -0.369897
v -0.30032614 -0.4040414 0.263273
v 0.2560832 0.5565573 -0.13003838
v -0.42191017 0.6443456 -0.24292666
v 0.14772272 -0.39233994 0.92031014
v -0.118597984 -0.6462817 0.8840952
v 0.10147619 -0.46659353 0.628314
v 0.06954104 0.5683708 0.022472382
v -0.186136 -0.62736917 0.16701686
v 0.378455 -0.525308 -0.0356201
v 0.11927813 0.115893185 -0.50895345
v 0.025872946 0.11811876 -0.30711746
v -0.3312142 -0.59777546 0.1436534
v -0.11604893 0.115294516 -0.20555925
v 0.2007842 0.25628757 0.30669212
v 0.293751 -0.27360392 -0.11068183
v -0.069956 -0.47422 0.735292
v -0.0804382 0.103817075 -0.3947265
v 0.05137062 -0.23212242 -0.17618084
v 0.115859 -0.693483 0.748115
v -0.076397896 0.083229065 0.92240524
v 0.3812855 -0.33940434 0.10163927
v -0.14472401 0.42675355 0.028995425
v -0.12326552 0.30968976 0.04983127
v 0.335047 -0.66747 -0.026194
v -0.2561865 -0.2646222 0.9012823
v 0.25560468 0.5915036 -0.4667933
v -0.02479744 -0.34184837 0.8909607
v 0.212816 -0.48020685 0.6241106
v -0.19449183 -0.43607134 0.24629918
v -0.1427561 -0.6200341 0.13496661
v 0.09984982 -0.43698287 0.11246157
v -0.2067728 -0.34449863 0.9215884
v -0.151829 -0.713932 0.849146
v 0.335933 -0.414813 0.716014
v 0.23972046 0.13776064 0.46329975
v 0.30024022 0.06446123 0.4391718
v -0.36073542 -0.33736372 0.38250542
v 0.14909214 0.8012341 -0.3413539
v 0.20173897 0.14480853 -0.54476666
v -0.153047 -0.720555 0.741401
v -0.187443 -0.669698 -0.0818819
v 0.2659434 -0.46173024 0.62814885
v -0.20799239 0.94699305 -0.2634728
v 0.4035942 0.7602652 -0.25405693
v 0.16932006 0.9443164 -0.24072623
v 0.28152657 -0.18471432 -0.1128149
v 0.19860968 -0.4804601 0.4206216
v -0.16939759 0.9443085 -0.24071431
v 0.06035739 -0.4523601 0.70607567
v 0.16407996 0.9532025 -0.2604146
v -0.279361 0.583208 -0.137022
v 0.089766026 -0.06124401 0.9856179
v -0.18715155 0.9222661 -0.22799008
v 0.283587 -0.684515 0.738785
v 0.24874353 0.7318487 -0.32110596
v 0.059106827 -0.45807862 0.6734123
v -0.08007336 0.11976714 -0.25270867
v 0.01900673 -0.09536773 1.026833
v -0.3365513 -0.22264528 -0.07765424
v -0.31597167 -0.39402664 0.58385193
v 0.136552 -0.67511 -0.0280042
v 0.26810312 0.26217294 -0.6253381
v 0.11654773 -0.36461785 -0.07298377
v -0.32367763 -0.39926016 0.44822097
v 0.20800734 0.26860118 0.1362009
v -0.22503504 0.13370946 -0.45279312
v 0.19852257 -0.27850723 0.9249115
v 0.34104478 0.022792697 0.07809687
v -0.1720767 0.019228905 -0.14685869
v -0.11653784 -0.36465 -0.072960705
v 0.069956 -0.47422 0.735292
v 0.36503744 -0.24208069 -0.029945374
v 0.203436 -0.628169 0.923071
v -0.358602 -0.37797 0.17897
v -0.19848728 0.03786373 0.8900833
v -0.3119835 -0.43061346 0.6541917
v -0.198408 -0.728532 0.734591
v -0.0876766 -0.391182 0.901606
v -0.21434665 0.2652185 0.14648867
v 0.17384934 -0.6848316 0.13163662
v -0.158786 0.0751889 -0.141343
v -0.027136207 -0.39039803 0.82842827
v -0.10547936 0.20826888 0.68827105
v -0.2461 -0.678205 0.889508
v -0.28576374 -0.20389223 0.86479473
v -0.471552 0.708579 -0.199184
v 0.253551 -0.622939 0.912658
v 0.25225407 0.21314931 0.23815727
v -0.24434477 0.37247294 -0.09168732
v -0.09813213 -0.023887515 -0.2004695
v -0.148661 -0.727347 0.795626
v 0.20412272 -0.271917 -0.12548804
v -0.184529 0.181235 -0.238574
v -0.38352656 -0.28573942 0.18642521
v -0.43464756 0.70245665 -0.2762041
v -0.25928667 0.46145248 -0.5338936
v -0.19700384 0.7296753 -0.4341879
v -0.36504722 -0.24217415 -0.029956818
v -0.271501 0.201979 -0.579853
v -0.09693298 0.8181752 -0.22322607
v -0.315639 -0.625673 0.839496
v -0.29187012 -0.6275029 0.8827028
v -0.05451584 0.63663864 -0.014287949
v -0.153343 -0.652512 -0.0628489
v 0.0632284 0.496693 0.0522852
v -0.32215095 -0.671401 0.1006794
v -0.24978113 -0.683014 0.6926466
v 0.277875 0.55689 -0.190965
v -0.264169 0.646946 -0.369897
v 0.29577085 -0.41098237 0.25196338
v -0.263204 0.560375 -0.137191
v 0.1854527 -0.62856627 0.16646957
v -0.246831 -0.711912 0.845432
v -0.42989182 0.66111696 -0.15362303
v -0.378455 -0.525308 -0.0356201
v -0.14689748 0.9092437 -0.22515501
v 0.248642 -0.724519 0.790895
v 0.334893 -0.24741197 0.7502737
v -0.168725 0.158519 -0.103729
v 0.09750518 -0.43677476 0.035351664
v 0.136631 -0.686121 0.0787634
v 0.30113626 0.27521682 -0.59790945
v 0.1662178 -0.038052797 0.95064735
v 0.18266797 0.12591648 -0.08801794
v 0.21011591 0.72394943 -0.42150116
v -0.21487981 0.7593245 -0.27029705
v 0.28980875 -0.6347511 0.8816023
v 0.24435711 0.37248677 -0.091700196
v -0.20734215 -0.4609471 0.19742453
v -0.022307098 0.21804643 0.728364
v -0.38031816 -0.4028839 -0.037210703
v 0.308326 -0.632734 0.733956
v -0.15001869 -0.4530923 0.16277122
v 0.11996651 -0.15564823 -0.18972111
v -0.3382039 -0.031283617 0.67263985
v -0.080338284 -0.6364778 0.7952174
v -0.07259178 0.51014435 0.047671437
v -0.149733 -0.3934 0.920339
v -0.040039062 -0.0028266907 0.9865036
v 0.262599 -0.446574 0.214165
v 0.09477019 0.82008123 -0.29973269
v -0.0060545206 0.75645494 -0.08783913
v 0.430349 0.658277 -0.154382
v 0.31806612 -0.004142761 -0.021745682
v 0.20846558 -0.4456495 0.51406765
v -0.167426 0.259011 -0.0241111
v 0.240602 -0.341214 -0.117452
v 0.12147 -0.249274 -0.145022
v -0.128964 0.142918 -0.232488
v 0.1711356 -0.35244733 -0.10446325
v 0.37626123 0.7053344 -0.32287693
v -0.38110107 -0.3321066 0.104459524
v 0.09974575 -0.026275158 -0.19957733
v -0.2444036 0.54276323 -0.10938692
v -0.28385925 0.0057473183 0.8174434
v 0.120968 0.319807 0.0225689
v 0.3833144 -0.06419185 0.2002372
v 0.055823326 -0.29019165 0.93552923
v -0.34268057 -0.2887882 0.693769
v 0.11242485 0.49481773 -0.564415
v 0.056547165 -0.40758562 0.84924936
v 0.12953797 0.19284654 0.72399426
v -0.25381494 0.6547873 -0.13828325
v 0.20028877 0.49150467 -0.5490017
v -0.43241 0.746455 -0.258303
v -0.2269447 0.87907004 -0.28799093
v -0.03668493 0.44375718 0.058710665
v 0.14674746 0.90911937 -0.22514361
v -0.060486913 -0.4525897 0.70526433
v 0.12749216 0.80743533 -0.21395439
v -0.22372918 0.26058066 0.22763515
v 0.23494709 0.654397 -0.4597988
v -0.12830651 0.91367656 -0.27163506
v 0.34165135 -0.5250033 0.7963954
v -0.227442 -0.724741 0.0933852
v 0.18786806 0.11714522 -0.4442509
v 0.364087 -0.605614 -0.0296813
v 0.29946995 -0.21467066 0.8495903
v 0.153047 -0.720555 0.741401
v 0.24869227 0.70546246 -0.1611147
v 0.342489 -0.11063421 0.7342186
v -0.21508217 0.25057888 -0.64301586
v -0.10025895 -0.4367109 0.112494946
v -0.20452484 0.14966094 0.70872974
v -0.3659954 -0.11589277 0.45628357
v -0.17509615 0.122119695 -0.3963771
v -0.281161 -0.710704 0.0910758
v 0.2707305 0.42044806 -0.12340355
v -0.27507734 0.51899046 -0.4542985
v -0.23912579 -0.3395224 -0.1179251
v -0.0003682375 0.17677689 0.8329067
v 0.38707814 -0.19207132 0.2771349
v 0.0061643124 -0.43541026 0.061902046
v 0.32688093 0.36153698 -0.38051224
v 0.22600842 0.09595728 0.79377174
v -0.17468882 -0.48121023 0.3566761
v 0.16246939 0.14144182 0.8096094
v 0.24386835 0.6856308 -0.39024544
v 0.2612996 0.34740686 -0.6228237
v -0.21334171 0.15155399 -0.3586073
v 0.37624002 0.62255466 -0.14873022
v -0.08047426 0.31794417 0.2422204
v -0.296601 -0.602967 -0.109127
v -0.11639547 -0.63746715 0.6993036
v 0.219301 0.191387 -0.600189
v 0.28876245 0.049573988 0.7264118
v 0.09781551 0.10132669 -0.4310603
v 0.27056873 0.52507657 -0.17926264
v -0.15595102 -0.64357233 0.6694679
v -0.22354794 -0.039397478 0.91358376
v 0.30858108 -0.39919534 0.306381
v 0.2078532 0.6614456 -0.47357655
v -0.16853714 0.5677366 -0.03837204
v 0.312495 -0.42258 0.208415
v 0.1757825 0.2985727 0.21698362
v 0.15201229 0.28824937 0.023093164
v 0.21486378 0.24869967 -0.6419201
v 0.12668121 0.33709994 0.009584218
v -0.33482838 -0.37500525 0.8354902
v -0.30047703 -0.009132862 -0.048667908
v -0.33318675 0.0074620247 0.021919727
v -0.0576974 -0.360469 0.893822
v 0.2512097 0.1563927 -0.52683985
v 0.330774 0.25245473 -0.48319456
v 0.30255094 0.20765616 -0.4212801
v 0.34453177 -0.37480593 0.40711975
v 0.17270432 0.244455 -0.036792815
v 0.296601 -0.602967 -0.109127
v 0.19788277 -0.43722355 0.24118161
v 0.338046 -0.680095 0.0309463
v 0.228165 -0.692422 0.147407
v 0.12828 -0.689708 0.0245746
v 0.238161 -0.677382 -0.0918856
v 0.229681 -0.733842 0.0266899
v 0.20056 -0.687393 0.898863
v 0.107919 -0.696884 0.796995
v 0.199176 -0.699686 0.68654
v 0.291818 -0.690195 0.788408
v 0.198244 -0.736784 0.793448
v 0.17735589 0.26478377 -0.072640955
v -0.03605175 0.028619766 -0.23331785
v 0.14539146 0.1318016 -0.1622808
v 0.059572972 -0.45885453 0.794745
v 0.11639428 -0.637465 0.69930506
v 0.102210045 -0.54428387 0.89733243
v 0.43241 0.746455 -0.258303
v -0.244434 -0.716483 0.736358
v 0.20811582 -0.54224527 0.9314578
v 0.33121514 -0.5977745 0.14365196
v 0.35435116 -0.49669388 -0.090729475
v 0.38706806 -0.5009887 0.020391703
v 0.288523 -0.704927 -0.0329901
v -0.09568089 0.22401726 0.48634052
v 0.14370555 -0.6182731 0.13631546
v -0.1937511 0.894341 -0.32796705
v 0.13622236 -0.588949 -0.07444051
v 0.227442 -0.724741 0.0933852
v 0.042129755 -0.34728813 0.8924632
v 0.282894 0.56989 -0.257283
v 0.151829 -0.713932 0.849146
v -0.16191682 -0.45859396 0.59479797
v 0.22517586 0.31674322 -0.6506953
v 0.1887132 0.22429538 0.003312111
v 0.422878 0.632073 -0.168661
v 0.084317386 -0.6201205 0.8476968
v -0.20045827 0.779531 -0.24851076
v 0.17088223 0.48561007 0.01179719
v 0.37188673 0.6311604 -0.285635
v -0.06920264 0.3260247 0.06987858
v 0.40754032 0.7316356 -0.2973385
v 0.45679724 0.7285154 -0.1727618
v 0.44511974 0.6771863 -0.24399185
v 0.447289 0.655956 -0.196803
v 0.288912 -0.666279 -0.0831981
v 0.05934468 0.3285186 0.071213245
v -0.33455145 -0.35535088 0.6420301
v 0.294318 0.572729 -0.209871
v -0.3580957 0.5933069 -0.21962643
v -0.09413004 0.82018447 -0.29825068
v 0.12841415 0.2121427 0.48932886
v 0.128964 0.142918 -0.232488
v -0.239082 0.578957 -0.111996
v -0.16048956 0.11386013 0.8529434
v 0.16552551 0.17527586 -0.20513389
v 0.278055 0.600765 -0.320108
v 0.16843137 0.19121677 -0.13505737
v 0.377213 -0.2676201 0.34797287
v -0.44806188 0.74803317 -0.20681834
v 0.035473824 -0.4377451 0.72473526
v 0.33424875 -0.35612464 0.6413049
v 0.089871764 -0.6357904 0.7440833
v -0.3781786 0.6484102 -0.1426976
v -0.07322526 -0.38097572 -0.017465591
v -0.25485325 -0.05327648 -0.11559868
v 0.073919654 0.35017166 0.032329082
v 0.1212154 -0.44355655 0.19472742
v -0.030875802 0.35345402 0.03833352
v 0.119246006 0.28955305 -0.66807497
v 0.08790383 0.43824786 0.051286533
v -0.13936675 0.14898956 -0.26775098
v -0.1602304 -0.4864087 0.63600254
v 0.3496468 -0.36396223 0.24924016
v -0.20862198 -0.44579494 0.5130253
v 0.2013797 0.7806006 -0.2609253
v -0.15188552 0.28831357 0.023444653
v 0.11790943 0.3547926 -0.66009045
v 0.26586542 -0.43006936 0.5753163
v -0.40658998 0.73561 -0.17331338
v 0.17983818 0.5663099 -0.04791069
v 0.24176025 -0.044959784 0.89746475
v 0.232047 0.565216 -0.501918
v 0.045558035 0.21818674 0.7217269
v -0.10837901 0.3267332 0.031017423
v -0.0005235933 0.06624675 -0.24683785
v 0.28349316 -0.61694765 0.17222714
v 0.035573006 0.026423454 -0.23321605
v 0.33475387 -0.5332011 0.84377337
v -0.20747492 0.7639147 -0.22976926
v 0.10285008 0.11118342 -0.22202468
v -0.364087 -0.605614 -0.0296813
v -0.148278 0.684021 -0.47902298
v 0.10463718 -0.62587196 0.030291488
v -0.042108536 0.0980286 -0.25302255
v -0.460337 0.681448 -0.17325
v -0.2707305 0.42044616 -0.123402596
v -0.22338295 0.9249239 -0.26619864
v 0.2538724 -0.053918898 -0.11664343
v 0.04235792 0.7005882 -0.05669403
v -0.248642 -0.724519 0.790895
v 0.24044651 -0.59631026 -0.12119867
v 0.279361 0.583208 -0.137022
v -0.368236 -0.614976 0.0306267
v 0.32215047 -0.6714003 0.10068083
v 0.460337 0.681448 -0.17325
v -0.0318408 -0.5152588 0.53227234
v 0.11546898 0.0945549 0.8998127
v -0.10414584 -0.62453973 0.03208283
v -0.23982401 -0.4368037 0.39120054
v -0.1701374 0.28013575 -0.050097704
v 0.18401325 0.78491575 -0.31801438
v -0.2307272 0.30965495 -0.64889216
v -0.115859 -0.693483 0.748115
v 0.1559515 -0.6435733 0.66946936
v -0.11508453 0.18284369 0.7769842
v 0.20550057 0.61998034 -0.112195015
v 0.21996504 0.8813045 -0.248445
v -0.19588602 0.94192266 -0.30201364
v -0.01421918 0.1108226 -0.27443033
v 0.06563473 0.79587173 -0.4129467
v -0.03193921 0.33780736 0.048735857
v 0.315639 -0.625673 0.839496
v -0.113033 -0.684171 0.844965
v 0.08147812 0.8239307 -0.2575373
v -0.304357 -0.484216 0.189956
v 0.07409234 -0.39270473 -0.001865387
v -0.016132355 0.80122375 -0.41458416
v -0.176191 -0.716151 0.0857864
v 0.0473693 -0.423079 0.799815
v -0.288217 -0.679435 0.838379
v 0.119478 -0.295776 -0.113872
v -0.16796815 0.19488251 0.48190355
v 0.10384369 -0.028951645 0.97895813
v -0.37639236 0.70521355 -0.32283497
v 0.3159928 -0.39402956 0.5839402
v -0.24411893 -0.6348889 0.66271234
v 0.1623087 -0.48614836 0.6355189
v -0.2659247 -0.46174932 0.6281535
v 0.40662593 0.6149703 -0.20072794
v 0.0576725 0.823071 -0.3619461
v -0.319732 -0.633454 0.786428
v 0.281161 -0.710704 0.0910758
v 0.26614624 0.6199442 -0.12980363
v -0.08004516 -0.409894 0.03178692
v 0.19965696 0.37789726 -0.63297653
v -0.12441279 0.104168035 -0.46406943
v -0.113677144 -0.4528994 0.094991416
v 0.2461 -0.678205 0.889508
v 0.007100165 -0.4573934 0.19023561
v 0.11725207 -0.61999965 0.09220918
v -0.34476334 -0.022116423 0.45259094
v -0.13811815 -0.6839803 0.085828304
v -0.15960407 0.7805257 -0.4003315
v 0.244434 -0.716483 0.736358
v -0.104904 -0.328487 0.922781
v -0.12155914 -0.15556979 -0.18915987
v 0.36721265 0.65804005 -0.31429547
v -0.08737135 0.06521392 -0.21336937
v 0.08364296 0.78460693 -0.1709404
v -0.09680985 -0.4084161 -0.021043338
v -0.32688153 0.36153412 -0.3805151
v -0.312495 -0.42258 0.208415
v 0.16765523 -0.48645163 0.36083794
v 0.18762398 -0.4437654 0.2762046
v 0.34789574 -0.03104341 0.44639206
v 0.10275664 -0.5229627 0.42874134
v 0.06661987 -0.52155423 0.4913435
v -0.091385126 -0.50913024 0.34794807
v 0.12162827 0.13840723 -0.27920863
v -0.30722928 -0.5053042 -0.11792457
v 0.25717634 0.4688778 -0.53147125
v -0.17175424 0.7913403 -0.33389485
v 0.27124786 -0.52710724 0.9188659
v -0.025572382 -0.5353115 0.43230557
v -0.29351687 -0.27257013 -0.11074841
v -0.163881 0.13274193 -0.54317117
v -0.13119343 0.91648674 -0.24079251
v 0.19652653 0.062284946 0.87426853
v -0.182766 -0.687312 0.135767
v -0.253551 -0.622939 0.912658
v 0.176191 -0.716151 0.0857864
v 0.123312674 0.30967024 0.04989153
v 0.02595824 -0.38681984 0.83260345
v 0.15323734 -0.6080389 0.91990685
v -0.29527378 -0.06461227 0.8420868
v -0.38238323 0.76169306 -0.25682235
v 0.30778456 0.33453703 -0.5734196
v -0.16497517 0.35209394 -0.65746164
v 0.15975416 0.78449917 -0.39222145
v 0.12828302 0.91364473 -0.27162504
v -0.33997655 -0.08031666 0.7381811
v 0.187443 -0.669698 -0.0818819
v 0.31297445 -0.5274566 0.88971543
v 0.016118824 0.12253094 0.9023695
v 0.12897253 0.16622686 -0.5980344
v 0.3727836 -0.06409955 0.10435915
v -0.34970006 -0.3638981 0.24921083
v -0.262599 -0.446574 0.214165
v 0.19464636 0.75906044 -0.19768536
v -0.18268871 0.1258421 -0.08801174
v 0.22453737 -0.4387802 0.33649445
v 0.18898569 0.78394246 -0.22842911
v -0.21407795 -0.48018974 0.62464964
v 0.07839266 -0.31577396 -0.09966946
v 0.198896 -0.723335 0.85193
v -0.17086482 0.48674256 0.011564732
v 0.0034027398 0.82305 -0.1964097
v -0.12147 -0.249274 -0.145022
v -0.288313 -0.71953 0.0292002
v -0.3885063 -0.105732426 0.22886968
v 0.06143345 0.11827814 -0.2719304
v -0.3304351 0.25113186 -0.48238036
v 0.19961226 -0.6458583 0.6580714
v -0.2882551 0.30866444 -0.23367453
v 0.25113 -0.502745 0.197094
v -0.061357975 -0.29200363 0.93520784
v -0.20471764 -0.28112411 0.92367935
v -0.31177068 -0.3619976 0.8769641
v -0.18874502 0.22426629 0.0027451515
v -0.3872565 -0.49902993 0.018503487
v -0.15031809 0.31013313 -0.012959957
v -0.37122244 -0.061498284 0.099553585
v 0.13043915 0.9157256 -0.24092185
v -0.098846436 -0.032969475 0.98308945
v -0.2614441 0.73190165 -0.17650461
v 0.276152 -0.679477 0.14116
v 0.28628588 -0.61837655 0.68606704
v -0.045066163 0.8232626 -0.37048817
v -0.0026111752 0.8365533 -0.2937777
v -0.116016835 -0.6238648 0.08659908
v 0.06953758 0.33488202 0.044380546
v -0.25556847 0.5916486 -0.46680498
v -0.32374382 -0.23150063 0.79803467
v 0.344123 -0.2874074 -0.08114779
v 0.375596 -0.311145 0.175939
v -0.308326 -0.632734 0.733956
v 0.20749283 -0.34495926 0.9214361
v -0.348561 -0.464054 0.158716
v -0.19551945 -0.21470642 -0.1434691
v -0.08295059 0.13840294 0.867651
v -0.17268069 0.2126379 -0.06156814
v -0.056643248 -0.40772223 0.8494277
v 0.33132946 0.28623533 -0.5199387
v -0.07719005 -0.31428242 -0.100670815
v 0.20355666 0.94957244 -0.28501463
v 0.28461516 0.5389462 -0.29564232
v -0.460792 0.730831 -0.231063
v 0.43640083 0.7010806 -0.15335378
v 0.2619244 0.6957557 -0.3516395
v 0.059886694 -0.17572546 -0.20168304
v -0.22220868 0.9204935 -0.29673862
v 0.25915372 0.2021476 0.124406815
v 0.246831 -0.711912 0.845432
v 0.11038838 -0.6100113 -0.023998454
v 0.33915928 0.052004635 0.21800709
v 0.471552 0.708579 -0.199184
v -0.22919822 0.09525967 0.7944164
v -0.33474863 -0.53323793 0.8437753
v -0.08559799 -0.06516504 0.9853797
v 0.21357733 0.26899183 0.22328687
v 0.32641876 -0.54714596 0.7250031
v -0.0793457 -0.46434337 0.64310265
v -0.14885753 -0.6927698 0.70158637
v 0.021484375 -0.0023651123 0.99066544
v -0.16838872 0.2991308 0.15363026
v -0.28462166 0.5388628 -0.2956558
v 0.38031912 -0.4028734 -0.037208796
v 0.08033839 -0.6364782 0.7952174
v -0.219301 0.191387 -0.600189
v 0.168725 0.158519 -0.103729
v 0.007814407 -0.07283437 0.9994695
v 0.288313 -0.71953 0.0292002
v -0.12546434 -0.5158519 0.43746305
v -0.1805235 0.2484225 -0.099540144
v -0.14539194 0.13180065 -0.16227865
v 0.27913815 0.5034647 -0.45522165
v -0.22763014 0.43177712 -0.03910923
v -0.31647658 0.34842753 -0.28662968
v -0.29844695 0.20137379 -0.41973683
v 0.20456827 0.22737253 -0.18462849
v 0.43665504 0.70102584 -0.2739992
v 0.30730855 -0.4089589 0.4311124
v -0.24888313 0.15468103 -0.52595234
v 0.26731348 0.013827801 0.835042
v 0.2074734 -0.46086198 0.19751668
v -0.24840498 0.3675785 -0.6187868
v -0.26853943 0.261842 -0.6248336
v -0.314593 0.32071 -0.563292
v -0.238161 -0.677382 -0.0918856
v -0.12828 -0.689708 0.0245746
v -0.228165 -0.692422 0.147407
v -0.338046 -0.680095 0.0309463
v -0.229681 -0.733842 0.0266899
v -0.291818 -0.690195 0.788408
v -0.199176 -0.699686 0.68654
v -0.107919 -0.696884 0.796995
v -0.20056 -0.687393 0.898863
v -0.198244 -0.736784 0.793448
v -0.28628638 -0.6183776 0.6860678
v -0.3129661 -0.5277142 0.8896918
v -0.3418096 -0.5247446 0.79475397
v 0.3495121 0.58750325 -0.21229005
v 0.239082 0.578957 -0.111996
v -0.059572905 -0.45885432 0.79474455
v 0.17189741 0.019235462 -0.14699554
v 0.148661 -0.727347 0.795626
v -0.3313467 0.28595883 -0.5197675
v -0.233667 -0.718383 -0.0394682
v 0.23287868 -0.6313219 0.17841375
v 0.368236 -0.614976 0.0306267
v -0.13621753 -0.5889417 -0.07443771
v -0.37301373 -0.5182867 0.09612322
v 0.198408 -0.728532 0.734591
v 0.15574 -0.680004 0.892121
v -0.09751387 -0.43678594 0.035427034
v 0.113033 -0.684171 0.844965
v 0.36551905 -0.11309427 0.45658875
v -0.282894 0.56989 -0.257283
v -0.011434436 -0.09558609 1.0379627
v 0.23070078 0.9062843 -0.2869804
v 0.31984162 -0.14920795 -0.07692766
v -0.41777578 0.62478375 -0.17139223
v -0.27056897 0.5250773 -0.17926407
v -0.2070233 0.61750555 -0.11140251
v 0.123057365 0.22210026 -0.64344406
v -0.3766002 0.62606055 -0.27497196
v -0.28867364 0.6652193 -0.3474998
v -0.29434437 0.6071844 -0.29625416
v -0.460287 0.727236 -0.177367
v -0.40805912 0.73223376 -0.29659986
v -0.454185 0.684351 -0.230461
v 0.18476039 -0.5947106 -0.10717648
v 0.056209207 0.23014629 0.48976135
v -0.0561738 -0.17338324 -0.2028842
v -0.39210856 0.6975052 -0.1483571
v 0.33315277 -0.03251542 0.72289276
v -0.03762853 -0.45084763 0.690567
v -0.23596567 0.1426518 0.45999908
v 0.348561 -0.464054 0.158716
v -0.1964941 0.49510765 -0.5471554
v -0.2196568 0.9018312 -0.24572429
v -0.15941513 0.30396843 0.23723388
v -0.0473693 -0.423079 0.799815
v 0.2372487 -0.4374855 0.4233608
v -0.021930613 0.23334652 0.48625135
v 0.24411857 -0.6348882 0.66271305
v -0.1132614 0.3417798 0.018930852
v 0.06942034 0.7507267 -0.4564829
v 0.34167662 -0.29978454 0.700402
v 0.24392265 0.14494252 -0.43423086
v -0.101611614 0.49665833 -0.5651665
v 0.18996203 0.17913538 0.4802928
v -0.035440683 0.75951385 -0.4541216
v -0.288912 -0.666279 -0.0831981
v 0.17885327 0.7317028 -0.44215488
v 0.21152604 0.76216465 -0.24026167
v -0.28145504 -0.18456268 -0.11286354
v 0.172796 -0.723594 0.0247169
v -0.335933 -0.414813 0.716014
v -0.0057813525 -0.3026905 -0.12535381
v 0.29428267 0.60949886 -0.2992729
v -0.2328788 -0.63132095 0.17841387
v -0.06726645 0.1229829 -0.29971623
v -0.20942998 -0.5419607 0.9313799
v -0.08431238 -0.6200652 0.8477509
v 0.304357 -0.484216 0.189956
v -0.12451625 0.18263817 -0.6142998
v 0.31197298 -0.43062815 0.6541876
v -0.13549805 0.24649096 -0.6548128
v 0.096809775 -0.40841827 -0.021042354
v 0.460792 0.730831 -0.231063
v 0.233667 -0.718383 -0.0394682
v -0.15209818 -0.6022053 0.92063856
v 0.354786 -0.614851 0.0904298
v -0.335047 -0.66747 -0.026194
v 0.179633 -0.708233 -0.0350267
v 0.289471 0.569074 -0.162469
v -0.19961226 -0.64585924 0.65807116
v 0.10932637 0.3109374 0.2748742
v 0.36539626 0.59735876 -0.17083466
v -0.283587 -0.684515 0.738785
v -0.37562227 0.6180021 -0.15209985
v -0.28289512 0.17405432 -0.49020904
v -0.1907874 0.76418054 -0.20323348
v 0.288252 0.30869102 -0.23364973
v -0.447289 0.655956 -0.196803
v 0.20979762 0.93800133 -0.25057697
v -0.089873075 -0.635794 0.7440841
v -0.13607335 0.80626786 -0.3355024
v 0.08741999 0.06518352 -0.21332097
v 0.3347888 -0.37496567 0.8355613
v -0.288523 -0.704927 -0.0329901
v -0.08133471 0.8235311 -0.2564525
v -0.14730301 0.8031518 -0.21446027
v -0.3264184 -0.5471442 0.7250023
v -0.232047 0.565216 -0.501918
v -0.295399 0.395443 -0.540067
v -0.2912488 0.08311319 0.4115095
v -0.24234152 0.727643 -0.32867718
v 0.19543743 -0.2147665 -0.14346623
v 0.042093873 0.09789729 -0.25293255
v -0.3672123 0.6580399 -0.31429583
v -0.15574 -0.680004 0.892121
v -0.1103486 -0.6098676 -0.023986235
v 0.17523599 0.92922664 -0.31328452
v 0.015755296 -0.52091336 0.35232544
v -0.0010711439 -0.40798664 0.00031661987
v -0.278055 0.600765 -0.320108
v 0.2531004 -0.23436308 0.899724
v 0.19625854 -0.12020588 -0.16092014
v -0.16843428 0.19121966 -0.13505553
v 0.0007586479 -0.18587494 0.9769411
v 0.15029484 0.31008217 -0.012768507
v -0.0007661581 0.65369797 -0.010290146
v -0.1707046 -0.353621 -0.10398844
v 0.22075579 0.74405646 -0.3350072
v -0.22842467 0.6595888 -0.46328306
v -0.21408916 0.8800861 -0.31448674
v -0.1932506 -0.48545983 0.4376396
v -0.14688492 -0.48518753 0.53588486
v -0.23992366 -0.5959476 -0.12136981
v 0.319732 -0.633454 0.786428
v -0.109130144 0.29603434 0.321764
v -0.267679 0.610284 -0.129549
v -0.354786 -0.614851 0.0904298
v -0.11877179 -0.4439909 0.19522524
v 0.112515 -0.451919 0.0935688
v -0.302145 0.27388388 -0.59588003
v -0.19377947 0.78404766 -0.29606318
v -0.181336 0.804317 -0.228606
v 0.37301362 -0.51828384 0.09612179
v -0.16121483 0.9272864 -0.30456567
v -0.26634324 -0.42954022 0.5746411
v -0.203436 -0.628169 0.923071
v -0.28349423 -0.61694765 0.17222834
v -0.12512589 0.30350327 -0.6675413
v -0.3383782 -0.6077782 -0.07765007
v -0.004205048 0.5169611 0.056445718
v -0.447397 0.702392 -0.15815
v -0.198896 -0.723335 0.85193
v -0.28018045 0.33947146 -0.609993
v 0.18745041 0.92248976 -0.22819903
v -0.270813 -0.5277283 0.919013
v -0.172796 -0.723594 0.0247169
v -0.103612065 -0.4784314 0.6675669
v -0.20456386 0.22736359 -0.18464279
v -0.35434663 -0.49671042 -0.09073329
v -0.29471576 0.56741494 -0.1746817
v -0.055550814 -0.23163891 -0.17554092
v -0.017706871 -0.07291895 1.0501391
v -0.276152 -0.679477 0.14116
v -0.136552 -0.67511 -0.0280042
v 0.24978109 -0.6830128 0.69264567
v -0.36696458 -0.009551413 0.21634531
f 248 24 387 
f 574 421 661 
f 353 277 262 
f 562 262 277 
f 175 585 23 
f 262 481 444 
f 264 154 40 
f 624 262 562 
f 161 280 191 
f 565 191 280 
f 461 638 308 
f 460 723 153 
f 635 176 263 
f 262 161 353 
f 191 265 161 
f 436 614 519 
f 358 562 415 
f 16 353 265 
f 613 659 703 
f 247 389 80 
f 79 358 93 
f 423 382 252 
f 263 362 215 
f 6 542 312 
f 209 496 78 
f 358 18 196 
f 417 18 79 
f 358 79 18 
f 196 624 562 
f 497 76 83 
f 74 545 320 
f 728 329 608 
f 614 436 292 
f 198 143 66 
f 514 66 601 
f 97 601 66 
f 680 143 199 
f 411 199 143 
f 201 143 198 
f 508 330 673 
f 23 585 670 
f 149 182 502 
f 63 157 715 
f 252 194 528 
f 125 477 145 
f 602 54 329 
f 378 97 690 
f 680 690 97 
f 125 203 518 
f 100 107 13 
f 519 637 11 
f 495 565 589 
f 519 729 488 
f 137 527 611 
f 195 601 378 
f 705 592 383 
f 378 690 204 
f 538 581 152 
f 101 685 470 
f 360 53 583 
f 195 378 175 
f 585 175 378 
f 204 585 378 
f 254 701 634 
f 689 453 2 
f 413 544 4 
f 300 366 384 
f 395 520 242 
f 658 416 483 
f 13 18 417 
f 2 229 689 
f 307 46 534 
f 225 702 541 
f 105 434 733 
f 26 347 444 
f 267 462 116 
f 455 450 110 
f 531 217 377 
f 45 517 209 
f 118 209 517 
f 601 123 514 
f 112 534 46 
f 302 547 476 
f 123 476 547 
f 441 39 587 
f 431 186 678 
f 492 559 558 
f 123 601 195 
f 569 92 588 
f 616 257 564 
f 432 81 459 
f 701 450 241 
f 476 72 302 
f 182 149 110 
f 515 72 243 
f 290 485 586 
f 121 695 38 
f 700 6 354 
f 670 370 23 
f 290 168 485 
f 243 338 515 
f 277 515 338 
f 97 66 680 
f 578 380 128 
f 674 710 369 
f 293 23 370 
f 70 342 47 
f 520 71 474 
f 383 572 705 
f 41 274 256 
f 104 94 621 
f 170 555 480 
f 536 323 651 
f 482 722 221 
f 528 322 231 
f 445 597 208 
f 612 201 381 
f 633 631 372 
f 338 243 597 
f 208 597 243 
f 644 83 723 
f 542 617 220 
f 407 633 433 
f 512 676 240 
f 602 102 662 
f 235 618 48 
f 159 53 259 
f 460 135 714 
f 161 265 353 
f 195 119 476 
f 648 93 415 
f 503 32 219 
f 422 308 552 
f 216 466 610 
f 372 620 697 
f 208 476 119 
f 158 575 298 
f 244 429 234 
f 467 451 556 
f 326 401 320 
f 103 109 551 
f 443 444 481 
f 120 345 480 
f 10 82 707 
f 225 629 671 
f 533 485 168 
f 222 12 622 
f 469 176 635 
f 76 497 261 
f 645 403 187 
f 85 629 225 
f 39 677 568 
f 99 167 457 
f 3 479 322 
f 91 393 142 
f 576 187 403 
f 671 229 2 
f 555 64 132 
f 50 596 594 
f 468 392 566 
f 433 508 407 
f 664 40 674 
f 232 616 8 
f 629 169 671 
f 526 77 336 
f 233 549 567 
f 92 569 19 
f 664 505 604 
f 483 352 658 
f 364 627 501 
f 662 704 343 
f 346 348 511 
f 147 240 676 
f 219 32 221 
f 194 385 528 
f 266 116 462 
f 78 463 309 
f 616 597 445 
f 70 47 230 
f 115 354 713 
f 699 247 553 
f 420 469 400 
f 547 514 123 
f 597 616 232 
f 457 167 151 
f 620 631 468 
f 498 76 136 
f 523 245 275 
f 258 227 449 
f 187 584 645 
f 21 65 266 
f 398 94 44 
f 338 341 277 
f 323 536 324 
f 646 619 265 
f 569 634 701 
f 127 111 418 
f 410 153 152 
f 156 718 350 
f 341 338 629 
f 497 83 496 
f 531 377 94 
f 190 71 504 
f 359 505 664 
f 166 182 727 
f 487 509 673 
f 86 632 28 
f 385 324 536 
f 337 278 550 
f 307 612 46 
f 575 158 658 
f 443 481 98 
f 142 578 91 
f 116 266 540 
f 371 655 383 
f 207 693 269 
f 512 7 697 
f 330 669 712 
f 684 591 440 
f 678 48 618 
f 433 148 679 
f 438 292 141 
f 65 139 540 
f 574 661 380 
f 383 500 371 
f 9 555 691 
f 426 117 456 
f 177 452 679 
f 238 489 226 
f 260 658 352 
f 87 139 86 
f 298 380 661 
f 632 65 331 
f 21 331 65 
f 200 351 108 
f 573 226 489 
f 608 607 688 
f 507 733 626 
f 728 162 102 
f 51 529 5 
f 471 236 210 
f 644 714 653 
f 169 232 229 
f 246 248 458 
f 129 435 189 
f 6 312 354 
f 607 414 7 
f 3 651 95 
f 500 383 592 
f 354 115 389 
f 132 438 120 
f 497 539 504 
f 209 692 496 
f 732 570 27 
f 280 161 444 
f 581 675 421 
f 317 709 369 
f 209 309 45 
f 203 490 502 
f 110 727 182 
f 438 64 108 
f 200 9 351 
f 304 703 412 
f 44 99 457 
f 580 538 153 
f 730 4 544 
f 213 28 331 
f 632 331 28 
f 204 670 585 
f 144 251 351 
f 169 629 338 
f 502 490 734 
f 208 535 445 
f 241 695 701 
f 106 95 321 
f 160 607 7 
f 166 371 500 
f 181 625 134 
f 88 327 210 
f 666 54 602 
f 147 566 677 
f 144 9 726 
f 704 662 102 
f 179 693 291 
f 669 452 306 
f 163 589 565 
f 255 543 260 
f 579 416 158 
f 298 128 380 
f 611 666 137 
f 141 292 436 
f 119 532 535 
f 729 69 640 
f 246 257 28 
f 143 680 66 
f 134 412 235 
f 62 399 643 
f 622 545 222 
f 483 418 713 
f 564 257 246 
f 351 237 643 
f 564 8 616 
f 206 186 471 
f 377 621 94 
f 579 158 516 
f 615 505 359 
f 641 336 5 
f 72 476 208 
f 271 345 110 
f 732 155 684 
f 297 95 651 
f 162 728 1 
f 563 456 117 
f 371 166 717 
f 497 496 692 
f 726 559 251 
f 420 508 509 
f 567 150 708 
f 413 4 103 
f 164 380 720 
f 370 670 681 
f 591 19 121 
f 28 257 86 
f 184 706 80 
f 698 452 217 
f 234 706 184 
f 387 474 544 
f 64 200 108 
f 356 130 74 
f 141 120 438 
f 555 9 64 
f 664 604 40 
f 721 566 392 
f 87 86 257 
f 545 74 130 
f 537 48 206 
f 146 414 682 
f 535 208 119 
f 127 327 111 
f 129 22 522 
f 12 222 412 
f 195 532 119 
f 721 568 677 
f 573 588 724 
f 16 265 619 
f 68 643 237 
f 89 391 469 
f 578 142 720 
f 154 694 193 
f 537 334 395 
f 376 140 557 
f 391 89 25 
f 451 215 362 
f 337 550 293 
f 550 278 175 
f 314 175 278 
f 560 291 337 
f 592 518 203 
f 335 337 293 
f 510 432 388 
f 291 693 278 
f 267 278 693 
f 703 625 613 
f 532 314 116 
f 444 347 280 
f 477 52 115 
f 278 267 314 
f 268 349 313 
f 276 665 560 
f 184 80 180 
f 207 511 462 
f 637 110 345 
f 527 216 146 
f 69 484 640 
f 405 715 35 
f 610 146 216 
f 76 723 83 
f 708 15 587 
f 37 239 665 
f 179 665 239 
f 683 84 56 
f 74 364 356 
f 40 604 264 
f 693 179 36 
f 87 535 139 
f 145 490 203 
f 560 630 276 
f 150 567 549 
f 274 630 227 
f 340 133 107 
f 491 332 370 
f 541 648 85 
f 276 30 275 
f 42 275 30 
f 408 724 432 
f 630 274 30 
f 188 718 154 
f 183 541 702 
f 215 425 211 
f 674 40 487 
f 261 136 76 
f 185 680 530 
f 245 523 33 
f 146 611 527 
f 411 114 484 
f 142 576 84 
f 275 42 523 
f 173 523 42 
f 335 630 560 
f 12 412 703 
f 313 250 113 
f 173 113 250 
f 108 643 399 
f 467 556 33 
f 451 467 250 
f 392 567 721 
f 552 303 281 
f 75 281 303 
f 652 284 303 
f 325 303 284 
f 308 422 282 
f 506 282 422 
f 281 384 552 
f 422 552 384 
f 283 638 172 
f 461 172 638 
f 282 131 308 
f 461 308 131 
f 284 652 472 
f 656 472 652 
f 656 638 112 
f 283 112 638 
f 485 533 286 
f 428 286 533 
f 533 168 34 
f 289 34 168 
f 586 311 287 
f 596 287 311 
f 286 594 485 
f 311 485 594 
f 288 593 47 
f 230 47 593 
f 287 70 586 
f 230 586 70 
f 289 168 105 
f 434 105 168 
f 593 288 434 
f 733 434 288 
f 377 217 621 
f 541 85 225 
f 507 648 541 
f 60 302 228 
f 704 604 214 
f 603 1 546 
f 671 368 225 
f 130 222 545 
f 289 702 34 
f 402 34 702 
f 473 178 368 
f 402 368 178 
f 541 183 507 
f 210 236 490 
f 289 105 702 
f 183 702 105 
f 27 588 92 
f 59 180 642 
f 90 227 61 
f 316 296 212 
f 408 226 724 
f 295 342 13 
f 459 408 432 
f 342 294 122 
f 548 342 287 
f 70 287 342 
f 404 487 32 
f 94 104 99 
f 296 316 50 
f 675 639 127 
f 287 596 548 
f 316 548 596 
f 626 93 507 
f 648 507 93 
f 589 366 495 
f 690 680 185 
f 288 493 733 
f 626 733 493 
f 448 429 686 
f 405 442 518 
f 688 546 598 
f 213 363 24 
f 493 288 394 
f 47 394 288 
f 149 272 110 
f 695 241 49 
f 295 13 394 
f 417 394 13 
f 55 296 464 
f 88 145 477 
f 636 106 696 
f 517 55 299 
f 124 464 286 
f 594 286 464 
f 499 521 480 
f 50 464 296 
f 473 453 178 
f 138 178 453 
f 286 428 124 
f 138 124 428 
f 299 453 517 
f 303 552 652 
f 496 435 273 
f 598 546 1 
f 300 711 619 
f 715 405 63 
f 700 386 542 
f 711 302 72 
f 590 654 281 
f 384 281 654 
f 711 300 654 
f 561 437 202 
f 301 60 43 
f 228 43 60 
f 281 75 590 
f 228 590 75 
f 126 71 334 
f 232 169 338 
f 60 301 547 
f 715 731 642 
f 198 381 201 
f 457 673 224 
f 201 612 114 
f 307 114 612 
f 157 705 572 
f 571 642 731 
f 66 17 198 
f 381 198 17 
f 284 381 325 
f 279 325 381 
f 301 43 17 
f 279 17 43 
f 627 73 501 
f 295 394 47 
f 381 284 612 
f 472 612 284 
f 305 163 10 
f 565 10 163 
f 191 565 495 
f 628 263 211 
f 589 163 282 
f 131 282 163 
f 500 502 182 
f 542 6 700 
f 208 243 72 
f 294 342 548 
f 282 506 589 
f 366 589 506 
f 495 646 191 
f 265 191 646 
f 619 646 300 
f 366 300 646 
f 534 650 307 
f 114 307 650 
f 222 431 678 
f 526 259 37 
f 283 373 112 
f 534 112 373 
f 401 511 348 
f 474 242 520 
f 125 518 442 
f 427 595 234 
f 283 172 373 
f 430 373 172 
f 232 338 597 
f 430 707 171 
f 10 430 305 
f 277 353 515 
f 192 404 470 
f 429 448 706 
f 330 508 669 
f 245 33 556 
f 336 310 526 
f 180 59 184 
f 655 371 717 
f 77 526 556 
f 233 392 649 
f 544 474 190 
f 310 159 526 
f 259 526 159 
f 401 348 364 
f 220 617 623 
f 259 53 239 
f 345 141 11 
f 517 45 55 
f 20 55 45 
f 627 364 348 
f 235 48 537 
f 75 43 228 
f 675 581 639 
f 231 423 528 
f 252 528 423 
f 582 660 657 
f 382 657 660 
f 396 583 423 
f 382 423 583 
f 315 252 419 
f 660 419 252 
f 729 519 614 
f 559 726 494 
f 205 162 603 
f 544 413 387 
f 194 252 315 
f 2 453 473 
f 641 328 310 
f 159 310 328 
f 657 328 582 
f 643 68 62 
f 210 270 513 
f 79 493 417 
f 412 134 304 
f 310 336 641 
f 501 557 140 
f 357 211 425 
f 202 437 5 
f 641 5 437 
f 561 651 323 
f 716 468 349 
f 389 699 354 
f 582 319 419 
f 61 475 90 
f 202 321 561 
f 323 319 561 
f 437 561 319 
f 322 536 3 
f 651 3 536 
f 321 297 561 
f 651 561 297 
f 315 324 194 
f 385 194 324 
f 536 322 385 
f 528 385 322 
f 319 323 419 
f 150 563 15 
f 345 11 637 
f 315 419 324 
f 661 516 158 
f 133 623 617 
f 543 575 260 
f 105 733 183 
f 84 683 720 
f 365 374 399 
f 136 261 465 
f 457 224 44 
f 137 375 609 
f 562 358 196 
f 236 471 186 
f 584 187 668 
f 659 266 326 
f 727 717 166 
f 694 154 718 
f 170 480 521 
f 126 261 504 
f 363 613 625 
f 656 652 638 
f 617 542 386 
f 38 49 488 
f 713 111 115 
f 285 652 552 
f 506 384 366 
f 147 620 566 
f 674 167 104 
f 67 220 584 
f 87 445 535 
f 34 178 533 
f 96 667 101 
f 464 299 55 
f 395 235 537 
f 363 181 242 
f 69 729 530 
f 694 379 193 
f 379 58 360 
f 24 242 474 
f 299 464 124 
f 332 449 335 
f 255 668 543 
f 10 565 280 
f 262 444 161 
f 474 387 24 
f 447 454 446 
f 344 524 687 
f 471 465 206 
f 700 354 699 
f 24 248 213 
f 600 397 355 
f 17 279 381 
f 82 244 406 
f 687 406 244 
f 406 687 484 
f 584 623 522 
f 482 355 397 
f 150 549 563 
f 309 209 78 
f 171 406 650 
f 393 668 576 
f 452 433 679 
f 126 206 261 
f 304 134 625 
f 406 171 82 
f 707 82 171 
f 275 37 276 
f 77 556 362 
f 242 24 363 
f 673 457 151 
f 699 553 700 
f 663 117 559 
f 306 531 398 
f 133 340 463 
f 409 100 294 
f 122 294 100 
f 456 563 549 
f 223 263 176 
f 551 497 692 
f 212 309 463 
f 294 212 409 
f 98 446 443 
f 184 427 234 
f 539 730 504 
f 424 687 244 
f 53 318 36 
f 112 46 656 
f 285 638 652 
f 486 264 205 
f 719 375 165 
f 596 50 316 
f 394 417 493 
f 505 615 214 
f 516 661 421 
f 592 705 63 
f 540 139 532 
f 247 80 448 
f 38 524 121 
f 43 75 325 
f 511 401 326 
f 285 308 638 
f 513 136 465 
f 672 655 634 
f 512 240 546 
f 344 424 440 
f 153 410 135 
f 465 261 206 
f 525 25 685 
f 591 684 155 
f 462 326 266 
f 269 346 207 
f 511 207 346 
f 693 207 267 
f 462 267 207 
f 295 47 342 
f 348 350 218 
f 318 156 350 
f 608 598 728 
f 342 122 13 
f 573 724 226 
f 350 348 346 
f 171 373 430 
f 36 29 693 
f 269 693 29 
f 66 514 17 
f 519 488 49 
f 508 433 669 
f 29 318 350 
f 61 258 426 
f 625 181 363 
f 211 631 628 
f 633 628 631 
f 53 159 657 
f 660 252 382 
f 346 269 350 
f 636 355 482 
f 713 418 111 
f 15 708 150 
f 148 697 7 
f 328 641 582 
f 1 728 598 
f 263 628 635 
f 328 657 159 
f 215 211 263 
f 509 508 673 
f 664 369 359 
f 684 388 732 
f 679 466 177 
f 309 212 20 
f 100 409 340 
f 20 45 309 
f 726 691 554 
f 468 631 357 
f 211 357 631 
f 215 451 425 
f 250 425 451 
f 49 38 695 
f 116 314 267 
f 428 533 178 
f 313 357 425 
f 691 170 521 
f 606 608 329 
f 127 418 579 
f 187 576 668 
f 403 56 84 
f 551 692 118 
f 73 486 557 
f 210 327 639 
f 492 587 15 
f 429 26 686 
f 593 290 230 
f 416 658 158 
f 666 611 54 
f 117 426 237 
f 229 671 169 
f 731 715 157 
f 118 692 209 
f 586 230 290 
f 14 222 130 
f 709 217 452 
f 51 5 336 
f 545 622 320 
f 653 714 683 
f 102 602 728 
f 335 449 630 
f 414 146 610 
f 114 411 201 
f 680 199 69 
f 226 571 238 
f 190 730 544 
f 571 226 459 
f 466 369 177 
f 199 411 69 
f 484 69 411 
f 197 499 356 
f 614 365 530 
f 343 214 615 
f 489 572 672 
f 670 204 367 
f 44 224 712 
f 367 530 365 
f 602 165 666 
f 553 448 454 
f 239 36 179 
f 14 734 222 
f 491 399 62 
f 367 365 681 
f 717 634 655 
f 609 339 137 
f 185 204 690 
f 468 566 620 
f 365 399 681 
f 367 681 670 
f 273 78 496 
f 559 492 663 
f 62 449 491 
f 577 720 683 
f 681 399 491 
f 293 370 335 
f 332 335 370 
f 332 491 449 
f 588 672 569 
f 81 184 59 
f 331 613 363 
f 68 426 258 
f 397 600 667 
f 68 258 62 
f 16 72 515 
f 253 320 622 
f 487 193 439 
f 706 448 80 
f 556 526 245 
f 663 15 563 
f 494 558 559 
f 36 239 53 
f 424 344 687 
f 134 395 181 
f 685 192 470 
f 11 436 519 
f 374 365 292 
f 661 158 298 
f 449 227 630 
f 200 64 9 
f 426 456 61 
f 291 560 665 
f 498 270 580 
f 30 274 42 
f 710 674 621 
f 216 527 339 
f 456 475 61 
f 238 157 489 
f 570 432 724 
f 256 90 475 
f 285 552 308 
f 258 61 227 
f 643 108 351 
f 274 227 90 
f 129 273 435 
f 623 133 522 
f 217 317 621 
f 369 709 177 
f 241 455 49 
f 186 431 236 
f 463 340 409 
f 486 73 188 
f 448 686 454 
f 113 268 313 
f 218 188 73 
f 357 313 349 
f 604 704 333 
f 256 475 268 
f 605 268 475 
f 524 38 729 
f 647 605 475 
f 58 156 318 
f 390 140 554 
f 718 58 694 
f 488 729 38 
f 318 53 360 
f 113 173 41 
f 642 35 715 
f 580 153 723 
f 447 446 31 
f 583 396 360 
f 71 190 474 
f 127 639 327 
f 368 671 473 
f 91 128 543 
f 629 85 341 
f 117 237 251 
f 521 554 691 
f 379 694 58 
f 582 419 660 
f 623 584 220 
f 362 263 77 
f 223 77 263 
f 724 27 570 
f 655 672 572 
f 373 171 534 
f 504 261 497 
f 734 272 502 
f 94 398 531 
f 193 40 154 
f 487 404 509 
f 96 503 219 
f 77 223 249 
f 140 390 501 
f 667 600 525 
f 356 501 197 
f 392 468 716 
f 408 459 226 
f 214 604 505 
f 25 525 600 
f 393 91 543 
f 317 710 621 
f 255 725 668 
f 352 483 312 
f 101 525 685 
f 667 96 722 
f 49 455 519 
f 522 645 584 
f 272 734 14 
f 510 388 427 
f 125 145 203 
f 676 512 697 
f 696 391 636 
f 389 115 52 
f 445 87 616 
f 557 501 73 
f 136 513 498 
f 248 246 28 
f 487 439 32 
f 320 364 74 
f 452 177 709 
f 391 355 636 
f 360 58 318 
f 129 189 22 
f 2 473 671 
f 262 624 481 
f 23 293 175 
f 393 543 668 
f 369 664 674 
f 348 218 627 
f 330 224 673 
f 205 557 486 
f 550 175 293 
f 249 51 77 
f 703 622 12 
f 617 386 57 
f 472 656 46 
f 506 422 384 
f 472 46 612 
f 25 89 685 
f 439 479 221 
f 595 440 424 
f 239 37 259 
f 257 616 87 
f 78 273 133 
f 144 726 251 
f 197 390 521 
f 306 712 669 
f 192 89 420 
f 719 609 375 
f 558 441 492 
f 499 197 521 
f 458 174 361 
f 52 477 442 
f 132 480 555 
f 370 681 491 
f 249 176 696 
f 558 494 376 
f 572 489 157 
f 609 359 339 
f 727 110 450 
f 659 253 703 
f 175 314 195 
f 80 389 52 
f 90 256 274 
f 712 224 330 
f 516 421 675 
f 92 19 155 
f 1 603 162 
f 618 235 412 
f 649 716 349 
f 529 106 202 
f 523 173 467 
f 537 126 334 
f 337 335 560 
f 268 113 256 
f 37 245 526 
f 321 202 106 
f 636 482 479 
f 711 72 619 
f 118 517 689 
f 351 251 237 
f 573 489 588 
f 193 487 40 
f 416 579 418 
f 41 256 113 
f 349 268 605 
f 246 458 564 
f 453 299 138 
f 531 306 698 
f 68 237 426 
f 264 486 154 
f 51 336 77 
f 430 10 707 
f 273 129 522 
f 152 153 538 
f 95 106 636 
f 184 81 427 
f 297 321 95 
f 677 39 147 
f 447 57 386 
f 5 529 202 
f 650 406 114 
f 145 88 210 
f 480 132 120 
f 57 13 107 
f 305 430 131 
f 165 602 343 
f 104 621 674 
f 591 155 19 
f 28 213 248 
f 723 460 644 
f 292 365 614 
f 421 152 581 
f 720 577 164 
f 231 479 396 
f 628 633 400 
f 502 500 203 
f 264 333 205 
f 722 482 397 
f 363 213 331 
f 3 95 479 
f 455 241 450 
f 84 720 142 
f 592 203 500 
f 128 91 578 
f 270 581 538 
f 95 636 479 
f 240 441 546 
f 572 383 655 
f 653 22 189 
f 37 275 245 
f 251 559 117 
f 490 145 210 
f 734 431 222 
f 42 41 173 
f 376 603 558 
f 439 193 379 
f 115 88 477 
f 682 608 606 
f 608 682 607 
f 510 427 81 
f 479 439 396 
f 379 360 439 
f 669 433 452 
f 695 121 19 
f 186 206 48 
f 436 11 141 
f 278 337 291 
f 554 494 726 
f 714 644 460 
f 16 515 353 
f 522 133 273 
f 469 420 89 
f 498 580 723 
f 725 312 542 
f 613 331 659 
f 110 272 271 
f 646 495 366 
f 568 721 708 
f 234 424 244 
f 400 469 628 
f 635 628 469 
f 172 131 430 
f 409 212 463 
f 508 420 407 
f 400 407 420 
f 639 581 210 
f 65 632 139 
f 546 558 603 
f 415 277 341 
f 14 499 272 
f 546 688 512 
f 133 463 78 
f 369 466 339 
f 440 121 344 
f 610 679 414 
f 509 404 420 
f 387 458 248 
f 358 415 93 
f 167 674 151 
f 595 427 388 
f 160 512 688 
f 325 279 43 
f 497 551 539 
f 48 678 186 
f 442 405 478 
f 41 42 274 
f 538 580 270 
f 450 701 254 
f 469 391 696 
f 487 151 674 
f 634 717 254 
f 301 17 514 
f 292 438 374 
f 577 683 714 
f 448 553 247 
f 176 249 223 
f 317 217 709 
f 529 249 106 
f 696 106 249 
f 672 588 489 
f 92 155 27 
f 35 478 405 
f 25 600 391 
f 475 456 647 
f 576 142 393 
f 518 63 405 
f 15 663 492 
f 675 579 516 
f 682 606 146 
f 484 114 406 
f 349 605 649 
f 520 395 334 
f 355 391 600 
f 300 384 654 
f 587 568 708 
f 603 376 205 
f 611 146 54 
f 192 685 89 
f 676 697 620 
f 130 356 499 
f 195 476 123 
f 319 582 641 
f 407 400 633 
f 490 236 734 
f 204 185 367 
f 687 524 640 
f 713 354 312 
f 306 398 712 
f 713 312 483 
f 732 27 155 
f 27 724 588 
f 620 372 631 
f 399 374 108 
f 404 32 503 
f 520 334 71 
f 101 503 96 
f 31 196 57 
f 128 298 575 
f 465 471 513 
f 633 372 148 
f 590 228 302 
f 503 101 470 
f 494 554 140 
f 151 487 673 
f 503 470 404 
f 438 132 64 
f 86 139 632 
f 97 378 601 
f 375 666 165 
f 167 99 104 
f 99 44 94 
f 567 392 233 
f 397 667 722 
f 514 547 301 
f 532 116 540 
f 214 343 704 
f 469 696 176 
f 255 260 725 
f 390 197 501 
f 88 115 327 
f 668 67 584 
f 221 722 219 
f 160 688 607 
f 637 455 110 
f 180 80 478 
f 624 196 98 
f 31 98 196 
f 13 57 18 
f 622 703 253 
f 57 196 18 
f 320 253 326 
f 380 164 574 
f 20 296 55 
f 111 327 115 
f 152 421 410 
f 20 212 296 
f 679 610 466 
f 451 362 556 
f 98 31 446 
f 340 107 100 
f 549 233 647 
f 617 107 133 
f 44 712 398 
f 266 659 21 
f 329 728 602 
f 277 415 562 
f 689 361 174 
f 311 594 596 
f 59 459 81 
f 317 369 710 
f 57 107 617 
f 568 587 39 
f 63 705 157 
f 51 249 529 
f 547 302 60 
f 731 157 238 
f 339 359 369 
f 244 82 429 
f 368 402 225 
f 658 260 575 
f 609 719 359 
f 63 518 592 
f 247 699 389 
f 125 442 477 
f 554 521 390 
f 121 440 591 
f 188 218 718 
f 701 19 569 
f 727 450 717 
f 570 732 388 
f 143 201 411 
f 13 122 100 
f 139 535 532 
f 540 266 65 
f 52 478 80 
f 577 714 135 
f 98 481 624 
f 172 461 131 
f 29 36 318 
f 719 165 615 
f 270 498 513 
f 212 294 316 
f 645 522 22 
f 418 483 416 
f 441 240 39 
f 141 345 120 
f 26 444 443 
f 480 271 499 
f 653 189 644 
f 30 276 630 
f 221 32 439 
f 410 574 164 
f 649 647 233 
f 454 447 386 
f 459 59 571 
f 333 264 604 
f 83 644 189 
f 434 168 593 
f 93 626 79 
f 574 410 421 
f 31 57 447 
f 501 356 364 
f 553 454 386 
f 221 479 482 
f 69 530 680 
f 188 154 486 
f 686 26 446 
f 162 205 333 
f 548 316 294 
f 606 329 54 
f 254 717 450 
f 435 496 83 
f 478 52 442 
f 429 347 26 
f 642 571 59 
f 26 443 446 
f 290 593 168 
f 206 126 537 
f 242 181 395 
f 706 234 429 
f 395 134 235 
f 109 539 551 
f 108 374 438 
f 311 586 485 
f 364 320 401 
f 222 678 618 
f 668 725 67 
f 691 726 9 
f 103 174 413 
f 504 730 190 
f 414 607 682 
f 56 22 653 
f 587 492 441 
f 7 414 679 
f 7 679 148 
f 648 341 85 
f 103 118 174 
f 424 234 595 
f 525 101 667 
f 598 608 688 
f 437 319 641 
f 250 467 173 
f 124 138 299 
f 361 689 229 
f 453 689 517 
f 662 343 602 
f 174 118 689 
f 729 640 524 
f 306 452 698 
f 229 8 361 
f 386 700 553 
f 594 464 50 
f 615 359 719 
f 375 137 666 
f 272 149 502 
f 458 361 564 
f 530 367 185 
f 339 466 216 
f 324 419 323 
f 493 79 626 
f 8 229 232 
f 314 532 195 
f 539 599 730 
f 164 135 410 
f 343 615 165 
f 691 555 170 
f 82 10 347 
f 54 146 606 
f 7 512 160 
f 413 174 387 
f 558 546 441 
f 725 220 67 
f 130 499 14 
f 21 659 331 
f 218 350 718 
f 479 231 322 
f 403 84 576 
f 478 35 180 
f 219 722 96 
f 504 71 126 
f 467 33 523 
f 439 360 396 
f 687 640 484 
f 135 164 577 
f 102 333 704 
f 73 627 218 
f 570 388 432 
f 302 711 590 
f 557 205 376 
f 83 189 435 
f 22 56 645 
f 35 642 180 
f 708 721 567 
f 16 619 72 
f 10 280 347 
f 697 148 372 
f 29 350 269 
f 549 647 456 
f 551 118 103 
f 539 109 599 
f 272 499 271 
f 76 498 723 
f 625 703 304 
f 420 404 192 
f 683 56 653 
f 428 178 138 
f 702 225 402 
f 326 462 511 
f 454 686 446 
f 614 530 729 
f 578 720 380 
f 618 412 222 
f 650 534 171 
f 271 480 345 
f 333 102 162 
f 109 103 4 
f 665 179 291 
f 665 276 37 
f 147 676 620 
f 654 590 711 
f 527 137 339 
f 579 675 127 
f 698 217 531 
f 731 238 571 
f 725 352 312 
f 581 270 210 
f 182 166 500 
f 583 53 382 
f 449 62 258 
f 34 402 178 
f 634 569 672 
f 431 734 236 
f 716 649 392 
f 657 382 53 
f 507 183 733 
f 81 432 510 
f 147 39 240 
f 144 351 9 
f 210 513 471 
f 648 415 341 
f 135 460 153 
f 524 344 121 
f 82 347 429 
f 220 725 542 
f 440 595 684 
f 649 605 647 
f 303 325 75 
f 388 684 595 
f 8 564 361 
f 140 376 494 
f 659 326 253 
f 458 387 174 
f 423 231 396 
f 563 117 663 
f 357 349 468 
f 352 725 260 
f 599 4 730 
f 148 433 633 
f 637 519 455 
f 403 645 56 
f 58 718 156 
f 250 313 425 
f 109 4 599 
f 575 543 128 
f 721 677 566 
f 305 131 163 
f 19 701 695 
