v 4 0 0
v 3.866025 0 0.5
v 0 -2 -0
v 0 -4 0
v 3.464102 -1.999999 0
v 2.133975 0 0.5
v 2 0 -0
v 2.133975 0 -0.5
v 2.5 0 -0.866025
v 1.035276 -3.863703 0
v 3.5059433 -0.38625002 -0.86620426
v 3.866025 0 -0.5
v 3.863703 1.035276 0
v 3.734294 1.000601 0.5
v 3.5001945 0.38154125 0.8708029
v 3.0700073 -0.08392048 0.99830294
v 2.4851904 0.37825453 0.86064816
v 2.061261 0.552313 0.5
v 1.931852 0.517638 -0
v 1.000601 -3.734294 -0.5
v 1.414214 -1.414213 -0
v 3.734294 -1.0006 0.5
v 3.38074 0.905867 -0.866025
v 3.734294 1.000601 -0.5
v 3.464102 2 0
v 3.348076 1.933013 0.5
v 3.031089 1.75 0.866025
v 2.598076 1.5 1
v 2.165063 1.25 0.866025
v 1.848076 1.066987 0.5
v 1.732051 1 -0
v 1.9964085 0.79745483 -0.49231339
v 2.3413658 0.9150137 -0.8606461
v 2.9903908 0.69920635 -1.0008329
v 3.031089 1.75 -0.866025
v 3.348076 1.933013 -0.5
v 2.828427 2.828427 0
v 2.733693 2.733693 0.5
v 2.474874 2.474874 0.866025
v 3.863703 -1.035275 0
v 1.508949 -1.508947 -0.5
v 0.905867 -3.38074 -0.866025
v 2.474874 -2.474873 -0.866025
v -0.37825686 -2.485192 -0.8606484
v 1.767767 1.767767 -0.866025
v 2.12132 2.12132 -1
v 2.474874 2.474874 -0.866025
v 2.733693 2.733693 -0.5
v 2 3.464102 0
v 1.933013 3.348076 0.5
v 1.75 3.031089 0.866025
v 1.8414879 2.3998787 0.9999998
v 1.4898298 2.0247624 0.86064804
v 1.2869945 1.7219865 0.4923091
v 1.2193072 1.6092519 -0.0005478263
v 1.3553454 1.6715913 -0.5005703
v 1.767768 -1.767766 -0.866025
v 1.9755588 -0.84779084 -0.49231434
v 0 -2.133975 0.5
v 1.933013 3.348076 -0.5
v 1.035276 3.863703 0
v 1.000601 3.734294 0.5
v 0.905867 3.38074 0.866025
v 0.905867 -3.38074 0.866025
v 0.647048 2.414814 0.866025
v 0.552313 2.061261 0.5
v 0.517638 1.931852 -0
v 0.552313 2.061261 -0.5
v 1.0085852 2.3026106 -0.8606489
v 2.3640862 -0.8817451 0.8686302
v 1.2744684 3.2821817 -0.8708019
v 1.000601 3.734294 -0.5
v -0 4 0
v -0 3.866025 0.5
v -0.38153934 -3.5001965 -0.87079906
v 1.9965284 -0.7970247 0.492599
v 3.03109 -1.749999 -0.866025
v 0.08392358 -3.0700085 -0.99830276
v 2.733694 -2.733692 0.5
v 0.7970247 -1.9965291 -0.492599
v 2.087883 -2.8416443 0.86702156
v 0.71351314 2.987121 -0.99830294
v -0 3.5 -0.866025
v -0 3.866025 -0.5
v -1.035277 3.863703 0
v -1.000601 3.734294 0.5
v -0.381742 3.5000439 0.87090397
v 0.06824207 3.0652483 0.99942195
v -0.37825507 2.485192 0.8606485
v -0.30759025 2.1276684 0.49231386
v -0.26385838 2.004575 8.727424e-06
v -0.25312233 2.134785 -0.49259806
v -0.23982894 2.5117443 -0.8686297
v 1.8679819 -0.7736859 -9.506708e-06
v -0.905867 3.38074 -0.866025
v -1.000601 3.734294 -0.5
v -2 3.464102 0
v -1.933013 3.348076 0.5
v -1.75 3.031089 0.866025
v -1.5 2.598076 1
v -1.25 2.165063 0.866025
v -1.066987 1.848076 0.5
v -1 1.732051 -0
v -1.066988 1.848076 -0.5
v -1.25 2.165063 -0.866025
v -1.1863537 2.7849722 -0.9995581
v -1.75 3.031089 -0.866025
v -1.933013 3.348076 -0.5
v -2.828427 2.828427 0
v -2.733693 2.733693 0.5
v -2.474874 2.474874 0.866025
v 3.380741 -0.905866 0.866025
v 3.348077 -1.933012 0.5
v 0 -2.133975 -0.5
v -1.414214 1.414214 -0
v -1.508948 1.508948 -0.5
v 2.733694 -2.733692 -0.5
v 3.734294 -1.0006 -0.5
v -2.474874 2.474874 -0.866025
v -2.733693 2.733693 -0.5
v -3.464102 2 0
v -3.348076 1.933013 0.5
v -3.031089 1.75 0.866025
v -2.399876 1.8414931 1.0000004
v -2.0247617 1.4898314 0.8606484
v -1.7219853 1.286994 0.4923153
v -1.732051 1 -0
v -1.848076 1.066988 -0.5
v -1.9631085 1.5701776 -0.86064804
v -2.399873 1.8414884 -1.0000002
v 0 -3.866025 0.5
v -3.348076 1.933013 -0.5
v -3.863703 1.035276 0
v -3.734294 1.000601 0.5
v -3.380741 0.905866 0.866025
v 2 -3.464102 0
v -2.414815 0.647047 0.866025
v -2.061261 0.552313 0.5
v 0 -3.866025 -0.5
v 1.75 -3.031089 -0.866025
v 1.767768 -1.767766 0.866025
v 1.000601 -3.734294 0.5
v -3.2861128 1.2806916 -0.866498
v -3.734294 1.000601 -0.5
v -4 -0 0
v -3.866025 -0 0.5
v -3.5 -0 0.866025
v -3.0059927 0.3857572 0.9999387
v 1.508948 -1.508947 0.5
v 1.0085882 -2.3026063 0.8606485
v -2.0004056 0.287552 -0.0075002313
v -2.1275568 0.30802035 -0.49259758
v -2.4882321 0.41842625 -0.8686304
v 3.03109 -1.749999 0.866025
v -3.5 -0 -0.866025
v -3.866025 -0 -0.5
v -3.863703 -1.035276 0
v -3.734294 -1.000601 0.5
v -3.38074 -0.905867 0.866025
v 2.3026102 -1.0085828 -0.86064744
v -2.489833 -0.38469213 0.8674067
v -2.127572 -0.30784202 0.49231434
v -1.931852 -0.517638 -0
v -2.061261 -0.552313 -0.5
v -2.414814 -0.647048 -0.866025
v -3.0794115 0.044492245 -0.9985814
v -3.38074 -0.905867 -0.866025
v -3.734294 -1.000601 -0.5
v -3.464101 -2.000001 0
v -3.348076 -1.933013 0.5
v -3.031088 -1.750001 0.866025
v 1.933012 -3.348076 -0.5
v 2.828428 -2.828426 0
v -1.848076 -1.066988 0.5
v -1.732051 -1 -0
v 0.7541745 -2.9757137 0.999503
v 2.3830318 -1.8667281 0.9995575
v 2.7947135 -1.1576123 -1
v -3.031088 -1.750001 -0.866025
v -3.348076 -1.933013 -0.5
v -2.828427 -2.828428 0
v -2.733692 -2.733693 0.5
v 0 -3.5 0.866025
v -2.6419935 -1.5828468 0.99819356
v -1.9672949 -1.5847944 0.86881244
v 0.8817513 -2.364084 -0.86863005
v 0.84779584 -1.9755592 0.49231386
v -1.7219881 -1.2869906 -0.49231482
v -2.024763 -1.4898267 -0.8606479
v -2.3998735 -1.8414903 -0.99999946
v -2.474873 -2.474874 -0.866025
v -2.733692 -2.733693 -0.5
v -2 -3.464102 0
v -1.933012 -3.348076 0.5
v -2.2054877 -2.7521858 0.8664942
v 3.348077 -1.933012 -0.5
v 1.933012 -3.348076 0.5
v -1.2758691 -1.7271056 0.49865437
v -1.2170932 -1.6118674 0.0076913834
v -1.066987 -1.848076 -0.5
v -1.25 -2.165064 -0.866025
v -1.5 -2.598076 -1
v -1.75 -3.031089 -0.866025
v -1.933012 -3.348076 -0.5
v -1.035276 -3.863703 0
v -1.000601 -3.734294 0.5
v -0.905866 -3.380741 0.866025
v -1.1576118 -2.7947145 0.9999999
v -0.91501737 -2.3413644 0.8606471
v -0.552313 -2.061261 0.5
v -0.517638 -1.931852 -0
v -0.552313 -2.061261 -0.5
v 1.8667254 -2.3830266 -0.99955803
v 0.77368903 -1.8679801 9.066658e-06
v 0 -2.5 0.866025
v -1.000601 -3.734294 -0.5
f 14 2 1 
f 1 13 14 
f 3 214 80 
f 2 14 15 
f 142 131 4 
f 80 114 3 
f 5 40 22 
f 12 118 11 
f 18 6 17 
f 22 113 5 
f 19 7 6 
f 6 18 19 
f 32 8 7 
f 7 19 32 
f 33 9 8 
f 8 32 33 
f 10 136 197 
f 9 33 34 
f 23 11 34 
f 197 142 10 
f 24 12 11 
f 11 23 24 
f 13 1 12 
f 12 24 13 
f 26 14 13 
f 13 25 26 
f 27 15 14 
f 14 26 27 
f 28 16 15 
f 15 27 28 
f 29 17 16 
f 16 28 29 
f 30 18 17 
f 17 29 30 
f 31 19 18 
f 18 30 31 
f 20 172 136 
f 19 31 32 
f 21 94 58 
f 136 10 20 
f 22 2 15 
f 58 41 21 
f 35 23 34 
f 15 112 22 
f 36 24 23 
f 23 35 36 
f 25 13 24 
f 24 36 25 
f 38 26 25 
f 25 37 38 
f 39 27 26 
f 26 38 39 
f 52 28 27 
f 27 39 52 
f 53 29 28 
f 28 52 53 
f 54 30 29 
f 29 53 54 
f 55 31 30 
f 30 54 55 
f 56 32 31 
f 31 55 56 
f 45 33 32 
f 32 56 45 
f 46 34 33 
f 33 45 46 
f 47 35 34 
f 34 46 47 
f 48 36 35 
f 35 47 48 
f 37 25 36 
f 36 48 37 
f 50 38 37 
f 37 49 50 
f 51 39 38 
f 38 50 51 
f 40 1 2 
f 39 51 52 
f 41 58 160 
f 2 22 40 
f 42 140 172 
f 160 57 41 
f 214 21 41 
f 172 20 42 
f 44 186 78 
f 42 75 78 
f 69 45 56 
f 196 117 43 
f 82 46 45 
f 45 69 82 
f 71 47 46 
f 46 82 71 
f 60 48 47 
f 47 71 60 
f 49 37 48 
f 48 60 49 
f 62 50 49 
f 49 61 62 
f 63 51 50 
f 50 62 63 
f 88 52 51 
f 51 63 88 
f 65 53 52 
f 52 88 65 
f 66 54 53 
f 53 65 66 
f 67 55 54 
f 54 66 67 
f 68 56 55 
f 55 67 68 
f 57 160 178 
f 56 68 69 
f 58 8 9 
f 178 213 57 
f 59 187 214 
f 9 160 58 
f 72 60 71 
f 214 3 59 
f 61 49 60 
f 60 72 61 
f 74 62 61 
f 61 73 74 
f 87 63 62 
f 62 74 87 
f 64 81 176 
f 63 87 88 
f 89 65 88 
f 70 17 6 
f 90 66 65 
f 65 89 90 
f 91 67 66 
f 66 90 91 
f 92 68 67 
f 67 91 92 
f 93 69 68 
f 68 92 93 
f 6 76 70 
f 69 93 82 
f 83 71 82 
f 43 77 196 
f 84 72 71 
f 71 83 84 
f 73 61 72 
f 72 84 73 
f 86 74 73 
f 73 85 86 
f 20 139 75 
f 74 86 87 
f 76 6 7 
f 150 215 176 
f 70 141 177 
f 7 94 76 
f 78 213 140 
f 154 112 16 
f 154 81 79 
f 140 42 78 
f 80 41 57 
f 213 78 186 
f 81 154 177 
f 57 186 80 
f 106 82 93 
f 77 11 118 
f 95 83 82 
f 82 106 95 
f 96 84 83 
f 83 95 96 
f 85 73 84 
f 84 96 85 
f 98 86 85 
f 85 97 98 
f 99 87 86 
f 86 98 99 
f 100 88 87 
f 87 99 100 
f 101 89 88 
f 88 100 101 
f 102 90 89 
f 89 101 102 
f 103 91 90 
f 90 102 103 
f 104 92 91 
f 91 103 104 
f 105 93 92 
f 92 104 105 
f 8 58 94 
f 93 105 106 
f 107 95 106 
f 11 77 178 
f 108 96 95 
f 95 107 108 
f 97 85 96 
f 96 108 97 
f 110 98 97 
f 97 109 110 
f 111 99 98 
f 98 110 111 
f 124 100 99 
f 99 111 124 
f 125 101 100 
f 100 124 125 
f 126 102 101 
f 101 125 126 
f 115 103 102 
f 102 126 115 
f 116 104 103 
f 103 115 116 
f 129 105 104 
f 104 116 129 
f 130 106 105 
f 105 129 130 
f 119 107 106 
f 106 130 119 
f 120 108 107 
f 107 119 120 
f 109 97 108 
f 108 120 109 
f 122 110 109 
f 109 121 122 
f 123 111 110 
f 110 122 123 
f 112 15 16 
f 111 123 124 
f 113 22 112 
f 41 80 214 
f 186 44 114 
f 112 154 113 
f 127 115 126 
f 177 176 81 
f 128 116 115 
f 115 127 128 
f 117 196 5 
f 116 128 129 
f 118 12 1 
f 5 173 117 
f 143 119 130 
f 1 40 118 
f 132 120 119 
f 119 143 132 
f 121 109 120 
f 120 132 121 
f 134 122 121 
f 121 133 134 
f 135 123 122 
f 122 134 135 
f 148 124 123 
f 123 135 148 
f 137 125 124 
f 124 148 137 
f 138 126 125 
f 125 137 138 
f 151 127 126 
f 126 138 151 
f 152 128 127 
f 127 151 152 
f 153 129 128 
f 128 152 153 
f 166 130 129 
f 129 153 166 
f 131 142 64 
f 130 166 143 
f 144 132 143 
f 64 183 131 
f 133 121 132 
f 132 144 133 
f 146 134 133 
f 133 145 146 
f 147 135 134 
f 134 146 147 
f 79 197 136 
f 135 147 148 
f 161 137 148 
f 197 79 81 
f 162 138 137 
f 137 161 162 
f 139 20 10 
f 138 162 151 
f 140 43 117 
f 10 4 139 
f 141 70 76 
f 117 172 140 
f 142 197 81 
f 76 149 141 
f 155 143 166 
f 81 64 142 
f 156 144 143 
f 143 155 156 
f 145 133 144 
f 144 156 145 
f 158 146 145 
f 145 157 158 
f 159 147 146 
f 146 158 159 
f 184 148 147 
f 147 159 184 
f 149 76 94 
f 148 184 161 
f 150 141 149 
f 94 21 149 
f 163 151 162 
f 149 187 150 
f 164 152 151 
f 151 163 164 
f 165 153 152 
f 152 164 165 
f 16 177 154 
f 153 165 166 
f 167 155 166 
f 94 7 8 
f 168 156 155 
f 155 167 168 
f 157 145 156 
f 156 168 157 
f 170 158 157 
f 157 169 170 
f 171 159 158 
f 158 170 171 
f 160 9 34 
f 159 171 184 
f 185 161 184 
f 34 178 160 
f 174 162 161 
f 161 185 174 
f 175 163 162 
f 162 174 175 
f 188 164 163 
f 163 175 188 
f 189 165 164 
f 164 188 189 
f 190 166 165 
f 165 189 190 
f 179 167 166 
f 166 190 179 
f 180 168 167 
f 167 179 180 
f 169 157 168 
f 168 180 169 
f 182 170 169 
f 169 181 182 
f 195 171 170 
f 170 182 195 
f 172 117 173 
f 171 195 184 
f 173 5 113 
f 173 136 172 
f 198 174 185 
f 113 79 173 
f 199 175 174 
f 174 198 199 
f 176 177 141 
f 175 199 188 
f 177 16 70 
f 141 150 176 
f 178 34 11 
f 118 196 77 
f 191 179 190 
f 4 10 142 
f 192 180 179 
f 179 191 192 
f 181 169 180 
f 180 192 181 
f 194 182 181 
f 181 193 194 
f 183 64 176 
f 182 194 195 
f 208 184 195 
f 75 42 20 
f 209 185 184 
f 184 208 209 
f 114 80 186 
f 185 209 198 
f 21 214 187 
f 79 113 154 
f 200 188 199 
f 186 57 213 
f 201 189 188 
f 188 200 201 
f 202 190 189 
f 189 201 202 
f 203 191 190 
f 190 202 203 
f 204 192 191 
f 191 203 204 
f 193 181 192 
f 192 204 193 
f 206 194 193 
f 193 205 206 
f 207 195 194 
f 194 206 207 
f 196 118 40 
f 195 207 208 
f 43 140 213 
f 40 5 196 
f 210 198 209 
f 136 173 79 
f 211 199 198 
f 198 210 211 
f 212 200 199 
f 199 211 212 
f 44 201 200 
f 200 212 44 
f 78 202 201 
f 201 44 78 
f 75 203 202 
f 202 78 75 
f 216 204 203 
f 203 75 216 
f 205 193 204 
f 204 216 205 
f 131 206 205 
f 205 4 131 
f 183 207 206 
f 206 131 183 
f 176 208 207 
f 207 183 176 
f 215 209 208 
f 208 176 215 
f 59 210 209 
f 209 215 59 
f 3 211 210 
f 210 59 3 
f 114 212 211 
f 211 3 114 
f 213 178 77 
f 212 114 44 
f 187 149 21 
f 77 43 213 
f 215 150 187 
f 17 70 16 
f 139 216 75 
f 187 59 215 
f 4 205 216 
f 216 139 4 
