v -2.127572 -0.30784202 0.49231434
v 2.3809566 -1.974683 -1.0006652
v -0.25067696 -2.0098073 0.009734809
v -3.3022764 -0.35322654 0.9943124
v 3.464102 -1.999999 0
v -1.2170932 -1.6118674 0.0076913834
v -0.6394241 -3.7352753 0.67958355
v 2.133975 0 -0.5
v -3.866025 -0 -0.5
v 1.035276 -3.863703 0
v 3.5059433 -0.38625002 -0.86620426
v 3.8560305 -0.45039654 -0.5317097
v 3.863703 1.035276 0
v 3.8563938 0.45038795 0.53097343
v 3.5001945 0.38154125 0.8708029
v 3.0700073 -0.08392048 0.99830294
v -3.7311227 -1.529706 -0.09644285
v 2.13421 0.2816708 0.49313593
v 2.0054605 0.2130668 -0.0018763244
v 1.000601 -3.734294 -0.5
v 1.414214 -1.414213 -0
v 1.508948 -1.508947 0.5
v 3.129919 0.9882426 -0.9918251
v 3.734294 1.000601 -0.5
v 3.464102 2 0
v 3.348076 1.933013 0.5
v 3.031089 1.75 0.866025
v -3.8559513 -0.45034313 0.531868
v 2.404811 0.8841663 0.871814
v 1.848076 1.066987 0.5
v 1.732051 1 -0
v 1.9964085 0.79745483 -0.49231339
v 2.5095332 0.45875835 -0.8510163
v -1.8583704 -0.769125 -1.1948636e-05
v -1.933012 -3.348076 -0.5
v -2.8665833 -1.5682817 1.0005263
v 2.4280274 3.2149527 0.09146306
v -3.409821 -1.5534934 -0.7395263
v -0.86004263 -1.9658685 -0.5022607
v 3.9901714 -0.5564501 -0.091332704
v 1.508949 -1.508947 -0.5
v 0.905867 -3.38074 -0.866025
v 2.1964967 -2.746498 -0.8742838
v -0.7985441 -2.4306931 -0.8673053
v -2 -3.464102 0
v -2.2822175 -1.1423402 -0.8648317
v 3.348077 -1.933012 -0.5
v 2.9366794 2.404214 -0.6747427
v -4 -0 0
v 2.4079878 3.0457716 0.5309353
v 2.1955848 2.7469988 0.8744869
v 2.219356 2.1429892 1.000349
v -2.733692 -2.733693 -0.5
v 1.2869945 1.7219865 0.4923091
v 1.2193072 1.6092519 -0.0005478263
v 1.3553454 1.6715913 -0.5005703
v -2.1338959 -2.2241876 -0.9993031
v 1.9755588 -0.84779084 -0.49231434
v -0.2319398 -2.141557 0.50389814
v 0.8817513 -2.364084 -0.86863005
v 1.035276 3.863703 0
v 1.000601 3.734294 0.5
v 0.905867 3.38074 0.866025
v -2.1275568 0.30802035 -0.49259758
v 1.1011485 2.295327 0.8655784
v 0.552313 2.061261 0.5
v 0.517638 1.931852 -0
v 0.552313 2.061261 -0.5
v 1.4106666 2.1373956 -0.86831033
v 2.3640862 -0.8817451 0.8686302
v 1.0480272 3.1054664 -1.0015259
v 1.4631634 3.5990915 -0.5391636
v -0 4 0
v 2.3830318 -1.8667281 0.9995575
v -0.38153934 -3.5001965 -0.87079906
v 1.9965284 -0.7970247 0.492599
v 3.03109 -1.749999 -0.866025
v 0.08392358 -3.0700085 -0.99830276
v -1.9672949 -1.5847944 0.86881244
v 0.7970247 -1.9965291 -0.492599
v 2.2200155 -3.050043 0.70901203
v -2.061261 -0.552313 -0.5
v -0.08042717 3.7644863 -0.65865517
v -2.489833 -0.38469213 0.8674067
v -1.035277 3.863703 0
v -0.45040035 3.8563957 0.5309715
v -0.381742 3.5000439 0.87090397
v 0.06824207 3.0652483 0.99942195
v -3.2290182 0.076306105 -1.0069712
v -0.30759025 2.1276684 0.49231386
v -0.26385838 2.004575 8.727424e-06
v -0.25312233 2.134785 -0.49259806
v -0.23982894 2.5117443 -0.8686297
v 1.8679819 -0.7736859 -9.506708e-06
v 0.77368903 -1.8679801 9.066658e-06
v -2.4882321 0.41842625 -0.8686304
v -2 3.464102 0
v -1.933013 3.348076 0.5
v -1.75 3.031089 0.866025
v -2.098175 -2.8286762 -0.8737459
v -0.8672073 2.4126575 0.87119365
v -1.066987 1.848076 0.5
v -1 1.732051 -0
v -1.066988 1.848076 -0.5
v 0.84779584 -1.9755592 0.49231386
v -1.7219881 -1.2869906 -0.49231482
v -1.4108031 3.2214117 -0.8742838
v -1.5376937 3.5652084 -0.5309124
v -2.828427 2.828427 0
v -2.828427 -2.828428 0
v -3.1530323 -2.292182 0.49798203
v 3.4507003 -1.5391953 0.7271795
v 2.1131086 -1.410302 -0.85362554
v 0 -2.133975 -0.5
v -1.933012 -3.348076 0.5
v -0.5273776 -4.004425 0.0005902648
v 2.408055 -3.0457325 -0.53090096
v 0.7737279 -3.1676857 1.0021225
v -2.474874 2.474874 -0.866025
v -2.733693 2.733693 -0.5
v -3.464102 2 0
v -3.045703 2.408025 0.5309963
v -2.747201 2.1967874 0.87377644
v -2.114269 2.2390895 0.999809
v -1.2758691 -1.7271056 0.49865437
v -1.7219853 1.286994 0.4923153
v -1.6221682 1.2118108 -0.00065173017
v -1.7074432 1.3110402 -0.49313402
v -1.6933827 1.8996775 -0.8494476
v -1.8274528 2.511109 -1.0005295
v -2.0004056 0.287552 -0.0075002313
v -1.848076 -1.066988 0.5
v -3.863703 1.035276 0
v -3.6110868 1.0485927 0.66517925
v -2.1482964 -2.5900307 0.97484326
v 2.4648147 -3.2012062 0.013494432
v -2.297952 1.0969697 0.86622787
v -2.061261 0.552313 0.5
v -0.44983864 -3.8533626 -0.5375366
v -0.5548363 -2.4971628 0.85750437
v 1.4089862 -2.1318796 0.8672271
v 1.000601 -3.734294 0.5
v -3.2861128 1.2806916 -0.866498
v -3.60806 1.4330854 -0.53170586
f 116 10 142 
f 40 13 14 
f 3 95 80 
f 100 38 57 
f 142 7 116 
f 80 114 3 
f 5 40 112 
f 79 140 125 
f 75 42 20 
f 23 2 113 
f 36 4 28 
f 114 39 3 
f 32 8 19 
f 94 19 8 
f 17 110 111 
f 8 32 33 
f 10 136 81 
f 9 38 17 
f 17 49 9 
f 81 142 10 
f 24 12 11 
f 11 23 24 
f 13 40 12 
f 12 24 13 
f 26 14 13 
f 13 25 26 
f 27 15 14 
f 14 26 27 
f 52 16 15 
f 15 27 52 
f 111 28 17 
f 16 52 29 
f 30 18 29 
f 135 36 111 
f 31 19 18 
f 18 30 31 
f 20 117 136 
f 19 31 32 
f 21 94 58 
f 136 10 20 
f 112 14 15 
f 58 41 21 
f 118 74 141 
f 94 21 22 
f 48 24 23 
f 106 82 34 
f 25 13 24 
f 24 48 25 
f 50 26 25 
f 25 37 50 
f 51 27 26 
f 26 50 51 
f 47 12 40 
f 27 51 52 
f 65 29 52 
f 78 57 44 
f 54 30 29 
f 29 65 54 
f 55 31 30 
f 30 54 55 
f 56 32 31 
f 31 55 56 
f 69 33 32 
f 32 56 69 
f 71 23 33 
f 33 69 71 
f 35 139 116 
f 23 71 48 
f 36 135 140 
f 116 45 35 
f 37 25 48 
f 140 79 36 
f 38 53 110 
f 89 57 38 
f 39 114 44 
f 110 17 38 
f 1 132 34 
f 57 78 75 
f 41 58 113 
f 14 112 40 
f 42 43 117 
f 75 100 57 
f 95 21 41 
f 117 20 42 
f 44 60 78 
f 42 75 78 
f 45 116 7 
f 47 117 43 
f 105 22 21 
f 7 115 45 
f 114 80 60 
f 34 6 106 
f 105 59 140 
f 48 71 72 
f 77 43 2 
f 48 72 37 
f 62 50 37 
f 37 61 62 
f 63 51 50 
f 50 62 63 
f 88 52 51 
f 51 63 88 
f 53 35 45 
f 52 88 65 
f 66 54 65 
f 45 110 53 
f 67 55 54 
f 54 66 67 
f 68 56 55 
f 55 67 68 
f 125 59 3 
f 56 68 69 
f 58 8 33 
f 46 44 57 
f 59 105 95 
f 33 113 58 
f 21 95 105 
f 95 3 59 
f 61 37 72 
f 57 89 46 
f 86 62 61 
f 61 73 86 
f 87 63 62 
f 62 86 87 
f 64 82 46 
f 63 87 88 
f 101 65 88 
f 70 29 18 
f 90 66 65 
f 65 101 90 
f 91 67 66 
f 66 90 91 
f 92 68 67 
f 67 91 92 
f 93 69 68 
f 68 92 93 
f 18 76 70 
f 69 93 71 
f 82 106 46 
f 43 77 47 
f 83 72 71 
f 84 79 132 
f 73 61 72 
f 72 83 73 
f 12 47 77 
f 73 85 86 
f 20 139 75 
f 2 23 11 
f 76 18 19 
f 141 140 118 
f 70 141 74 
f 19 94 76 
f 78 2 43 
f 59 125 140 
f 22 105 141 
f 43 42 78 
f 80 41 113 
f 2 78 60 
f 81 112 74 
f 113 60 80 
f 130 71 93 
f 77 11 12 
f 107 83 71 
f 71 130 107 
f 132 1 84 
f 83 107 108 
f 85 73 83 
f 83 108 85 
f 98 86 85 
f 85 97 98 
f 99 87 86 
f 86 98 99 
f 124 88 87 
f 87 99 124 
f 135 118 140 
f 88 124 101 
f 102 90 101 
f 38 9 89 
f 103 91 90 
f 90 102 103 
f 104 92 91 
f 91 103 104 
f 129 93 92 
f 92 104 129 
f 8 58 94 
f 93 129 130 
f 29 70 16 
f 11 77 2 
f 38 100 53 
f 140 141 105 
f 97 85 108 
f 125 132 79 
f 122 98 97 
f 97 109 122 
f 123 99 98 
f 98 122 123 
f 100 75 139 
f 99 123 124 
f 137 101 124 
f 139 35 100 
f 126 102 101 
f 101 137 126 
f 127 103 102 
f 102 126 127 
f 128 104 103 
f 103 127 128 
f 60 113 2 
f 104 128 129 
f 106 39 44 
f 39 106 6 
f 119 107 130 
f 44 46 106 
f 120 108 107 
f 107 119 120 
f 109 97 108 
f 108 120 109 
f 110 45 115 
f 109 121 122 
f 136 5 112 
f 115 111 110 
f 112 15 16 
f 49 17 28 
f 79 84 36 
f 41 80 95 
f 60 44 114 
f 96 46 89 
f 7 135 115 
f 74 118 81 
f 28 111 36 
f 118 135 7 
f 117 47 5 
f 6 3 39 
f 74 16 70 
f 5 136 117 
f 143 119 130 
f 40 5 47 
f 144 120 119 
f 119 143 144 
f 121 109 120 
f 120 144 121 
f 134 122 121 
f 121 133 134 
f 134 123 122 
f 82 64 131 
f 4 124 123 
f 123 134 4 
f 3 6 125 
f 124 4 137 
f 138 126 137 
f 35 53 100 
f 131 127 126 
f 126 138 131 
f 64 128 127 
f 127 131 64 
f 96 129 128 
f 128 64 96 
f 89 130 129 
f 129 96 89 
f 7 142 118 
f 130 89 143 
f 132 125 6 
f 131 34 82 
f 133 121 144 
f 6 34 132 
f 28 134 133 
f 133 49 28 
f 22 76 94 
f 134 28 4 
f 113 33 23 
f 4 36 84 
f 84 137 4 
f 46 96 64 
f 1 138 137 
f 137 84 1 
f 139 20 10 
f 138 1 131 
f 16 74 112 
f 10 116 139 
f 141 70 76 
f 111 115 135 
f 34 131 1 
f 76 22 141 
f 112 81 136 
f 81 118 142 
f 9 144 143 
f 143 89 9 
f 49 133 144 
f 144 9 49 
