v -2.3412395 -0.15625298 0.73693323
v -0.08042717 3.7644863 -0.65865517
v -0.22462045 -2.01637 0.27284575
v 1.4089862 -2.1318796 0.8672271
v -2.1482964 -2.5900307 0.97484326
v -1.6391773 -1.2889314 0.27796233
v -0.5548363 -2.4971628 0.85750437
v -1.9672949 -1.5847944 0.86881244
v -3.9785204 -0.028301716 -0.29036713
v 0.9415492 -3.8930118 0.23654127
v 0.19725756 -3.7643642 -0.7901845
v 3.7330341 -0.37897682 -0.7320471
v 0.8077332 -1.8526108 0.2480061
v -1.4995849 1.8075669 -0.739558
v 3.6738563 1.0711884 0.74045753
v 3.067748 -0.8888337 0.9980629
v -3.7311227 -1.529706 -0.09644285
v -0.60834867 1.964297 0.21395683
v -2.0886781 -2.538198 -0.99675155
v -1.6478326 1.2243639 -0.3138535
v 0.7737279 -3.1676857 1.0021225
v 0.06824207 3.0652483 0.99942195
v 3.129919 0.9882426 -0.9918251
v 3.770156 1.4700774 -0.22007751
v -2.4882321 0.41842625 -0.8686304
v 0.08392358 -3.0700085 -0.99830276
v 0.008099556 2.1007361 -0.3668356
v -3.8559513 -0.45034313 0.531868
v 2.404811 0.8841663 0.871814
v 1.9811661 0.5917436 0.21345127
v -2.194705 3.3990748 -0.352489
v 2.590954 -3.108706 -0.25836158
v 2.26518 0.47536594 -0.7043612
v 1.7989517 -0.9850279 0.26849186
v -2.3637776 -3.2926965 -0.23962402
v -3.2795792 -0.75773394 0.9870818
v 2.460707 3.1781178 0.27600145
v -3.409821 -1.5534934 -0.7395263
v -2.4407682 2.1916533 1.0047457
v 3.9901714 -0.5564501 -0.091332704
v -3.6110868 1.0485927 0.66517925
v -3.1530323 -2.292182 0.49798203
v -1.8230205 1.2992628 0.6897906
v -0.86405635 -2.0517902 -0.6938436
v -3.2290182 0.076306105 -1.0069712
v -2.0861306 -1.0622925 -0.7385404
v 3.4544194 -1.9916338 -0.27912617
v 2.9366794 2.404214 -0.6747427
v 2.2200155 -3.050043 0.70901203
v -3.045703 2.408025 0.5309963
v -0.5273776 -4.004425 0.0005902648
v 2.1307352 2.5064745 1.000817
v -3.7505617 1.5051541 -0.046411276
v 1.9445142 -1.2450296 -0.7166289
v -1.7485579 2.8340375 -1.0087833
v 1.2719517 1.6043833 -0.29730797
v -0.23982894 2.5117443 -0.8686297
v -1.1756496 -3.6361165 0.696475
v -0.8672073 2.4126575 0.87119365
v 0.6078539 -2.1921942 -0.7039343
v 1.2958434 3.8173378 -0.2622304
v 0.9054357 3.6368327 0.7062969
v -3.506999 1.3499265 -0.72604275
v -2.001354 0.31492898 -0.27792525
v 2.4691162 -2.1657615 -1.0063891
v 1.0885389 2.0164418 0.7075864
v -0.9837992 3.7143636 0.7008562
v 3.4507003 -1.5391953 0.7271795
v 1.4106666 2.1373956 -0.86831033
v 2.3640862 -0.8817451 0.8686302
v 1.0480272 3.1054664 -1.0015259
v -0.4822042 4.0125246 0.045635223
f 5 21 7 
f 40 24 15 
f 3 13 60 
f 33 54 34 
f 10 58 51 
f 31 63 53 
f 47 40 68 
f 8 7 6 
f 20 64 25 
f 23 65 54 
f 29 70 16 
f 60 44 3 
f 9 53 63 
f 34 30 33 
f 17 35 42 
f 2 55 31 
f 10 32 49 
f 9 38 17 
f 50 67 31 
f 14 57 27 
f 10 51 11 
f 12 23 24 
f 24 40 12 
f 7 4 13 
f 34 13 4 
f 63 45 9 
f 14 25 45 
f 55 45 63 
f 52 16 15 
f 65 11 26 
f 42 28 17 
f 16 52 29 
f 11 35 19 
f 5 36 42 
f 31 53 50 
f 18 43 20 
f 38 9 45 
f 43 59 39 
f 60 54 65 
f 32 10 11 
f 45 55 14 
f 68 15 16 
f 21 16 4 
f 49 21 10 
f 48 24 23 
f 39 36 43 
f 2 31 72 
f 38 19 35 
f 37 15 24 
f 64 6 46 
f 58 10 21 
f 15 37 52 
f 47 12 40 
f 1 43 36 
f 66 29 52 
f 26 19 44 
f 66 30 29 
f 43 1 64 
f 41 28 36 
f 30 66 56 
f 56 33 30 
f 4 70 34 
f 55 2 71 
f 33 56 69 
f 71 23 33 
f 33 69 71 
f 35 11 51 
f 23 71 48 
f 36 5 7 
f 46 25 64 
f 37 24 48 
f 7 8 36 
f 58 42 35 
f 45 19 38 
f 6 64 1 
f 35 17 38 
f 55 71 57 
f 19 26 11 
f 20 14 18 
f 15 68 40 
f 11 65 32 
f 57 14 55 
f 13 34 54 
f 25 14 20 
f 44 60 26 
f 41 50 53 
f 35 51 58 
f 47 32 65 
f 9 17 28 
f 32 47 68 
f 65 23 12 
f 70 4 16 
f 13 3 7 
f 48 71 61 
f 64 20 43 
f 48 61 37 
f 54 33 23 
f 37 61 62 
f 62 52 37 
f 53 9 28 
f 6 3 44 
f 52 62 22 
f 39 41 36 
f 52 22 66 
f 25 46 45 
f 41 39 50 
f 27 56 66 
f 72 31 67 
f 22 39 59 
f 54 60 13 
f 43 18 59 
f 56 27 69 
f 14 27 18 
f 46 44 19 
f 21 5 58 
f 16 21 49 
f 44 46 6 
f 49 68 16 
f 12 47 65 
f 19 45 46 
f 67 62 61 
f 61 72 67 
f 28 41 53 
f 63 31 55 
f 39 22 67 
f 62 67 22 
f 59 66 22 
f 70 29 30 
f 3 6 7 
f 66 59 18 
f 18 27 66 
f 28 42 36 
f 8 1 36 
f 65 26 60 
f 57 69 27 
f 68 49 32 
f 30 34 70 
f 69 57 71 
f 67 50 39 
f 4 7 21 
f 2 61 71 
f 1 8 6 
f 42 58 5 
f 61 2 72 
